<svg width="64" height="64" viewBox="0 0 64 64" fill="none" xmlns="http://www.w3.org/2000/svg">
<rect width="64" height="64" rx="32" fill="#1F52FD"/>
<path d="M15.5701 22.715C15.6848 22.2282 16.0766 21.9335 16.5479 21.867C17.2116 21.7905 17.8696 22.1258 18.0256 22.8645L15.5701 22.715ZM46.7298 30.5926C47.5812 30.8611 48.3025 31.2474 49.062 31.6948C51.6813 33.2381 53.9591 34.9287 56 37.276C55.822 35.7307 55.247 34.3554 54.4632 33.0743C52.8688 30.4659 50.2333 28.4315 47.5526 27.0117C45.0894 25.7075 42.4616 24.8738 39.7244 24.353C43.9918 23.8848 48.5056 24.8324 52.4137 26.5675C51.7817 25.3922 50.4176 24.1011 49.4004 23.3033C47.3672 21.7109 45.0677 20.5639 42.6176 19.7813C44.6115 19.7071 46.9766 20.4832 48.7872 21.2613C50.3839 21.9477 51.8265 22.8057 53.2857 23.779C52.9333 22.8046 52.4508 21.9957 51.881 21.2102C51.5287 20.7231 51.2068 20.2255 50.7942 19.7967L49.8872 18.8537C47.4719 16.3437 44.4971 14.7861 41.1987 13.7506C42.9549 13.5965 44.628 14.018 46.2781 14.4762C46.3206 14.4557 46.3491 14.4391 46.326 14.4414C43.2505 11.6726 38.2444 10.4337 34.2282 10.1261C29.9106 9.79542 25.4775 10.0716 21.3608 11.476C20.1724 11.882 19.0734 12.3634 18.0137 13.0139C16.7368 13.7974 15.353 15.0012 14.9884 16.5051C14.8368 17.1326 14.9087 17.77 15.2317 18.307C15.8124 19.274 16.9311 18.9301 17.8031 18.404C17.8162 18.2633 17.851 18.0787 17.9112 17.8419C18.2451 16.5334 19.1444 15.9431 19.4882 15.7607C19.5079 15.7499 19.5273 15.7761 19.5099 15.7924C18.9413 16.3217 18.6696 17.2658 18.5484 17.8736L18.5506 17.8716C18.4919 18.2371 18.424 18.6049 18.4973 18.9607C18.6588 19.7399 19.2754 20.2988 20.0492 20.4418C20.7183 20.5651 21.3708 20.4863 22.0214 20.2846C22.8933 20.0149 23.6397 19.5316 24.3796 19.0086L26.0385 17.8365C28.8107 15.8766 33.2635 15.652 36.1065 17.251C35.4023 17.1263 33.696 17.1052 33.0746 17.7603C34.2482 17.7298 37.4061 18.3672 38.2059 19.2771C38.2627 19.2086 35.6348 19.0437 34.3894 19.1207C33.3134 19.1875 32.5516 19.4406 31.8223 19.9687C32.0463 21.4561 30.8505 22.1201 29.5309 22.8034C28.026 23.5815 26.6442 23.4571 24.9351 23.4332C25.6019 23.9199 26.4043 23.8098 27.0634 24.2309C24.8261 24.8007 21.9349 23.6808 20.3699 22.1475L19.0428 20.8467C18.6217 20.4352 18.0801 19.9365 17.4713 19.8415C16.4432 19.6811 15.4218 19.9462 14.4579 20.2737C12.7762 20.8467 11.2985 21.794 10.111 23.1025C8.42157 24.9642 7.55389 27.4003 8.23069 29.8787C8.53741 31.004 9.08952 32.0255 9.99657 32.8244C9.76289 30.6505 10.9253 29.296 12.7163 28.4033C16.0657 26.8305 20.6623 26.8143 24.3208 26.9278C26.4773 26.9932 30.1466 27.1755 31.3153 24.9228C31.1572 24.8584 30.988 24.8158 30.8111 24.7919L29.9272 24.6709C30.8973 24.0957 32.1185 24.1262 33.0846 24.7428L32.4012 25.0059C31.3798 26.9101 29.136 27.4232 27.143 27.4962C26.0048 27.5379 24.9231 27.5019 23.7761 27.4691C20.7879 27.3861 17.2518 27.4691 14.4154 28.4261C13.5435 28.7197 12.1357 29.3494 11.6369 30.1908C12.2381 30.7737 13.8208 30.4037 14.5333 30.1877C15.2919 29.9563 15.999 29.7249 16.7828 29.5525C19.163 29.0307 21.554 28.902 23.9921 29.0427C27.0579 29.2196 30.0864 29.9443 32.601 31.7547C34.3569 33.0187 35.6831 34.768 36.4503 36.8144C35.3818 35.842 34.3395 34.7792 33.0429 34.2835C34.346 36.1476 35.063 38.3357 34.966 40.6452C34.4159 39.295 33.5331 37.8153 32.171 37.096C33.4096 39.3007 33.8658 41.8042 33.2547 44.2292C33.0615 43.2274 32.8563 42.3543 32.5082 41.4495C31.7978 39.6029 30.5971 37.5445 28.8706 36.4172C29.304 37.7542 29.651 38.9971 29.8584 40.3593C30.2895 43.1749 30.1246 46.0136 29.2952 48.7496C28.6481 50.8855 27.6702 52.8728 26.3868 54.7172C25.8236 55.5261 25.2299 56.1886 24.6133 56.9262C25.7514 56.5236 26.7033 55.9232 27.6254 55.2248C30.0199 53.3128 31.4888 51.0613 32.7482 48.2411C32.6589 51.0504 31.7966 53.6772 30.4684 56.0554C30.4433 56.1013 30.4302 56.1775 30.453 56.1917C33.7731 53.6826 36.3008 49.6466 37.0692 45.5531C37.3822 43.8779 37.3725 42.243 37.2021 40.5034C37.6618 41.3896 37.9237 42.3215 38.1702 43.3027C38.6527 45.3436 38.691 47.426 38.2904 49.4851C37.9902 51.035 37.3713 52.3829 36.638 53.8672C39.1044 51.9889 40.8301 49.3499 41.7063 46.4459C42.4758 43.8942 42.3665 41.1154 41.5579 38.5891C40.985 36.7981 40.1892 35.1284 39.1852 33.5425C38.5686 32.569 37.8678 31.7604 37.0615 30.8862C38.0099 31.2899 38.7868 31.8748 39.5027 32.5659C41.8766 34.8576 43.3695 37.9157 43.638 41.2193C43.9795 45.4384 43.1481 49.6566 41.5885 53.6227C43.4066 52.0554 44.6497 49.5879 45.1944 47.3267C45.5217 45.9668 45.5414 44.6275 45.417 43.2165C46.6219 46.0464 47.4556 48.7616 47.2211 51.9595C48.2754 50.5363 48.4565 48.2423 48.3059 46.6085C48.1595 45.0084 47.784 43.4893 47.2505 41.9745L47.3018 41.9189C47.6063 42.219 47.8442 42.4961 48.0799 42.8368L48.1247 42.901L48.1684 42.9654C48.773 43.8594 49.2258 44.8241 49.6538 45.8161L49.6863 45.8903C49.6994 45.9166 49.716 45.946 49.7245 45.9699L50.9569 49.1841C51.9749 45.0597 50.2179 41.1242 47.927 37.8196C47.1412 36.6857 46.2792 35.6708 45.2957 34.6873C45.2663 34.6174 45.2794 34.6165 45.3602 34.6197C47.7581 35.7647 51.3201 39.2428 52.8012 41.3522L53.6829 42.6096C53.7137 42.6348 53.7593 42.6684 53.7605 42.6433C53.7802 41.9309 53.5762 40.87 53.3818 40.1302C52.3995 36.391 49.7628 32.9882 46.7092 30.6722C46.6818 30.6142 46.6852 30.6057 46.7298 30.5926Z" fill="#ECEFF9"/>
<path d="M28.6997 19.0633C28.69 19.059 28.6788 19.0547 28.6691 19.0524C28.6375 19.0424 28.6078 19.0336 28.575 19.0247L28.5718 19.0239C28.5282 19.0142 28.4814 19.0099 28.4355 19.0099C28.0623 19.0099 27.7589 19.3132 27.7589 19.6875C27.7589 20.0608 28.0623 20.3643 28.4355 20.3643C28.7924 20.3643 29.0849 20.0881 29.1111 19.7378C29.1667 19.895 29.1973 20.0642 29.1973 20.2397C29.1973 21.0671 28.5273 21.737 27.6999 21.737C26.8739 21.737 26.2025 21.0671 26.2025 20.2397C26.2025 19.7389 26.4493 19.2958 26.8268 19.025C25.8829 19.2858 25.2104 19.9583 25.2104 20.7461C25.2104 21.761 26.3249 22.583 27.6999 22.583C29.0752 22.583 30.1905 21.761 30.1905 20.7461C30.1905 19.9931 29.577 19.3472 28.6997 19.0633Z" fill="#ECEFF9"/>
<path d="M21.4679 47.1803L21.5264 46.7024L19.6435 46.1089L17.7707 46.7038C17.7852 46.8744 17.806 47.0165 17.8377 47.184C19.0244 47.5295 20.2767 47.5321 21.4679 47.1803ZM21.9712 47.0082C23.0041 46.6019 23.8512 45.9833 24.5383 45.1587C24.4102 45.1262 24.2975 45.1057 24.1637 45.0863L22.0117 46.6347C21.9798 46.7546 21.9612 46.8944 21.9712 47.0082ZM17.2859 46.6356L15.1237 45.0823L14.7602 45.1585C15.4424 45.9922 16.3164 46.6111 17.3244 47.0091C17.329 46.8718 17.3136 46.7571 17.2859 46.6356ZM21.7147 46.2667L23.8769 44.7216L23.8789 42.8684L22.0771 42.2989L19.9189 43.8417L19.918 45.698L21.7147 46.2667ZM19.3785 45.6963L19.3722 43.8397L17.2134 42.2975L15.419 42.8693L15.4204 44.7259L17.5852 46.2678L19.3785 45.6963ZM24.8602 44.7504C25.5601 43.7216 25.9364 42.568 25.9564 41.3579L25.5113 41.1528L24.3648 42.7269L24.3611 44.6734L24.8602 44.7504ZM14.4452 44.7564L14.9448 44.6691L14.9425 42.7372L13.7792 41.1496L13.347 41.3516C13.3244 42.5024 13.7581 43.7989 14.4452 44.7564ZM21.7958 41.9183L20.9712 39.4405L18.3225 39.4408L17.5033 41.9206L19.6507 43.4514L21.7958 41.9183ZM25.6046 40.7214L25.9475 40.8643C25.8805 39.7946 25.5509 38.7746 24.958 37.8755L24.7714 38.2051L25.6046 40.7214ZM13.7005 40.6965L14.5222 38.1965L14.3319 37.8841C13.7344 38.7883 13.4097 39.7923 13.343 40.8763L13.7005 40.6965ZM24.0444 42.3617L25.1552 40.8592L24.3269 38.3606L22.5305 37.7791L21.4254 39.2836L22.2469 41.7811L24.0444 42.3617ZM17.0462 41.7822L17.868 39.2833L16.766 37.7805L14.9679 38.358L14.1407 40.8546L15.2475 42.36L17.0462 41.7822ZM20.9889 38.964L22.0985 37.4669L20.9814 35.9672L18.3085 35.9695L17.1966 37.4692L18.3068 38.9635L20.9889 38.964ZM24.4359 37.8864L24.6661 37.4644C23.9037 36.4945 22.8934 35.7655 21.7167 35.3689L21.3812 35.723L22.5447 37.2835L24.4359 37.8864ZM16.758 37.2783L17.9128 35.7176L17.5718 35.3675C16.396 35.7781 15.3853 36.492 14.6358 37.4638L14.8655 37.8852L16.758 37.2783ZM20.988 35.4987C21.0884 35.4 21.1669 35.3204 21.2442 35.2263C20.18 34.9578 19.108 34.9583 18.0503 35.2271L18.2951 35.4993L20.988 35.4987Z" fill="#FDB933"/>
</svg>
