<svg width="100" height="111" viewBox="0 0 100 111" fill="none" xmlns="http://www.w3.org/2000/svg">
<path fill-rule="evenodd" clip-rule="evenodd" d="M0 0.235024C0 0.353911 1.13967 4.05181 2.53255 8.4528C3.92543 12.8536 6.31491 20.4403 7.84243 25.3119C9.36996 30.1836 11.4868 36.9153 12.5469 40.2713C13.6068 43.6273 14.9717 47.9674 15.58 49.9161C16.1884 51.8647 17.5093 56.072 18.5155 59.2657C21.0247 67.2297 22.0051 70.3767 22.8374 73.1402C23.2284 74.4381 23.6406 75.6117 23.7533 75.7483C23.9134 75.9419 26.0877 75.9965 33.6357 75.9965H43.3132V75.554C43.3132 75.3105 43.0106 74.1813 42.641 73.0444C42.2711 71.9074 41.4253 69.2057 40.7613 67.0406C40.0973 64.8754 39.083 61.5981 38.5076 59.7577C37.932 57.9173 36.4791 53.2229 35.2791 49.3256C34.0789 45.4283 32.841 41.4424 32.5282 40.4681C32.2154 39.4938 31.1257 35.9065 30.1064 32.4964C22.3849 6.66044 20.5118 0.480672 20.3376 0.264943C20.0685 -0.0679021 0 -0.0974272 0 0.235024ZM51.674 0.166526C51.6246 0.247621 51.1709 1.68706 50.6655 3.36506C50.1602 5.04306 49.4088 7.47887 48.9959 8.77797C48.5827 10.0771 46.5997 16.3659 44.5893 22.7531C42.5788 29.1403 40.7013 35.0971 40.4173 35.9901L39.9007 37.614L40.4159 39.2379C40.6993 40.1311 42.5334 46.0434 44.4913 52.3765C49.7259 69.3075 49.7974 69.5281 50.0324 69.4496C50.2866 69.3644 50.6245 68.3391 55.3684 53.2622C57.378 46.875 59.6693 39.6119 60.4601 37.1219C61.2509 34.632 62.3939 31.0225 63.0001 29.101C63.6063 27.1795 64.1804 25.6072 64.2758 25.6072C64.4781 25.6072 64.4436 25.5039 66.2449 31.5122C69.8779 43.6312 72.415 52.1015 75.825 63.4976L79.5354 75.898L100 76L99.9065 75.5554C99.855 75.3109 98.1642 69.8848 96.1488 63.4976C91.8093 49.7438 90.8811 46.7953 84.5617 26.6898C79.0403 9.12321 77.8956 5.46271 77.0203 2.57773C76.6755 1.44102 76.3038 0.400364 76.1942 0.264943C76.0388 0.0728335 73.3351 0.0189012 63.8795 0.0189012C57.2158 0.0189012 51.7234 0.0852339 51.674 0.166526Z" fill="#111111"/>
<path d="M33.1165 111C31.0932 111 29.3163 110.651 27.7859 109.953C26.2554 109.231 25.0752 108.23 24.2451 106.95C23.415 105.669 23 104.191 23 102.515V94.4497C23 92.7737 23.415 91.2956 24.2451 90.0154C25.0752 88.7351 26.2554 87.7458 27.7859 87.0475C29.3163 86.3492 31.0932 86 33.1165 86C35.1139 86 36.8648 86.3375 38.3693 87.0126C39.8998 87.6643 41.08 88.6071 41.9101 89.8408C42.7661 91.0512 43.1941 92.4595 43.1941 94.0656C43.1941 94.2751 43.0385 94.4032 42.7272 94.4497L38.1748 94.6941H38.097C37.8376 94.6941 37.7079 94.5661 37.7079 94.3101C37.7079 93.0764 37.2798 92.0871 36.4238 91.3422C35.5938 90.5973 34.4913 90.2249 33.1165 90.2249C31.7158 90.2249 30.5874 90.5973 29.7314 91.3422C28.9013 92.0871 28.4863 93.0764 28.4863 94.3101V102.725C28.4863 103.935 28.9013 104.913 29.7314 105.658C30.5874 106.403 31.7158 106.775 33.1165 106.775C34.4913 106.775 35.5938 106.403 36.4238 105.658C37.2798 104.913 37.7079 103.935 37.7079 102.725C37.7079 102.469 37.8635 102.341 38.1748 102.341L42.7272 102.515C42.8569 102.515 42.9607 102.55 43.0385 102.62C43.1422 102.69 43.1941 102.771 43.1941 102.865C43.1941 104.471 42.7661 105.891 41.9101 107.124C41.08 108.358 39.8998 109.312 38.3693 109.987C36.8648 110.662 35.1139 111 33.1165 111Z" fill="#111111"/>
<path d="M67.0612 86.5587C67.1909 86.3724 67.3725 86.2793 67.606 86.2793H72.1584C72.2881 86.2793 72.3919 86.3259 72.4697 86.419C72.5734 86.4888 72.6253 86.5819 72.6253 86.6983V110.302C72.6253 110.418 72.5734 110.523 72.4697 110.616C72.3919 110.686 72.2881 110.721 72.1584 110.721H67.606C67.4763 110.721 67.3596 110.686 67.2558 110.616C67.178 110.523 67.1391 110.418 67.1391 110.302V94.9036C67.1391 94.8105 67.1131 94.764 67.0612 94.764C67.0094 94.764 66.9575 94.7989 66.9056 94.8687L62.7812 100.665C62.6515 100.851 62.4699 100.944 62.2364 100.944H59.9408C59.7073 100.944 59.5257 100.851 59.396 100.665L55.2716 94.8687C55.2197 94.7989 55.1679 94.7756 55.116 94.7989C55.0641 94.7989 55.0382 94.8454 55.0382 94.9385V110.302C55.0382 110.418 54.9863 110.523 54.8825 110.616C54.8047 110.686 54.7009 110.721 54.5712 110.721H50.0188C49.8891 110.721 49.7724 110.686 49.6686 110.616C49.5908 110.523 49.5519 110.418 49.5519 110.302V86.6983C49.5519 86.5819 49.5908 86.4888 49.6686 86.419C49.7724 86.3259 49.8891 86.2793 50.0188 86.2793H54.5712C54.8047 86.2793 54.9863 86.3724 55.116 86.5587L60.9524 94.6941C61.0302 94.8338 61.1081 94.8338 61.1859 94.6941L67.0612 86.5587Z" fill="#111111"/>
<path d="M89.0391 111C86.9639 111 85.1482 110.709 83.5918 110.127C82.0354 109.522 80.8292 108.672 79.9732 107.578C79.1431 106.461 78.7281 105.169 78.7281 103.703V102.934C78.7281 102.818 78.767 102.725 78.8448 102.655C78.9485 102.562 79.0653 102.515 79.195 102.515H83.6307C83.7604 102.515 83.8641 102.562 83.942 102.655C84.0457 102.725 84.0976 102.818 84.0976 102.934V103.458C84.0976 104.389 84.5775 105.181 85.5373 105.832C86.497 106.461 87.794 106.775 89.4282 106.775C90.803 106.775 91.8276 106.519 92.5021 106.007C93.1765 105.472 93.5137 104.82 93.5137 104.052C93.5137 103.493 93.3062 103.027 92.8912 102.655C92.4761 102.259 91.9055 101.922 91.1792 101.642C90.4788 101.34 89.3504 100.932 87.794 100.42C86.056 99.885 84.5775 99.338 83.3583 98.7793C82.1651 98.2207 81.1534 97.4641 80.3234 96.5098C79.5192 95.5321 79.1172 94.3333 79.1172 92.9134C79.1172 91.5168 79.5192 90.2947 80.3234 89.2472C81.1275 88.1997 82.2429 87.3966 83.6696 86.838C85.0963 86.2793 86.7435 86 88.6111 86C90.5825 86 92.3335 86.3142 93.8639 86.9427C95.4203 87.5712 96.6265 88.4558 97.4825 89.5964C98.3645 90.7137 98.8055 92.0172 98.8055 93.507V94.0307C98.8055 94.1471 98.7536 94.2519 98.6498 94.345C98.572 94.4148 98.4682 94.4497 98.3385 94.4497H93.8639C93.7342 94.4497 93.6175 94.4148 93.5137 94.345C93.4359 94.2519 93.397 94.1471 93.397 94.0307V93.7514C93.397 92.7737 92.9431 91.9474 92.0352 91.2723C91.1532 90.574 89.934 90.2249 88.3777 90.2249C87.1585 90.2249 86.1987 90.4576 85.4983 90.9232C84.8239 91.3887 84.4867 92.0289 84.4867 92.8436C84.4867 93.4255 84.6812 93.9143 85.0703 94.3101C85.4854 94.7058 86.082 95.0666 86.8602 95.3925C87.6643 95.6951 88.8965 96.1141 90.5566 96.6494C92.3983 97.2547 93.838 97.79 94.8756 98.2556C95.9391 98.7211 96.8859 99.4195 97.716 100.351C98.572 101.258 99 102.446 99 103.912C99 106.1 98.1051 107.834 96.3152 109.115C94.5254 110.372 92.1 111 89.0391 111Z" fill="#111111"/>
</svg>
