<svg width="100" height="76" viewBox="0 0 100 76" fill="none" xmlns="http://www.w3.org/2000/svg">
<path fill-rule="evenodd" clip-rule="evenodd" d="M0 0.235024C0 0.353911 1.13967 4.05181 2.53255 8.4528C3.92543 12.8536 6.31491 20.4403 7.84243 25.3119C9.36996 30.1836 11.4868 36.9153 12.5469 40.2713C13.6068 43.6273 14.9717 47.9674 15.58 49.9161C16.1884 51.8647 17.5093 56.072 18.5155 59.2656C21.0247 67.2297 22.0051 70.3767 22.8374 73.1402C23.2284 74.4381 23.6406 75.6117 23.7533 75.7483C23.9134 75.9419 26.0877 75.9965 33.6357 75.9965H43.3132V75.554C43.3132 75.3105 43.0106 74.1813 42.641 73.0444C42.2711 71.9075 41.4253 69.2057 40.7613 67.0406C40.0973 64.8754 39.083 61.5981 38.5076 59.7577C37.932 57.9173 36.4791 53.2229 35.2791 49.3256C34.0789 45.4283 32.841 41.4424 32.5282 40.4681C32.2154 39.4938 31.1257 35.9065 30.1064 32.4964C22.3849 6.66044 20.5118 0.480672 20.3376 0.264943C20.0685 -0.0679021 0 -0.0974272 0 0.235024ZM51.674 0.166526C51.6246 0.247621 51.1709 1.68706 50.6655 3.36506C50.1602 5.04306 49.4088 7.47887 48.9959 8.77797C48.5827 10.0771 46.5997 16.3659 44.5893 22.7531C42.5788 29.1403 40.7013 35.0971 40.4173 35.9901L39.9007 37.614L40.4159 39.2379C40.6993 40.1311 42.5334 46.0434 44.4913 52.3765C49.7259 69.3075 49.7974 69.5281 50.0324 69.4496C50.2866 69.3644 50.6245 68.3391 55.3684 53.2622C57.378 46.875 59.6693 39.6119 60.4601 37.1219C61.2509 34.632 62.3939 31.0225 63.0001 29.101C63.6063 27.1795 64.1804 25.6072 64.2758 25.6072C64.4781 25.6072 64.4436 25.5039 66.2449 31.5122C69.8779 43.6312 72.415 52.1015 75.825 63.4976L79.5354 75.898L89.7677 75.949L100 76L99.9065 75.5554C99.855 75.3109 98.1642 69.8848 96.1489 63.4976C91.8093 49.7439 90.8811 46.7953 84.5617 26.6898C79.0403 9.12322 77.8956 5.46271 77.0203 2.57773C76.6755 1.44102 76.3038 0.400364 76.1942 0.264943C76.0388 0.0728335 73.3351 0.0189012 63.8795 0.0189012C57.2158 0.0189012 51.7234 0.0852339 51.674 0.166526Z" fill="#111111"/>
</svg>
