<svg width="64" height="64" viewBox="0 0 64 64" fill="none" xmlns="http://www.w3.org/2000/svg">
<rect width="64" height="64" rx="5" fill="#111111"/>
<path fill-rule="evenodd" clip-rule="evenodd" d="M8 14.1113C8 14.1676 8.53564 15.9193 9.1903 18.004C9.84495 20.0885 10.968 23.6823 11.6859 25.9899C12.4039 28.2975 13.3988 31.4862 13.897 33.0759C14.3952 34.6655 15.0367 36.7214 15.3226 37.6445C15.6085 38.5675 16.2294 40.5604 16.7023 42.0732C17.8816 45.8457 18.3424 47.3363 18.7336 48.6454C18.9174 49.2602 19.1111 49.816 19.164 49.8808C19.2393 49.9725 20.2612 49.9983 23.8088 49.9983H28.3572V49.7887C28.3572 49.6734 28.215 49.1385 28.0413 48.6C27.8674 48.0614 27.4699 46.7817 27.1578 45.7561C26.8457 44.7304 26.369 43.1781 26.0986 42.3063C25.828 41.4345 25.1452 39.2108 24.5812 37.3647C24.0171 35.5187 23.4353 33.6306 23.2883 33.1691C23.1412 32.7076 22.6291 31.0083 22.15 29.393C18.5209 17.1549 17.6406 14.2277 17.5587 14.1255C17.4322 13.9678 8 13.9539 8 14.1113ZM32.2868 14.0789C32.2636 14.1173 32.0503 14.7991 31.8128 15.594C31.5753 16.3888 31.2221 17.5426 31.0281 18.158C30.8339 18.7733 29.9019 21.7523 28.957 24.7778C28.0121 27.8033 27.1296 30.6249 26.9961 31.048L26.7533 31.8172L26.9955 32.5864C27.1287 33.0095 27.9907 35.81 28.9109 38.8099C31.3712 46.8299 31.4048 46.9344 31.5152 46.8972C31.6347 46.8568 31.7935 46.3711 34.0231 39.2295C34.9677 36.204 36.0446 32.7635 36.4163 31.5841C36.7879 30.4046 37.3252 28.6949 37.6101 27.7847C37.895 26.8745 38.1648 26.1297 38.2096 26.1297C38.3047 26.1297 38.2885 26.0808 39.1351 28.9268C40.8426 34.6674 42.035 38.6797 43.6377 44.0778L45.3816 49.9517L50.1908 49.9759L55 50L54.9561 49.7894C54.9318 49.6736 54.1372 47.1033 53.19 44.0778C51.1504 37.5629 50.7141 36.1662 47.744 26.6425C45.149 18.3215 44.6109 16.5876 44.1995 15.221C44.0375 14.6826 43.8628 14.1896 43.8113 14.1255C43.7382 14.0345 42.4675 14.009 38.0234 14.009C34.8914 14.009 32.31 14.0404 32.2868 14.0789Z" fill="#F2F2F2"/>
</svg>
