<svg xmlns="http://www.w3.org/2000/svg" width="11" height="17" fill="none" viewBox="0 0 11 17"><path fill="currentColor" d="m8.515.358 1.627 1.665a.4.4 0 0 1-.005.555.38.38 0 0 1-.542.005l-.694-.71v14.485h-.773V1.873l-.693.71a.39.39 0 0 1-.275.121.38.38 0 0 1-.277-.116.4.4 0 0 1-.113-.283.4.4 0 0 1 .118-.282z"/><path fill="#010c2c" fill-opacity=".6" fill-rule="evenodd" d="M5.615 2.501c0 .525-.204 1.029-.567 1.4a1.9 1.9 0 0 1-1.367.58 1.9 1.9 0 0 1-1.367-.58 2 2 0 0 1-.566-1.4c0-.525.204-1.028.566-1.4a1.9 1.9 0 0 1 1.367-.58 1.9 1.9 0 0 1 1.367.58c.363.372.567.875.567 1.4m-.774 0c0 .315-.122.617-.34.84a1.15 1.15 0 0 1-.82.348c-.307 0-.603-.125-.82-.348a1.2 1.2 0 0 1-.34-.84c0-.315.122-.617.34-.84.217-.222.513-.347.82-.347.308 0 .603.125.82.347.218.223.34.525.34.84m.353 13.857c-.29 0-.568-.11-.782-.31a1.2 1.2 0 0 1-.373-.77l-.29-3.275h-.135l-.29 3.274a1.19 1.19 0 0 1-.453.838 1.14 1.14 0 0 1-.703.243h-.034c-.307 0-.602-.125-.82-.348a1.2 1.2 0 0 1-.34-.84V11.69a1.6 1.6 0 0 1-.448-.54 1.6 1.6 0 0 1-.173-.686L.25 6.696a1.6 1.6 0 0 1 .12-.66c.087-.21.215-.396.378-.55a1.513 1.513 0 0 1 1.218-.409l1.543.176q.171.02.342 0l1.493-.17a1.51 1.51 0 0 1 1.234.424 1.618 1.618 0 0 1 .481 1.238l-.204 3.762a1.6 1.6 0 0 1-.468 1.05v3.613c0 .315-.122.617-.34.84a1.15 1.15 0 0 1-.82.348zm-3.446-4.669a.8.8 0 0 0-.311-.635.79.79 0 0 1-.311-.613l-.102-3.767a.8.8 0 0 1 .249-.605.77.77 0 0 1 .609-.204l1.543.175q.256.03.513 0l1.492-.17a.76.76 0 0 1 .617.212.8.8 0 0 1 .24.62l-.203 3.761a.8.8 0 0 1-.234.525.8.8 0 0 0-.235.568v3.614a.4.4 0 0 1-.114.28.38.38 0 0 1-.273.116h-.034a.38.38 0 0 1-.26-.104.4.4 0 0 1-.125-.256l-.29-3.275a.8.8 0 0 0-.25-.513.76.76 0 0 0-.52-.207h-.135a.76.76 0 0 0-.522.207.8.8 0 0 0-.248.513l-.291 3.275a.4.4 0 0 1-.124.256.38.38 0 0 1-.26.104h-.034a.38.38 0 0 1-.274-.116.4.4 0 0 1-.113-.28z" clip-rule="evenodd"/><path stroke="#010c2c" stroke-opacity=".7" stroke-width=".5" d="m8.515.358 1.627 1.665a.4.4 0 0 1-.005.555.38.38 0 0 1-.542.005l-.694-.71v14.485h-.773V1.873l-.693.71a.39.39 0 0 1-.275.121.38.38 0 0 1-.277-.116.4.4 0 0 1-.113-.283.4.4 0 0 1 .118-.282z"/><path stroke="#010c2c" stroke-opacity=".7" stroke-width=".5" d="M5.615 2.501c0 .525-.204 1.029-.567 1.4a1.9 1.9 0 0 1-1.367.58 1.9 1.9 0 0 1-1.367-.58 2 2 0 0 1-.566-1.4c0-.525.204-1.028.566-1.4a1.9 1.9 0 0 1 1.367-.58 1.9 1.9 0 0 1 1.367.58c.363.372.567.875.567 1.4Zm-.774 0c0 .315-.122.617-.34.84a1.15 1.15 0 0 1-.82.348c-.307 0-.603-.125-.82-.348a1.2 1.2 0 0 1-.34-.84c0-.315.122-.617.34-.84.217-.222.513-.347.82-.347.308 0 .603.125.82.347.218.223.34.525.34.84Zm.353 13.857c-.29 0-.568-.11-.782-.31a1.2 1.2 0 0 1-.373-.77l-.29-3.275h-.135l-.29 3.274a1.19 1.19 0 0 1-.453.838 1.14 1.14 0 0 1-.703.243h-.034c-.307 0-.602-.125-.82-.348a1.2 1.2 0 0 1-.34-.84V11.69a1.6 1.6 0 0 1-.448-.54 1.6 1.6 0 0 1-.173-.686L.25 6.696a1.6 1.6 0 0 1 .12-.66c.087-.21.215-.396.378-.55a1.513 1.513 0 0 1 1.218-.409l1.543.176q.171.02.342 0l1.493-.17a1.51 1.51 0 0 1 1.234.424 1.618 1.618 0 0 1 .481 1.238l-.204 3.762a1.6 1.6 0 0 1-.468 1.05v3.613c0 .315-.122.617-.34.84a1.15 1.15 0 0 1-.82.348zm-3.446-4.669a.8.8 0 0 0-.311-.635.79.79 0 0 1-.311-.613l-.102-3.767a.8.8 0 0 1 .249-.605.77.77 0 0 1 .609-.204l1.543.175q.256.03.513 0l1.492-.17a.76.76 0 0 1 .617.212.8.8 0 0 1 .24.62l-.203 3.761a.8.8 0 0 1-.234.525.8.8 0 0 0-.235.568v3.614a.4.4 0 0 1-.114.28.38.38 0 0 1-.273.116h-.034a.38.38 0 0 1-.26-.104.4.4 0 0 1-.125-.256l-.29-3.275a.8.8 0 0 0-.25-.513.76.76 0 0 0-.52-.207h-.135a.76.76 0 0 0-.522.207.8.8 0 0 0-.248.513l-.291 3.275a.4.4 0 0 1-.124.256.38.38 0 0 1-.26.104h-.034a.38.38 0 0 1-.274-.116.4.4 0 0 1-.113-.28z" clip-rule="evenodd"/></svg>