<svg xmlns="http://www.w3.org/2000/svg" width="120" height="120" fill="none" viewBox="0 0 120 120"><path class="fill-(--logo-bg-color)" d="M96.15 59.964c0 19.965-16.185 36.15-36.15 36.15-19.966 0-36.15-16.185-36.15-36.15S40.034 23.814 60 23.814s36.15 16.185 36.15 36.15"/><path class="fill-(--logo-icon-color)" d="M39.33 46.454c.15-.635.66-1.019 1.275-1.106.866-.1 1.724.338 1.927 1.301zm40.633 10.273c1.11.35 2.051.854 3.042 1.437 3.415 2.013 6.386 4.217 9.047 7.278-.232-2.015-.982-3.808-2.004-5.479-2.08-3.401-5.516-6.054-9.012-7.906-3.212-1.7-6.639-2.788-10.208-3.467 5.565-.61 11.451.625 16.547 2.888-.824-1.533-2.603-3.216-3.93-4.257-2.65-2.076-5.65-3.572-8.844-4.592 2.6-.097 5.684.915 8.045 1.93 2.082.895 3.964 2.014 5.866 3.283-.46-1.27-1.088-2.326-1.831-3.35-.46-.635-.88-1.284-1.418-1.843l-1.182-1.23c-3.15-3.273-7.03-5.304-11.33-6.655 2.29-.2 4.471.349 6.623.947.056-.027.093-.049.063-.046-4.01-3.61-10.539-5.226-15.776-5.627-5.63-.431-11.411-.071-16.78 1.76-1.55.53-2.983 1.157-4.365 2.006-1.665 1.021-3.47 2.591-3.945 4.552-.197.819-.103 1.65.318 2.35.757 1.261 2.216.813 3.353.127.017-.184.062-.425.14-.733.436-1.707 1.609-2.477 2.057-2.714.026-.015.051.02.029.04-.742.691-1.096 1.922-1.254 2.715l.003-.003c-.077.477-.166.956-.07 1.42.21 1.017 1.015 1.745 2.024 1.932.872.16 1.723.058 2.572-.205 1.137-.352 2.11-.982 3.075-1.664l2.163-1.529c3.615-2.555 9.422-2.848 13.13-.763-.92-.163-3.144-.19-3.955.664 1.53-.04 5.649.791 6.692 1.978.074-.09-3.353-.304-4.977-.204-1.403.087-2.397.417-3.348 1.106.292 1.94-1.267 2.806-2.988 3.697-1.962 1.014-3.764.852-5.993.82.87.636 1.916.492 2.776 1.041-2.918.743-6.688-.717-8.729-2.717l-1.73-1.696c-.55-.537-1.256-1.187-2.05-1.31-1.34-.21-2.672.136-3.93.563-2.192.747-4.12 1.982-5.668 3.688-2.203 2.428-3.334 5.605-2.452 8.837.4 1.467 1.12 2.8 2.303 3.841-.305-2.835 1.211-4.6 3.547-5.765C39.976 51.82 45.97 51.8 50.74 51.948c2.812.085 7.597.323 9.121-2.615a2.7 2.7 0 0 0-.657-.17l-1.153-.158c1.265-.75 2.858-.71 4.118.094l-.892.343c-1.332 2.483-4.258 3.152-6.857 3.247-1.484.054-2.894.008-4.39-.035-3.897-.109-8.508 0-12.207 1.248-1.137.383-2.973 1.204-3.623 2.301.784.76 2.848.278 3.777-.004.99-.302 1.911-.604 2.933-.828 3.104-.68 6.222-.849 9.401-.665 3.999.23 7.948 1.175 11.227 3.536a14.25 14.25 0 0 1 5.02 6.598c-1.394-1.268-2.753-2.654-4.444-3.3 1.7 2.43 2.634 5.284 2.508 8.296-.717-1.76-1.869-3.69-3.645-4.628 1.615 2.875 2.21 6.14 1.413 9.302-.252-1.307-.52-2.445-.973-3.625-.927-2.408-2.492-5.093-4.744-6.563.566 1.744 1.018 3.365 1.288 5.141.563 3.672.348 7.373-.734 10.941a27.6 27.6 0 0 1-3.793 7.782c-.734 1.055-1.508 1.919-2.312 2.88 1.484-.524 2.725-1.307 3.928-2.218 3.122-2.493 5.038-5.43 6.68-9.107-.117 3.664-1.241 7.089-2.973 10.19-.033.06-.05.16-.02.178 4.33-3.272 7.626-8.535 8.627-13.873.409-2.184.396-4.317.174-6.585.6 1.156.94 2.37 1.262 3.65.63 2.662.68 5.377.157 8.063-.391 2.02-1.198 3.778-2.155 5.714 3.216-2.45 5.467-5.89 6.61-9.678 1.003-3.327.86-6.951-.194-10.245a28.4 28.4 0 0 0-3.094-6.581c-.804-1.27-1.718-2.324-2.77-3.464 1.237.526 2.25 1.289 3.184 2.19 3.096 2.989 5.042 6.977 5.392 11.285.446 5.501-.638 11.002-2.672 16.174 2.37-2.044 3.992-5.262 4.702-8.21.427-1.774.453-3.52.29-5.36 1.572 3.69 2.659 7.23 2.353 11.401 1.375-1.856 1.611-4.847 1.415-6.978-.191-2.086-.68-4.067-1.377-6.043l.067-.072c.397.391.708.752 1.015 1.197l.058.084.057.084c.789 1.165 1.38 2.423 1.937 3.717l.043.097c.017.034.038.072.05.103l1.607 4.192c1.327-5.378-.964-10.51-3.951-14.82a29.4 29.4 0 0 0-3.432-4.084c-.038-.092-.021-.093.084-.089 3.127 1.493 7.772 6.03 9.704 8.78l1.15 1.64c.04.032.1.076.1.044.026-.93-.24-2.313-.493-3.278-1.281-4.876-4.72-9.313-8.702-12.333-.035-.076-.03-.087.027-.104"/><path class="fill-(--logo-icon-color)"  d="m56.451 41.692-.04-.014-.122-.036-.004-.001h-.001a.883.883 0 1 0 .704.93q.11.311.112.655a1.952 1.952 0 1 1-3.09-1.584c-1.232.34-2.109 1.217-2.109 2.245 0 1.323 1.454 2.395 3.247 2.395s3.247-1.072 3.247-2.395c0-.982-.8-1.825-1.944-2.195"/><path class="fill-(--logo-outline-color)"  d="M60 1.116C27.53 1.116 1.116 27.531 1.116 60S27.531 118.884 60 118.884 118.884 92.469 118.884 60 92.469 1.116 60 1.116M60 120C26.916 120 0 93.084 0 60S26.916 0 60 0s60 26.916 60 60-26.916 60-60 60"/><path class="fill-(--logo-outline-color)" d="M60 23.878C40.083 23.878 23.88 40.082 23.88 60S40.083 96.12 60 96.12 96.122 79.918 96.122 60 79.918 23.878 60 23.878m0 73.36c-20.533 0-37.237-16.705-37.237-37.238S39.467 22.762 60 22.762 97.24 39.467 97.24 60 80.533 97.238 60 97.238"/><path class="fill-(--logo-bold-color)" d="m47.021 78.358.076-.623-2.455-.774-2.442.776c.019.222.046.407.087.626 1.548.45 3.18.454 4.734-.005m.656-.225a8.17 8.17 0 0 0 3.348-2.411 5 5 0 0 0-.489-.095l-2.806 2.02a1.5 1.5 0 0 0-.053.486m-6.11-.485-2.82-2.026-.473.1c.89 1.087 2.03 1.894 3.344 2.413a1.8 1.8 0 0 0-.05-.487m5.776-.481 2.82-2.015.002-2.417-2.35-.743-2.814 2.012-.001 2.42zm-3.047-.744-.008-2.421-2.815-2.011-2.34.745.002 2.421 2.823 2.011zm7.149-1.234c.912-1.341 1.403-2.846 1.43-4.424l-.581-.267-1.495 2.052-.005 2.539zm-13.582.008.652-.114-.003-2.52-1.517-2.07-.564.264c-.03 1.5.536 3.191 1.432 4.44m9.586-3.701-1.076-3.231H42.92L41.851 71.5l2.8 1.996zm4.966-1.56.448.186a7.9 7.9 0 0 0-1.29-3.898l-.244.43zm-15.523-.033 1.072-3.26-.249-.408a7.84 7.84 0 0 0-1.29 3.902zm13.489 2.171 1.448-1.96-1.08-3.257-2.342-.759-1.441 1.962 1.07 3.257zm-9.126-.755 1.072-3.26L40.89 66.1l-2.345.753-1.079 3.256 1.443 1.963zm5.141-3.675 1.447-1.953-1.456-1.955-3.486.003-1.45 1.955 1.448 1.949zm4.495-1.406.3-.55a8.2 8.2 0 0 0-3.846-2.733l-.437.462 1.517 2.035zm-10.012-.793 1.506-2.035-.445-.456c-1.533.535-2.85 1.466-3.828 2.733l.3.55zm5.516-2.32a4 4 0 0 0 .334-.356 8.4 8.4 0 0 0-4.165.002l.32.354zM92.962 93.652a1.636 1.636 0 1 0 3.271 0 1.636 1.636 0 0 0-3.271 0M27.038 93.652a1.636 1.636 0 1 1-3.271 0 1.636 1.636 0 0 1 3.27 0"/><path class="fill-(--logo-text-color)" d="M12.476 84.012 11.16 80.22l5.375-4.271-.07-.203-6.865-.026-1.288-3.712 8.032-2.786.776 2.239-6.119 2.122.07.203 6.869.037.983 2.835-5.374 4.27.074.215 6.12-2.123.764 2.205zM13.08 65.314q.51-.323.783-.87.273-.544.248-1.212l-.057-1.558a2.46 2.46 0 0 0-.336-1.197 2.14 2.14 0 0 0-.846-.803 2.36 2.36 0 0 0-1.213-.26q-.69.026-1.196.348a2.15 2.15 0 0 0-.779.863q-.271.54-.247 1.218l.057 1.559q.024.666.336 1.19.31.525.84.81.528.284 1.219.26a2.36 2.36 0 0 0 1.19-.348m-2.857 2.529a4.2 4.2 0 0 1-1.441-.96 4.7 4.7 0 0 1-.99-1.495 5.3 5.3 0 0 1-.403-1.897l-.058-1.583q-.039-1.035.263-1.921.3-.887.878-1.558.576-.671 1.367-1.057a4.25 4.25 0 0 1 1.73-.42 4.22 4.22 0 0 1 3.185 1.247q.626.625.99 1.488a5.3 5.3 0 0 1 .403 1.898l.058 1.582q.039 1.035-.263 1.922a4.7 4.7 0 0 1-.877 1.564q-.577.675-1.367 1.062t-1.719.42a4.25 4.25 0 0 1-1.756-.292M12.008 51.664l.507-2.193q.118-.51-.075-.867a.89.89 0 0 0-.61-.452.87.87 0 0 0-.742.14q-.323.237-.441.747l-.507 2.192zM7.86 53.16 9 48.23q.226-.975.732-1.603a2.7 2.7 0 0 1 1.2-.878q.691-.249 1.492-.063.882.203 1.397.884.515.682.51 1.707l3.9-2.227-.688 2.97-3.719 1.975-.239 1.032 3.098.717-.54 2.331zM16.774 42.367a1.97 1.97 0 0 0 1.004-.315q.46-.294.74-.848l.876-1.744q.224-.447.183-.815t-.319-.506q-.35-.177-.575-.036a1.1 1.1 0 0 0-.357.353q-.07.112-.238.407-.168.296-.38.675-.21.382-.413.745l-.343.615q-.15.244-.453.584-.305.34-.752.608a2.3 2.3 0 0 1-1.018.315q-.57.048-1.24-.29a2.46 2.46 0 0 1-1.068-1.003 2.85 2.85 0 0 1-.351-1.476q.014-.825.453-1.697l.866-1.724q.434-.862 1.11-1.428.678-.565 1.51-.787l.597 2.046q-.964.009-1.488 1.051l-.84 1.67q-.203.405-.15.724t.308.449q.277.138.482-.005t.344-.367q.069-.112.24-.412.172-.3.385-.686l.417-.75.337-.603q.113-.197.336-.458.224-.26.542-.507.317-.247.727-.401.411-.153.9-.134.49.021 1.054.303.756.38 1.138 1.065t.356 1.545-.491 1.785l-.866 1.724q-.51 1.011-1.247 1.658a4 4 0 0 1-1.671.886zM21.122 30.582l2.673-3.15 1.425 1.209-2.672 3.15zM34.825 24.688l-1.934 1.429L29 20.849l-2.768 2.045-1.16-1.57 7.47-5.518 1.16 1.57-2.768 2.045zM47.148 18.494l-2.22.925-1.324-3.176-3.868 1.613 1.324 3.176-2.22.925-3.271-7.846 2.22-.926 1.173 2.813 3.868-1.612-1.173-2.814 2.22-.925zM54.274 13.843l-.365.056.504 3.271-2.354.363-.506-3.283-.364.056L46.61 9.77l2.978-.458 2.773 2.994.26-.04 1.756-3.692 2.871-.442zM72.641 18.464l-2.363-.451.646-3.38-4.117-.786-.645 3.38-2.363-.451 1.595-8.35 2.363.45-.572 2.994 4.117.787.572-2.994 2.362.451zM84.043 11.064q-.267-.13-.485-.052a.58.58 0 0 0-.328.304.58.58 0 0 0-.036.44q.069.226.336.357l.374.183a.6.6 0 0 0 .482.044.57.57 0 0 0 .33-.296.57.57 0 0 0 .034-.447.6.6 0 0 0-.333-.349zm1.213 2.193a1.65 1.65 0 0 1-.858.262 2.05 2.05 0 0 1-.981-.229l-.374-.183a2.1 2.1 0 0 1-.789-.638 1.621 1.621 0 0 1-.157-1.708q.21-.428.586-.668.375-.24.86-.254.484-.015.987.231l.374.184q.502.246.783.635.28.39.32.833.042.445-.168.872-.204.418-.583.663m-3.124 5.794.057-3.525-.193-.095-2.772 2.195zm-.314-5.961 2.405 1.179.098 9.514-2.256-1.105.03-1.656-4.427-2.17-1.302 1.034-2.17-1.064zM91.307 18.42l2.78 2.535-1.988 6.952.159.145 4.363-4.787 1.707 1.556-5.727 6.283-2.79-2.543 1.997-6.945-.158-.144-4.364 4.787-1.707-1.556zM98.534 35.928q.414.639.961.944a2.1 2.1 0 0 0 1.146.277q.6-.028 1.169-.397.568-.37.838-.908.268-.536.211-1.16-.056-.622-.473-1.261l-1.441-2.216-3.852 2.505zm2.737-7.802 2.766 4.252q.603.929.825 1.87.222.944.093 1.815a4.1 4.1 0 0 1-.578 1.59 3.9 3.9 0 0 1-1.198 1.205 3.9 3.9 0 0 1-1.587.606q-.838.12-1.688-.117a4.8 4.8 0 0 1-1.62-.821 5.9 5.9 0 0 1-1.375-1.514l-2.764-4.252zM107.186 42.239l-1.415.497.829 2.359q.15.427.413.6t.611.05.445-.422q.096-.298-.054-.726zm-4.763 1.675.909 2.583q.174.494.512.685.338.189.743.048a.84.84 0 0 0 .532-.497q.138-.359-.035-.852l-.909-2.584zm5.656-4.337 1.668 4.74q.3.852.242 1.568-.058.714-.419 1.213a2 2 0 0 1-.978.717 1.67 1.67 0 0 1-1.02.043 2.06 2.06 0 0 1-.913-.55q-.017.777-.386 1.342-.369.564-1.077.814-.674.237-1.334.065t-1.202-.726-.862-1.464l-1.738-4.941zM106.468 53.643a2.13 2.13 0 0 0-.735.911 2.5 2.5 0 0 0-.18 1.225l.144 1.553q.063.675.402 1.177.339.5.888.754.55.254 1.226.192.687-.064 1.175-.414a2.15 2.15 0 0 0 .73-.904q.242-.555.179-1.23l-.144-1.554a2.47 2.47 0 0 0-.401-1.17 2.14 2.14 0 0 0-.884-.762q-.543-.255-1.231-.19-.675.062-1.169.412m2.711-2.683q.834.282 1.492.878.66.597 1.072 1.437t.508 1.872l.145 1.577a5.3 5.3 0 0 1-.155 1.934 4.7 4.7 0 0 1-.791 1.603 4.3 4.3 0 0 1-1.306 1.132 4.25 4.25 0 0 1-1.704.516 4.22 4.22 0 0 1-3.25-1.069 4.7 4.7 0 0 1-1.071-1.431 5.4 5.4 0 0 1-.508-1.872l-.145-1.577a5.3 5.3 0 0 1 .155-1.934 4.7 4.7 0 0 1 .79-1.61q.538-.706 1.306-1.136a4.2 4.2 0 0 1 1.692-.515 4.2 4.2 0 0 1 1.77.195M112.326 64.76l-.323 2.382-6.49-.88-.606 4.472-1.935-.263.93-6.855zM102.501 77.982q-.283.708-.217 1.33t.433 1.096q.369.474.999.727.63.25 1.224.161.593-.09 1.07-.495.475-.406.759-1.114l.98-2.454-4.268-1.706zm7.954-2.259-1.882 4.71a6 6 0 0 1-1.053 1.753 4.8 4.8 0 0 1-1.429 1.122 4.1 4.1 0 0 1-1.632.444 3.9 3.9 0 0 1-1.675-.285 3.9 3.9 0 0 1-1.41-.948 4.1 4.1 0 0 1-.877-1.446 4.8 4.8 0 0 1-.263-1.798q.035-.967.444-1.996l1.882-4.71zM45.332 104.806q.66-.282.946-.444.286-.161.369-.41a.65.65 0 0 0-.066-.555q-.16-.273-.577-.413l-1.31-.438a1.5 1.5 0 0 0-.902-.024 2.2 2.2 0 0 0-.835.449l-.981-1.684a3.53 3.53 0 0 1 1.642-.669 4.1 4.1 0 0 1 1.893.193l1.288.43q.859.287 1.402.801t.734 1.168q.189.653-.044 1.353a2 2 0 0 1-.737 1.003q-.53.382-1.587.732l-2.893.992 4.077 1.361-.554 1.661-7.318-2.444.441-1.321zM52.97 108.854q.284.655.995.736l1.135.128q.721.082 1.146-.494.425-.575.546-1.652.123-1.087-.162-1.744-.285-.655-1.008-.736l-1.135-.128q-.71-.081-1.135.495-.423.575-.547 1.663-.121 1.076.164 1.732m-1.784-4.21q.552-.914 1.447-1.352.894-.438 2.041-.309l1.196.136q1.159.13 1.933.757.773.627 1.109 1.641.334 1.015.188 2.316-.146 1.289-.699 2.204-.553.914-1.447 1.352t-2.053.307l-1.195-.135q-1.148-.13-1.922-.756-.773-.627-1.109-1.641-.334-1.014-.189-2.304.147-1.302.7-2.216M63.702 109.262q.42.58 1.13.506l1.137-.117q.722-.074 1.014-.726.292-.653.181-1.73-.111-1.09-.53-1.669-.42-.58-1.141-.505l-1.137.117q-.71.072-1.003.725-.292.652-.18 1.742.11 1.078.53 1.657m-2.64-3.732q.345-1.012 1.126-1.63.78-.619 1.93-.737l1.195-.123q1.162-.12 2.05.328.891.447 1.434 1.367t.677 2.223q.133 1.29-.213 2.301-.345 1.012-1.125 1.63-.78.62-1.94.738l-1.197.123q-1.149.118-2.038-.329-.89-.447-1.433-1.367-.544-.92-.677-2.211-.132-1.303.212-2.313M75.784 109.45l-2.589.857 2.548-7.728-4.872 1.611-.557-1.684 7.517-2.486.438 1.323z"/></svg>


