<svg width="237" height="126" viewBox="0 0 237 126" fill="none" xmlns="http://www.w3.org/2000/svg">
<path d="M25.0244 0.232503C18.2615 0.232503 12.7594 5.7346 12.7594 12.4976C12.7594 19.2606 18.2615 24.7627 25.0244 24.7627C31.7874 24.7627 37.2895 19.2606 37.2895 12.4976C37.2895 5.7346 31.7874 0.232503 25.0244 0.232503ZM25.0244 24.9952C18.1333 24.9952 12.5269 19.3888 12.5269 12.4976C12.5269 5.60641 18.1333 0 25.0244 0C31.9156 0 37.522 5.60641 37.522 12.4976C37.522 19.3888 31.9156 24.9952 25.0244 24.9952Z" fill="#F6EEE0"/>
<path d="M32.554 12.4901C32.554 16.6487 29.1827 20.0199 25.0241 20.0199C20.8655 20.0199 17.4943 16.6487 17.4943 12.4901C17.4943 8.33149 20.8655 4.96028 25.0241 4.96028C29.1827 4.96028 32.554 8.33149 32.554 12.4901Z" fill="#1F52FD"/>
<path d="M20.7191 9.67608C20.7502 9.54387 20.8566 9.46381 20.9847 9.44575C21.1649 9.42498 21.3436 9.51605 21.386 9.7167L20.7191 9.67608ZM29.1827 11.8158C29.414 11.8887 29.6099 11.9937 29.8162 12.1152C30.5276 12.5344 31.1463 12.9936 31.7007 13.6312C31.6523 13.2114 31.4962 12.8379 31.2833 12.4899C30.8502 11.7814 30.1343 11.2288 29.4062 10.8432C28.7371 10.4889 28.0234 10.2625 27.2799 10.121C28.439 9.99384 29.6651 10.2512 30.7266 10.7225C30.5549 10.4033 30.1844 10.0526 29.9081 9.83589C29.3558 9.40336 28.7312 9.09181 28.0657 8.87922C28.6073 8.85907 29.2497 9.06987 29.7415 9.28122C30.1752 9.46769 30.5671 9.70073 30.9634 9.96509C30.8677 9.70042 30.7367 9.48071 30.5819 9.26735C30.4862 9.13505 30.3988 8.99989 30.2867 8.88341L30.0403 8.62727C29.3843 7.94549 28.5762 7.52241 27.6803 7.24116C28.1574 7.19931 28.6118 7.31378 29.06 7.43825C29.0716 7.43267 29.0793 7.42817 29.073 7.42879C28.2376 6.67672 26.8779 6.34022 25.787 6.25667C24.6142 6.16685 23.4101 6.24187 22.2919 6.62333C21.9691 6.73361 21.6706 6.86435 21.3828 7.04106C21.036 7.25387 20.6601 7.58085 20.561 7.98936C20.5199 8.15978 20.5394 8.33292 20.6271 8.47877C20.7849 8.74143 21.0887 8.64804 21.3256 8.50512C21.3291 8.46692 21.3386 8.41677 21.3549 8.35245C21.4456 7.99703 21.6899 7.83668 21.7833 7.78716C21.7886 7.78421 21.7939 7.79134 21.7892 7.79576C21.6347 7.93952 21.5609 8.19597 21.528 8.36105C21.5283 8.36082 21.5283 8.36082 21.5286 8.36051C21.5127 8.45979 21.4942 8.55969 21.5141 8.65633C21.558 8.86798 21.7255 9.01981 21.9357 9.05864C22.1174 9.09212 22.2946 9.07073 22.4713 9.01593C22.7082 8.94269 22.9109 8.81141 23.1119 8.66935L23.5625 8.35098C24.3155 7.81862 25.525 7.75763 26.2972 8.19194C26.1059 8.15808 25.6425 8.15234 25.4737 8.33028C25.7924 8.32199 26.6502 8.49513 26.8674 8.74228C26.8829 8.72368 26.1691 8.67888 25.8308 8.69981C25.5385 8.71794 25.3316 8.78669 25.1335 8.93014C25.1943 9.33415 24.8695 9.5145 24.5111 9.70011C24.1024 9.91146 23.727 9.87766 23.2628 9.87115C23.4439 10.0034 23.6618 9.97346 23.8409 10.0878C23.2332 10.2426 22.4479 9.93843 22.0228 9.52194L21.6623 9.16861C21.5479 9.05685 21.4008 8.92138 21.2354 8.89557C20.9562 8.85202 20.6788 8.92402 20.417 9.01299C19.9602 9.16861 19.5588 9.42591 19.2362 9.78133C18.7773 10.287 18.5417 10.9487 18.7255 11.6219C18.8088 11.9276 18.9588 12.205 19.2052 12.422C19.1417 11.8315 19.4574 11.4636 19.9439 11.2211C20.8537 10.794 22.1022 10.7895 23.0959 10.8204C23.6817 10.8381 24.6783 10.8877 24.9958 10.2758C24.9528 10.2583 24.9069 10.2467 24.8588 10.2402L24.6187 10.2074C24.8822 10.0511 25.2139 10.0594 25.4764 10.2269L25.2908 10.2983C25.0133 10.8156 24.4038 10.9549 23.8625 10.9748C23.5533 10.9861 23.2595 10.9763 22.948 10.9674C22.1363 10.9449 21.1758 10.9674 20.4054 11.2273C20.1686 11.3071 19.7862 11.4781 19.6507 11.7067C19.814 11.865 20.2439 11.7645 20.4374 11.7058C20.6435 11.643 20.8355 11.5801 21.0484 11.5333C21.6949 11.3916 22.3444 11.3566 23.0066 11.3948C23.8394 11.4429 24.662 11.6397 25.345 12.1315C25.8219 12.4748 26.1822 12.95 26.3906 13.5058C26.1003 13.2417 25.8172 12.953 25.4651 12.8184C25.819 13.3247 26.0138 13.919 25.9874 14.5463C25.838 14.1796 25.5982 13.7777 25.2282 13.5823C25.5646 14.1811 25.6886 14.8611 25.5226 15.5198C25.4701 15.2477 25.4144 15.0105 25.3198 14.7648C25.1268 14.2632 24.8007 13.7041 24.3318 13.3979C24.4495 13.7611 24.5437 14.0987 24.6001 14.4687C24.7172 15.2334 24.6724 16.0045 24.4471 16.7476C24.2713 17.3278 24.0057 17.8676 23.6571 18.3686C23.5041 18.5883 23.3428 18.7683 23.1754 18.9686C23.4845 18.8592 23.7431 18.6962 23.9935 18.5065C24.6439 17.9871 25.0429 17.3756 25.385 16.6095C25.3607 17.3726 25.1265 18.0861 24.7658 18.7321C24.7589 18.7445 24.7554 18.7652 24.7616 18.7691C25.6634 18.0876 26.35 16.9913 26.5587 15.8794C26.6437 15.4244 26.6411 14.9803 26.5948 14.5078C26.7196 14.7485 26.7908 15.0016 26.8577 15.2682C26.9888 15.8225 26.9992 16.3881 26.8904 16.9474C26.8088 17.3684 26.6407 17.7345 26.4416 18.1377C27.1115 17.6275 27.5802 16.9107 27.8182 16.1219C28.0272 15.4288 27.9975 14.674 27.7779 13.9878C27.6223 13.5014 27.4061 13.0478 27.1334 12.6171C26.9659 12.3527 26.7756 12.133 26.5566 11.8956C26.8142 12.0052 27.0252 12.1641 27.2197 12.3518C27.8645 12.9743 28.27 13.8049 28.3429 14.7022C28.4357 15.8483 28.2098 16.994 27.7862 18.0713C28.28 17.6456 28.6177 16.9753 28.7657 16.3612C28.8546 15.9918 28.8599 15.628 28.8261 15.2448C29.1534 16.0134 29.3799 16.7509 29.3161 17.6195C29.6025 17.233 29.6517 16.6099 29.6108 16.1661C29.571 15.7315 29.4691 15.3188 29.3241 14.9074L29.3381 14.8923C29.4208 14.9738 29.4854 15.0491 29.5494 15.1416L29.5616 15.159L29.5735 15.1766C29.7377 15.4194 29.8607 15.6814 29.9769 15.9509L29.9858 15.971C29.9893 15.9781 29.9938 15.9861 29.9961 15.9926L30.3309 16.8657C30.6074 15.7454 30.1301 14.6764 29.5079 13.7788C29.2944 13.4708 29.0603 13.1952 28.7932 12.928C28.7852 12.909 28.7888 12.9088 28.8107 12.9097C29.462 13.2207 30.4295 14.1654 30.8318 14.7384L31.0713 15.0799C31.0797 15.0867 31.0921 15.0959 31.0924 15.0891C31.0977 14.8955 31.0423 14.6074 30.9895 14.4064C30.7227 13.3908 30.0065 12.4665 29.1771 11.8374C29.1697 11.8217 29.1706 11.8194 29.1827 11.8158Z" fill="#F6EEE0"/>
<path d="M24.2852 8.68419C24.2825 8.68303 24.2795 8.68187 24.2769 8.68125C24.2683 8.67854 24.2602 8.67613 24.2513 8.67373L24.2504 8.6735H24.2502C24.2383 8.67086 24.2259 8.6697 24.2134 8.6697C24.112 8.6697 24.0296 8.75208 24.0296 8.85377C24.0296 8.95514 24.112 9.0376 24.2134 9.0376C24.3103 9.0376 24.3898 8.96258 24.3969 8.86741C24.412 8.91011 24.4203 8.95607 24.4203 9.00373C24.4203 9.22848 24.2383 9.41045 24.0136 9.41045C23.7892 9.41045 23.6069 9.22848 23.6069 9.00373C23.6069 8.86772 23.6739 8.74736 23.7764 8.67381C23.5201 8.74464 23.3374 8.92731 23.3374 9.14129C23.3374 9.41696 23.6401 9.64024 24.0136 9.64024C24.3872 9.64024 24.6901 9.41696 24.6901 9.14129C24.6901 8.93677 24.5235 8.76131 24.2852 8.68419Z" fill="#F6EEE0"/>
<path d="M25.0247 4.97372C20.876 4.97372 17.5008 8.34889 17.5008 12.4976C17.5008 16.6463 20.876 20.0214 25.0247 20.0214C29.1734 20.0214 32.5486 16.6463 32.5486 12.4976C32.5486 8.34889 29.1734 4.97372 25.0247 4.97372ZM25.0247 20.2539C20.7478 20.2539 17.2683 16.7745 17.2683 12.4976C17.2683 8.2207 20.7478 4.74122 25.0247 4.74122C29.3016 4.74122 32.7811 8.2207 32.7811 12.4976C32.7811 16.7745 29.3016 20.2539 25.0247 20.2539Z" fill="#F6EEE0"/>
<path d="M22.3209 16.3214L22.3368 16.1916L21.8254 16.0304L21.3167 16.192C21.3206 16.2383 21.3263 16.2769 21.3349 16.3224C21.6572 16.4163 21.9974 16.417 22.3209 16.3214ZM22.4576 16.2747C22.7382 16.1643 22.9683 15.9963 23.1549 15.7723C23.1201 15.7635 23.0895 15.7579 23.0532 15.7526L22.4686 16.1732C22.46 16.2058 22.4549 16.2437 22.4576 16.2747ZM21.185 16.1734L20.5977 15.7515L20.499 15.7722C20.6843 15.9987 20.9216 16.1668 21.1955 16.2749C21.1967 16.2376 21.1925 16.2065 21.185 16.1734ZM22.388 16.0732L22.9753 15.6536L22.9758 15.1502L22.4864 14.9955L21.9002 15.4146L21.8999 15.9188L22.388 16.0732ZM21.7534 15.9183L21.7517 15.414L21.1653 14.9951L20.6779 15.1504L20.6783 15.6547L21.2663 16.0735L21.7534 15.9183ZM23.2423 15.6614C23.4324 15.3819 23.5347 15.0686 23.5401 14.7399L23.4192 14.6842L23.1078 15.1118L23.1068 15.6405L23.2423 15.6614ZM20.4134 15.663L20.5491 15.6393L20.5485 15.1146L20.2325 14.6833L20.1151 14.7382C20.109 15.0508 20.2268 15.4029 20.4134 15.663ZM22.41 14.8921L22.186 14.2191L21.4666 14.2192L21.2441 14.8927L21.8273 15.3085L22.41 14.8921ZM23.4445 14.567L23.5377 14.6058C23.5195 14.3153 23.43 14.0382 23.2689 13.794L23.2182 13.8835L23.4445 14.567ZM20.2111 14.5603L20.4343 13.8812L20.3826 13.7963C20.2203 14.0419 20.1321 14.3147 20.114 14.6091L20.2111 14.5603ZM23.0208 15.0126L23.3225 14.6044L23.0975 13.9258L22.6095 13.7678L22.3094 14.1765L22.5325 14.8548L23.0208 15.0126ZM21.1199 14.8552L21.3431 14.1764L21.0438 13.7682L20.5554 13.9251L20.3307 14.6032L20.6313 15.0121L21.1199 14.8552ZM22.1908 14.0897L22.4922 13.683L22.1888 13.2757L21.4628 13.2763L21.1607 13.6837L21.4623 14.0895L22.1908 14.0897ZM23.1271 13.797L23.1896 13.6823C22.9826 13.4189 22.7081 13.2209 22.3885 13.1132L22.2974 13.2093L22.6134 13.6332L23.1271 13.797ZM21.0416 13.6318L21.3553 13.2079L21.2627 13.1128C20.9433 13.2243 20.6688 13.4182 20.4652 13.6822L20.5276 13.7966L21.0416 13.6318ZM22.1906 13.1484C22.2179 13.1216 22.2392 13.1 22.2602 13.0744C21.9711 13.0015 21.6799 13.0016 21.3926 13.0747L21.4591 13.1486L22.1906 13.1484Z" fill="#FCB932"/>
<path d="M31.8899 19.507C31.8899 19.6952 32.0424 19.8477 32.2306 19.8477C32.4188 19.8477 32.5713 19.6952 32.5713 19.507C32.5713 19.3188 32.4188 19.1663 32.2306 19.1663C32.0424 19.1663 31.8899 19.3188 31.8899 19.507Z" fill="#FCB932"/>
<path d="M18.1587 19.5071C18.1587 19.6953 18.0062 19.8478 17.818 19.8478C17.6298 19.8478 17.4773 19.6953 17.4773 19.5071C17.4773 19.3189 17.6298 19.1664 17.818 19.1664C18.0062 19.1664 18.1587 19.3189 18.1587 19.5071Z" fill="#FCB932"/>
<path d="M15.1257 17.4991L14.8517 16.7095L15.9712 15.8198L15.9566 15.7776L14.5267 15.7722L14.2585 14.9991L15.9314 14.4187L16.0931 14.885L14.8186 15.3271L14.8331 15.3693L16.2639 15.377L16.4686 15.9675L15.3492 16.8571L15.3646 16.9017L16.6393 16.4595L16.7986 16.9187L15.1257 17.4991Z" fill="#F6EEE0"/>
<path d="M15.2513 13.6044C15.3224 13.5595 15.3769 13.4992 15.4145 13.4234C15.4524 13.3475 15.4696 13.2634 15.4662 13.1708L15.4542 12.8462C15.4507 12.752 15.4275 12.6689 15.3842 12.5969C15.3411 12.5249 15.2824 12.4691 15.2082 12.4296C15.1338 12.3902 15.0496 12.3721 14.9555 12.3756C14.8596 12.3791 14.7766 12.4033 14.7063 12.4481C14.6359 12.4928 14.5819 12.5528 14.5441 12.6277C14.5063 12.7027 14.4892 12.7874 14.4926 12.8814L14.5045 13.2062C14.5079 13.2987 14.5312 13.3814 14.5744 13.4542C14.6176 13.527 14.676 13.5833 14.7494 13.6227C14.8228 13.6623 14.9075 13.6802 15.0033 13.6768C15.0974 13.6733 15.1801 13.6491 15.2513 13.6044ZM14.6564 14.1312C14.543 14.0856 14.443 14.0192 14.3562 13.9313C14.2695 13.8435 14.2007 13.7397 14.15 13.6199C14.0993 13.5002 14.0712 13.3685 14.066 13.2248L14.0539 12.8951C14.0486 12.7514 14.0668 12.6179 14.1087 12.4948C14.1504 12.3716 14.2114 12.2635 14.2916 12.1704C14.3717 12.0773 14.4666 12.0039 14.5763 11.9503C14.686 11.8966 14.8062 11.8673 14.9366 11.8625C15.0656 11.8578 15.1867 11.8783 15.2999 11.9237C15.4133 11.9692 15.5134 12.0354 15.6001 12.1224C15.6869 12.2094 15.7556 12.3127 15.8063 12.4324C15.857 12.5521 15.8851 12.684 15.8903 12.8277L15.9024 13.1573C15.9077 13.301 15.8894 13.4345 15.8476 13.5576C15.8058 13.6808 15.7449 13.7893 15.6648 13.8833C15.5847 13.9771 15.4898 14.0509 15.3801 14.1046C15.2703 14.1583 15.1511 14.1875 15.0222 14.1922C14.8916 14.197 14.7697 14.1766 14.6564 14.1312Z" fill="#F6EEE0"/>
<path d="M15.0279 10.7612L15.1335 10.3044C15.1499 10.2336 15.1448 10.1735 15.1179 10.1239C15.0912 10.0746 15.0489 10.043 14.9909 10.0297C14.9329 10.0163 14.8814 10.026 14.8365 10.0588C14.7916 10.0918 14.7608 10.1436 14.7445 10.2145L14.6388 10.6712L15.0279 10.7612ZM14.1641 11.073L14.4015 10.0461C14.4329 9.91089 14.4837 9.7996 14.5539 9.71226C14.6242 9.62499 14.7073 9.56407 14.8037 9.52943C14.8999 9.49494 15.0036 9.49045 15.1147 9.51618C15.2371 9.54447 15.3342 9.60592 15.4055 9.70048C15.477 9.7951 15.5124 9.9136 15.5116 10.0559L16.3241 9.59221L16.1809 10.2107L15.4062 10.6221L15.3565 10.8371L16.0017 10.9864L15.8893 11.472L14.1641 11.073Z" fill="#F6EEE0"/>
<path d="M16.0205 8.82473C16.0959 8.82194 16.1657 8.80009 16.2297 8.75909C16.2937 8.71825 16.3451 8.65942 16.3837 8.58254L16.5663 8.21922C16.5975 8.15714 16.6101 8.10064 16.6044 8.04957C16.5985 7.9985 16.5765 7.96339 16.538 7.94401C16.4893 7.91952 16.4493 7.91704 16.4182 7.93665C16.3872 7.95618 16.3624 7.98059 16.3438 8.01012C16.3341 8.02578 16.3176 8.05399 16.2943 8.09491C16.2709 8.1359 16.2445 8.18279 16.2152 8.23557C16.186 8.2885 16.1571 8.3402 16.129 8.39073C16.1007 8.44134 16.077 8.48396 16.0577 8.51868C16.0369 8.5527 16.0054 8.59324 15.9632 8.64051C15.9209 8.68771 15.8687 8.72995 15.8066 8.76715C15.7444 8.80443 15.6737 8.82628 15.5945 8.83271C15.5154 8.83922 15.4294 8.81907 15.3362 8.77226C15.2387 8.72321 15.1647 8.65361 15.1138 8.56332C15.063 8.47303 15.0386 8.3705 15.0407 8.25595C15.0427 8.14133 15.0742 8.02345 15.1351 7.90239L15.3155 7.54333C15.3757 7.42367 15.4527 7.32463 15.5468 7.24596C15.6409 7.16753 15.7456 7.11282 15.861 7.08197L15.9855 7.50815C15.8516 7.50931 15.7483 7.58232 15.6756 7.72709L15.5008 8.07507C15.4725 8.13118 15.4621 8.1814 15.4694 8.22573C15.4767 8.27014 15.4981 8.30121 15.5335 8.31912C15.572 8.33841 15.6054 8.3381 15.6338 8.31811C15.6624 8.29827 15.6863 8.27277 15.7056 8.24177C15.7152 8.22627 15.7319 8.19767 15.7557 8.15598C15.7794 8.1142 15.8061 8.06662 15.8359 8.01307C15.8655 7.95951 15.8944 7.90743 15.9226 7.85682C15.9508 7.80622 15.9742 7.76437 15.9928 7.73112C16.0084 7.70376 16.0318 7.67198 16.0629 7.63587C16.094 7.59968 16.1316 7.56449 16.1757 7.53016C16.2197 7.4959 16.2703 7.46808 16.3272 7.44669C16.3842 7.42538 16.4467 7.41608 16.5147 7.41887C16.5827 7.42158 16.6559 7.44266 16.7341 7.48195C16.8391 7.53465 16.918 7.60867 16.9711 7.70368C17.0241 7.79885 17.0489 7.90611 17.0453 8.02547C17.0416 8.14489 17.0076 8.2689 16.943 8.39739L16.7626 8.75638C16.692 8.89673 16.6055 9.0119 16.5029 9.10187C16.4003 9.19185 16.2843 9.25339 16.1549 9.2864L16.0205 8.82473Z" fill="#F6EEE0"/>
<path d="M16.9262 6.37006L17.4829 5.71383L17.7798 5.96572L17.2231 6.62195L16.9262 6.37006Z" fill="#F6EEE0"/>
<path d="M19.7806 5.14238L19.3776 5.43998L18.5672 4.3428L17.9907 4.76859L17.749 4.44154L19.3051 3.2922L19.5467 3.61941L18.9701 4.0452L19.7806 5.14238Z" fill="#F6EEE0"/>
<path d="M22.3475 3.85209L21.8851 4.04484L21.6093 3.38329L20.8036 3.71926L21.0793 4.3808L20.6169 4.57355L19.9355 2.93913L20.3979 2.74631L20.6423 3.33237L21.448 2.99641L21.2037 2.41042L21.6661 2.21768L22.3475 3.85209Z" fill="#F6EEE0"/>
<path d="M23.8316 2.88333L23.7556 2.89503L23.8606 3.57642L23.3704 3.65198L23.265 2.96812L23.189 2.97974L22.2356 2.03508L22.8558 1.9396L23.4335 2.56325L23.4875 2.55496L23.8533 1.78592L24.4514 1.69385L23.8316 2.88333Z" fill="#F6EEE0"/>
<path d="M27.6573 3.846L27.1652 3.75199L27.2997 3.04805L26.4422 2.88429L26.3077 3.58831L25.8157 3.4943L26.1478 1.75503L26.6399 1.84896L26.5209 2.47253L27.3783 2.63637L27.4974 2.01272L27.9895 2.10673L27.6573 3.846Z" fill="#F6EEE0"/>
<path d="M30.0323 2.30464C29.9951 2.2865 29.9615 2.28286 29.9313 2.29379C29.9011 2.30479 29.8783 2.32587 29.863 2.35703C29.8484 2.38679 29.8459 2.41733 29.8555 2.44864C29.8649 2.48002 29.8883 2.50475 29.9254 2.52296L30.0033 2.56109C30.0389 2.5786 30.0724 2.58163 30.1037 2.57031C30.1351 2.559 30.158 2.53846 30.1726 2.5087C30.1879 2.47754 30.1901 2.44647 30.1796 2.41554C30.169 2.38454 30.1459 2.36028 30.1102 2.34292L30.0323 2.30464ZM30.2849 2.76127C30.2324 2.79537 30.1728 2.81359 30.1063 2.81591C30.0398 2.81831 29.9716 2.80243 29.9018 2.76825L29.8239 2.73004C29.7541 2.69586 29.6994 2.65161 29.6597 2.59713C29.6201 2.54272 29.5977 2.48436 29.5924 2.4219C29.587 2.35951 29.5986 2.29929 29.6269 2.2414C29.6561 2.18203 29.6967 2.13569 29.7489 2.10228C29.8012 2.06896 29.8609 2.05137 29.9283 2.04935C29.9954 2.04734 30.064 2.06338 30.1338 2.09756L30.2117 2.13577C30.2814 2.16994 30.3358 2.21412 30.3747 2.26806C30.4136 2.32215 30.4359 2.37997 30.4415 2.44166C30.4473 2.50343 30.4355 2.56396 30.4064 2.62332C30.3781 2.68122 30.3375 2.72725 30.2849 2.76127ZM29.6341 3.96827L29.6461 3.23387L29.6059 3.21427L29.0284 3.67144L29.6341 3.96827ZM29.5687 2.72655L30.0698 2.97208L30.0902 4.95393L29.6203 4.72367L29.6264 4.37872L28.7044 3.92689L28.4333 4.14203L27.9812 3.92053L29.5687 2.72655Z" fill="#F6EEE0"/>
<path d="M31.5453 3.83694L32.1244 4.36487L31.7103 5.81298L31.7434 5.84312L32.6522 4.84608L33.0078 5.17018L31.8149 6.47879L31.2339 5.94915L31.6497 4.50267L31.6168 4.4726L30.7079 5.46965L30.3523 5.14554L31.5453 3.83694Z" fill="#F6EEE0"/>
<path d="M33.0509 7.48355C33.1086 7.57221 33.1753 7.63777 33.2512 7.68016C33.3271 7.72248 33.4066 7.74178 33.4899 7.7379C33.5732 7.73403 33.6543 7.70636 33.7334 7.65505C33.8124 7.60367 33.8705 7.54066 33.9078 7.46611C33.9451 7.39163 33.9598 7.31103 33.9519 7.22454C33.944 7.13805 33.9112 7.05039 33.8534 6.96165L33.5533 6.50014L32.7508 7.02187L33.0509 7.48355ZM33.6212 5.85835L34.1972 6.74411C34.2809 6.87299 34.3382 7.00289 34.3691 7.13371C34.4 7.26453 34.4064 7.39054 34.3885 7.5116C34.3705 7.63266 34.3305 7.7431 34.2681 7.84276C34.2058 7.94251 34.1226 8.02613 34.0186 8.09379C33.9147 8.16137 33.8045 8.20345 33.6881 8.21996C33.5716 8.23654 33.4544 8.22841 33.3364 8.19562C33.2185 8.16284 33.1059 8.10588 32.9989 8.02458C32.8918 7.94336 32.7964 7.83827 32.7126 7.70938L32.1367 6.82363L33.6212 5.85835Z" fill="#F6EEE0"/>
<path d="M34.8526 8.79803L34.5579 8.90172L34.7306 9.393C34.7515 9.45221 34.7802 9.49391 34.8167 9.51786C34.8531 9.54188 34.8956 9.54537 34.9439 9.52832C34.9922 9.51135 35.0231 9.48205 35.0366 9.44051C35.05 9.39905 35.0463 9.34859 35.0255 9.28931L34.8526 8.79803ZM33.8607 9.14701L34.05 9.68503C34.0741 9.75369 34.1096 9.80112 34.1567 9.82763C34.2036 9.85398 34.2552 9.85731 34.3114 9.83762C34.3659 9.8184 34.4028 9.78392 34.4222 9.73424C34.4414 9.68441 34.4391 9.62527 34.4149 9.55668L34.2256 9.0186L33.8607 9.14701ZM35.0388 8.24359L35.3861 9.23079C35.4278 9.34929 35.4446 9.45826 35.4366 9.55746C35.4285 9.65666 35.3994 9.74098 35.3493 9.81027C35.2992 9.87955 35.2313 9.92939 35.1456 9.95953C35.0737 9.9848 35.003 9.98774 34.9332 9.9686C34.8632 9.94923 34.7999 9.9111 34.743 9.85398C34.7406 9.96178 34.7137 10.0549 34.6625 10.1334C34.6112 10.2119 34.5365 10.2685 34.4382 10.3029C34.3446 10.3359 34.252 10.3405 34.1604 10.3166C34.0687 10.2927 33.9853 10.2423 33.9101 10.1655C33.8347 10.0884 33.7749 9.98681 33.7305 9.86049L33.3684 8.83112L35.0388 8.24359Z" fill="#F6EEE0"/>
<path d="M34.7031 11.1736C34.6345 11.2223 34.5835 11.2856 34.55 11.3634C34.5165 11.4412 34.5041 11.5262 34.5126 11.6184L34.5425 11.9419C34.5513 12.0358 34.5791 12.1174 34.6262 12.187C34.6732 12.2565 34.735 12.3089 34.8113 12.3442C34.8877 12.3795 34.9727 12.3927 35.0666 12.3841C35.162 12.3753 35.2437 12.3465 35.3114 12.2979C35.3792 12.2494 35.4297 12.1866 35.4634 12.1096C35.4969 12.0326 35.5093 11.9472 35.5006 11.8533L35.4707 11.5298C35.4622 11.4375 35.4344 11.3564 35.3872 11.286C35.34 11.2156 35.2787 11.1628 35.2031 11.1274C35.1276 11.0921 35.0422 11.0788 34.9467 11.0876C34.8528 11.0963 34.7717 11.125 34.7031 11.1736ZM35.2678 10.6146C35.3835 10.6538 35.4871 10.7147 35.5786 10.7975C35.6701 10.8804 35.7445 10.9802 35.8018 11.097C35.8591 11.2137 35.8944 11.3437 35.9076 11.4869L35.938 11.8153C35.9512 11.9586 35.9404 12.0929 35.9055 12.2181C35.8706 12.3434 35.8157 12.4547 35.7409 12.5521C35.666 12.6495 35.5753 12.7281 35.4688 12.7877C35.3622 12.8474 35.2439 12.8833 35.1138 12.8953C34.9855 12.9072 34.8634 12.8935 34.7476 12.8544C34.632 12.8153 34.5284 12.7547 34.4369 12.6727C34.3456 12.5907 34.2712 12.4913 34.2139 12.3746C34.1567 12.2578 34.1214 12.1278 34.1081 11.9846L34.0777 11.6562C34.0645 11.5129 34.0753 11.3787 34.1102 11.2534C34.1451 11.1281 34.2 11.0163 34.2747 10.9181C34.3495 10.8199 34.4401 10.7409 34.5468 10.6813C34.6533 10.6216 34.7708 10.5859 34.8992 10.574C35.0292 10.5619 35.1521 10.5755 35.2678 10.6146Z" fill="#F6EEE0"/>
<path d="M35.9235 13.4889L35.8561 13.9853L34.5044 13.8019L34.3782 14.7333L33.9751 14.6787L34.1688 13.2508L35.9235 13.4889Z" fill="#F6EEE0"/>
<path d="M33.8769 16.2431C33.8377 16.3414 33.8226 16.4337 33.8317 16.5202C33.8408 16.6066 33.8709 16.6827 33.9221 16.7485C33.9732 16.8143 34.0425 16.8647 34.13 16.8998C34.2176 16.9347 34.3025 16.9459 34.385 16.9335C34.4674 16.921 34.5416 16.8866 34.6078 16.8302C34.6739 16.7738 34.7267 16.6965 34.766 16.5983L34.9701 16.087L34.0812 15.7318L33.8769 16.2431ZM35.5337 15.7727L35.1418 16.7538C35.0847 16.8966 35.0116 17.0183 34.9225 17.1188C34.8333 17.2194 34.7341 17.2973 34.6249 17.3524C34.5155 17.4075 34.4022 17.4385 34.2848 17.4449C34.1674 17.4514 34.0511 17.4316 33.936 17.3857C33.8208 17.3396 33.7229 17.2739 33.6422 17.1882C33.5616 17.1026 33.5007 17.0021 33.4596 16.8869C33.4183 16.7716 33.4001 16.6468 33.4048 16.5125C33.4095 16.3782 33.4403 16.2396 33.4974 16.0968L33.8894 15.1157L35.5337 15.7727Z" fill="#F6EEE0"/>
<path d="M21.9694 21.8304C22.061 21.7912 22.1265 21.7605 22.1664 21.738C22.206 21.7156 22.2317 21.687 22.2432 21.6526C22.2563 21.6133 22.2518 21.5748 22.2296 21.5369C22.2074 21.499 22.1672 21.4703 22.1092 21.4509L21.8364 21.3598C21.7737 21.3389 21.711 21.3371 21.6486 21.3546C21.586 21.3721 21.5281 21.4033 21.4747 21.4482L21.2703 21.0975C21.3702 21.0228 21.4841 20.9764 21.6123 20.9581C21.7403 20.9399 21.8719 20.9534 22.0067 20.9984L22.2749 21.0879C22.3941 21.1277 22.4914 21.1832 22.567 21.2547C22.6424 21.3261 22.6934 21.4071 22.7198 21.4979C22.7461 21.5886 22.743 21.6826 22.7106 21.7798C22.6817 21.8661 22.6306 21.9357 22.5571 21.9888C22.4836 22.0419 22.3734 22.0926 22.2265 22.1411L21.6241 22.3478L22.4733 22.6313L22.3578 22.9772L20.8335 22.4681L20.9254 22.193L21.9694 21.8304Z" fill="#F6EEE0"/>
<path d="M23.5601 22.6735C23.5997 22.7645 23.6687 22.8155 23.7674 22.8268L24.004 22.8534C24.1041 22.8647 24.1837 22.8305 24.2427 22.7506C24.3016 22.6708 24.3395 22.556 24.3564 22.4066C24.3734 22.2554 24.3622 22.1344 24.3225 22.0433C24.2829 21.9523 24.213 21.9012 24.1127 21.8899L23.8762 21.8632C23.7776 21.852 23.6989 21.8864 23.6399 21.9663C23.581 22.0461 23.5429 22.1616 23.5259 22.3128C23.509 22.4622 23.5204 22.5826 23.5601 22.6735ZM23.1886 21.7967C23.2653 21.6697 23.3658 21.5759 23.49 21.5151C23.6142 21.4542 23.7558 21.4327 23.9152 21.4507L24.1642 21.4789C24.3251 21.497 24.4594 21.5496 24.5669 21.6367C24.6744 21.7237 24.7513 21.8376 24.7978 21.9784C24.8443 22.1194 24.8573 22.2801 24.837 22.4609C24.8167 22.6398 24.7682 22.793 24.6915 22.9198C24.6147 23.0468 24.5143 23.1406 24.3902 23.2016C24.2659 23.2624 24.1233 23.2837 23.9624 23.2656L23.7134 23.2374C23.5541 23.2195 23.4207 23.1668 23.3132 23.0799C23.2057 22.9929 23.1288 22.879 23.0823 22.7381C23.0358 22.5973 23.0227 22.4372 23.0429 22.2582C23.0633 22.0775 23.1119 21.9236 23.1886 21.7967Z" fill="#F6EEE0"/>
<path d="M25.7957 22.7585C25.8538 22.839 25.9322 22.8741 26.0309 22.864L26.2677 22.8396C26.368 22.8294 26.4385 22.7789 26.4791 22.6883C26.5196 22.5977 26.5321 22.4776 26.5168 22.3279C26.5012 22.1766 26.4644 22.0607 26.4063 21.9803C26.3482 21.8998 26.2689 21.8647 26.1686 21.8751L25.9318 21.8995C25.8331 21.9095 25.7635 21.9598 25.723 22.0504C25.6824 22.141 25.6699 22.2621 25.6855 22.4134C25.7008 22.563 25.7375 22.678 25.7957 22.7585ZM25.2459 21.9811C25.2938 21.8406 25.3719 21.7276 25.4802 21.6416C25.5887 21.5557 25.7225 21.5045 25.8821 21.4882L26.1312 21.4625C26.2924 21.4459 26.4348 21.4687 26.5583 21.5309C26.6819 21.5929 26.7814 21.688 26.8568 21.8156C26.9323 21.9432 26.9793 22.0976 26.9979 22.2785C27.0163 22.4578 27.0016 22.6177 26.9536 22.7579C26.9058 22.8984 26.8276 23.0115 26.7192 23.0974C26.6109 23.1833 26.4761 23.2346 26.3149 23.2511L26.0657 23.2767C25.9063 23.2931 25.7647 23.2703 25.6412 23.2082C25.5176 23.1461 25.4182 23.0512 25.3427 22.9235C25.2673 22.7958 25.2203 22.6423 25.2018 22.463C25.1833 22.2822 25.198 22.1214 25.2459 21.9811Z" fill="#F6EEE0"/>
<path d="M28.3122 22.7978L27.7729 22.9761L28.3037 21.3665L27.2889 21.702L27.1729 21.3513L28.7387 20.8334L28.8298 21.1089L28.3122 22.7978Z" fill="#F6EEE0"/>
<path d="M45.3738 36.6918C45.3738 32.5553 42.0203 29.1985 37.8822 29.1985C33.7425 29.1985 30.3889 32.5553 30.3889 36.6918C30.3889 40.8299 33.7425 44.1867 37.8822 44.1867C42.0203 44.1867 45.3738 40.8299 45.3738 36.6918Z" fill="white"/>
<path d="M0 110.463C0 110.463 30.818 105.041 30.2715 80.8146C29.8817 63.5168 41.3891 72.7798 50.1269 90.8801C58.8663 108.982 52.7416 125.443 51.8053 125.443C51.8053 125.443 52.66 110.76 47.4356 99.4238C41.2342 85.964 40.1788 85.5367 37.605 84.9511C34.4276 84.2285 36.5121 108.902 0 110.463Z" fill="white"/>
<path d="M62.3535 58.6513C62.3535 58.6513 35.8971 70.5093 30.2698 59.4668C24.2119 47.581 40.9601 41.4318 13.9409 22.4898C13.9409 22.4898 26.9913 34.3968 25.2134 42.58C23.4355 50.7616 12.3327 73.3784 41.9028 68.6303C52.4838 66.9323 62.3535 58.6513 62.3535 58.6513Z" fill="white"/>
<path d="M69.0314 77.4937V70.7997H63.1187V77.4937H60.4812V62.636H63.1187V68.4574H69.0314V62.636H71.6379V77.4937H69.0314Z" fill="white"/>
<path d="M78.27 62.0586C77.9732 62.0586 77.7187 62.1451 77.5099 62.3163C77.2995 62.4892 77.1951 62.7274 77.1951 63.0324C77.1951 63.6816 77.554 64.0045 78.27 64.0045C78.9861 64.0045 79.3449 63.6816 79.3449 63.0324C79.3449 62.3832 78.9861 62.0586 78.27 62.0586ZM80.3285 72.3818C79.8962 72.2938 79.5717 72.2497 79.3547 72.2497C77.3534 72.2497 76.3535 72.9071 76.3535 74.2185C76.3535 75.1906 76.9179 75.6783 78.0466 75.6783C79.5684 75.6783 80.3285 74.9182 80.3285 73.3964V72.3818ZM78.2798 65.161C77.5703 65.161 76.9668 64.9652 76.4693 64.5738C75.9735 64.1807 75.7239 63.6636 75.7239 63.021C75.7239 62.406 75.9816 61.8955 76.4954 61.4894C77.0092 61.0849 77.6045 60.8826 78.2798 60.8826C78.9763 60.8826 79.5765 61.0816 80.0806 61.4796C80.5846 61.8792 80.8358 62.393 80.8358 63.021C80.8358 63.6506 80.5846 64.1644 80.0806 64.5624C79.5765 64.962 78.9763 65.161 78.2798 65.161ZM80.5715 76.409C80.3415 76.7874 79.9419 77.0957 79.371 77.3371C78.7985 77.5769 78.2015 77.696 77.5801 77.696C76.4106 77.696 75.4906 77.404 74.8219 76.8184C74.1515 76.2345 73.8171 75.4043 73.8171 74.3294C73.8171 73.0718 74.2885 72.0882 75.2329 71.3787C76.1757 70.6676 77.5165 70.3136 79.2536 70.3136C79.5504 70.3136 79.9028 70.3642 80.3089 70.4653C80.3089 69.1881 79.4999 68.5488 77.8851 68.5488C76.9309 68.5488 76.1333 68.707 75.4906 69.025L74.9442 67.0579C75.8152 66.6387 76.8542 66.4283 78.0564 66.4283C79.7136 66.4283 80.9271 66.8051 81.6986 67.5603C82.4685 68.3139 82.8534 69.7427 82.8534 71.8452V74.1663C82.8534 75.6147 83.1438 76.5232 83.7261 76.8951C83.5173 77.2605 83.2824 77.4855 83.0263 77.5704C82.7686 77.6535 82.475 77.696 82.1439 77.696C81.7785 77.696 81.4507 77.5606 81.1603 77.2898C80.87 77.0207 80.6726 76.7255 80.5715 76.409Z" fill="white"/>
<path d="M92.5797 77.4937V71.2156C92.5797 70.2891 92.4019 69.6139 92.0479 69.1882C91.6923 68.7624 91.1133 68.5488 90.3075 68.5488C89.9357 68.5488 89.5393 68.6532 89.1168 68.8636C88.6944 69.0723 88.3633 69.3333 88.1268 69.6432V77.4937H85.592V66.6322H87.4172L87.8837 67.6451C88.5737 66.8345 89.5915 66.43 90.9372 66.43C92.2273 66.43 93.2468 66.8165 93.9938 67.5897C94.7409 68.3645 95.1144 69.4442 95.1144 70.8307V77.4937H92.5797Z" fill="white"/>
<path d="M104.84 69.2289C104.3 68.7951 103.734 68.5798 103.147 68.5798C102.133 68.5798 101.351 68.888 100.805 69.5062C100.257 70.126 99.9829 71.0134 99.9829 72.1698C99.9829 74.4272 101.071 75.556 103.248 75.556C103.491 75.556 103.792 75.4842 104.146 75.339C104.501 75.1939 104.733 75.0454 104.84 74.897V69.2289ZM104.84 77.4937V76.8347C104.632 77.0647 104.276 77.2654 103.775 77.4383C103.276 77.6111 102.757 77.696 102.224 77.696C100.71 77.696 99.5181 77.2164 98.6487 76.2557C97.781 75.2966 97.3455 73.9575 97.3455 72.2399C97.3455 70.5224 97.8446 69.1245 98.8412 68.0464C99.8394 66.9682 101.089 66.4283 102.589 66.4283C103.415 66.4283 104.165 66.598 104.84 66.9356V62.5855L107.377 61.9771V77.4937H104.84Z" fill="white"/>
<path d="M112.244 69.2175V74.8872C112.616 75.326 113.12 75.5462 113.755 75.5462C114.98 75.5462 115.846 75.2558 116.356 74.6735C116.867 74.0929 117.123 73.1631 117.123 71.886C117.123 69.6808 116.067 68.5798 113.958 68.5798C113.208 68.5798 112.636 68.7918 112.244 69.2175ZM111.708 76.8951L111.138 77.696H109.709V62.5855L112.244 61.9771V67.0482C112.919 66.6355 113.657 66.4283 114.454 66.4283C116.045 66.4283 117.325 66.9307 118.299 67.9355C119.273 68.9386 119.759 70.2255 119.759 71.793C119.759 73.6133 119.269 75.0503 118.289 76.1089C117.309 77.1675 115.979 77.696 114.303 77.696C113.296 77.696 112.43 77.4301 111.708 76.8951Z" fill="white"/>
<path d="M123.918 72.0377C123.918 74.4305 124.779 75.6277 126.503 75.6277C127.294 75.6277 127.92 75.3162 128.384 74.6947C128.847 74.0717 129.079 73.186 129.079 72.0377C129.079 69.6775 128.221 68.4982 126.503 68.4982C125.712 68.4982 125.084 68.8097 124.617 69.4312C124.151 70.0526 123.918 70.922 123.918 72.0377ZM121.28 72.0377C121.28 70.3805 121.758 69.0316 122.716 67.9909C123.671 66.9503 124.934 66.43 126.503 66.43C128.152 66.43 129.434 66.9291 130.348 67.9306C131.259 68.9304 131.716 70.3006 131.716 72.0377C131.716 73.7683 131.251 75.1433 130.321 76.1644C129.392 77.1854 128.119 77.696 126.503 77.696C124.854 77.696 123.57 77.1805 122.654 76.1497C121.739 75.1188 121.28 73.7471 121.28 72.0377Z" fill="white"/>
<path d="M134.181 62.5855L136.715 61.9771V74.1875C136.715 75.5266 137.115 76.3242 137.913 76.5803C137.52 77.3241 136.851 77.696 135.905 77.696C134.755 77.696 134.181 76.8984 134.181 75.3031V62.5855Z" fill="white"/>
<path d="M146.857 69.2289C146.316 68.7951 145.752 68.5798 145.163 68.5798C144.15 68.5798 143.369 68.888 142.82 69.5062C142.272 70.126 142 71.0134 142 72.1698C142 74.4272 143.088 75.556 145.265 75.556C145.509 75.556 145.807 75.4842 146.163 75.339C146.518 75.1939 146.75 75.0454 146.857 74.897V69.2289ZM146.857 77.4937V76.8347C146.647 77.0647 146.293 77.2654 145.792 77.4383C145.292 77.6111 144.775 77.696 144.241 77.696C142.726 77.696 141.535 77.2164 140.666 76.2557C139.796 75.2966 139.363 73.9575 139.363 72.2399C139.363 70.5224 139.862 69.1245 140.858 68.0464C141.856 66.9682 143.104 66.4283 144.605 66.4283C145.43 66.4283 146.181 66.598 146.857 66.9356V62.5855L149.392 61.9771V77.4937H146.857Z" fill="white"/>
<path d="M75.6325 55.6142H73.0766L71.5352 47.6022L68.5438 55.8083H67.601L64.6096 47.6022L63.0062 55.6142H60.4617L63.4531 40.7467H64.8526L68.0675 50.7567L71.2106 40.7467H72.6003L75.6325 55.6142Z" fill="white"/>
<path d="M79.0299 50.1483C79.0299 52.5412 79.8927 53.7384 81.6168 53.7384C82.4079 53.7384 83.0342 53.4285 83.4975 52.8054C83.9607 52.184 84.1923 51.2983 84.1923 50.1483C84.1923 47.7882 83.3344 46.6089 81.6168 46.6089C80.8257 46.6089 80.1961 46.9204 79.7296 47.5419C79.2631 48.1633 79.0299 49.0327 79.0299 50.1483ZM76.394 50.1483C76.394 48.4912 76.872 47.1439 77.8278 46.1016C78.7852 45.061 80.0477 44.5406 81.6168 44.5406C83.2659 44.5406 84.5479 45.0414 85.4597 46.0412C86.3731 47.0411 86.8298 48.4112 86.8298 50.1483C86.8298 51.8789 86.3649 53.2556 85.4352 54.2767C84.5055 55.2977 83.2316 55.8083 81.6168 55.8083C79.9661 55.8083 78.6841 55.2928 77.7674 54.2603C76.8524 53.2295 76.394 51.8594 76.394 50.1483Z" fill="white"/>
<path d="M95.1353 47.1064C94.6818 46.8079 94.1843 46.6594 93.6445 46.6594C93.0556 46.6594 92.5337 46.9269 92.077 47.4619C91.6203 47.9953 91.3935 48.6477 91.3935 49.4176V55.6044H88.8572V44.7429H91.3935V45.7362C92.1031 44.9386 93.0458 44.5406 94.2219 44.5406C95.088 44.5406 95.7502 44.6728 96.2102 44.9354L95.1353 47.1064Z" fill="white"/>
<path d="M97.0618 54.9046L97.9654 52.887C98.7222 53.4888 99.5769 53.789 100.531 53.789C101.518 53.789 102.012 53.4383 102.012 52.7353C102.012 52.3226 101.862 51.9833 101.565 51.7207C101.267 51.4565 100.689 51.145 99.8314 50.7877C97.9572 50.0097 97.021 48.9218 97.021 47.5223C97.021 46.5828 97.3798 45.8504 98.0959 45.3252C98.8136 44.8016 99.7286 44.5406 100.846 44.5406C101.975 44.5406 103.035 44.7935 104.03 45.3007L103.299 47.2678C102.745 46.7948 101.975 46.5583 100.986 46.5583C100.101 46.5583 99.6585 46.9106 99.6585 47.6136C99.6585 47.8909 99.8036 48.1405 100.094 48.3639C100.386 48.5858 101.007 48.8859 101.96 49.261C102.914 49.6362 103.599 50.0913 104.02 50.6246C104.438 51.1596 104.648 51.8055 104.648 52.5624C104.648 53.5704 104.274 54.3631 103.527 54.9405C102.78 55.5179 101.764 55.8066 100.481 55.8066C99.7563 55.8066 99.1757 55.7479 98.7402 55.6305C98.3047 55.5114 97.7452 55.27 97.0618 54.9046Z" fill="white"/>
<path d="M106.413 48.3933H111.778V50.778H106.413V48.3933Z" fill="white"/>
<path d="M119.46 43.0906V55.6044H116.824V43.0906H112.097V40.7467H124.399V43.0906H119.46Z" fill="white"/>
<path d="M133 55.6044V48.912C133 48.2416 132.791 47.705 132.37 47.2988C131.951 46.8927 131.405 46.6904 130.728 46.6904C130.309 46.6904 129.886 46.803 129.46 47.0297C129.035 47.2564 128.73 47.5158 128.547 47.8061V55.6044H125.971V40.6961L128.547 40.0877V45.4328C129.203 44.8375 130.106 44.5406 131.256 44.5406C132.615 44.5406 133.669 44.9174 134.421 45.671C135.169 46.4245 135.544 47.5043 135.544 48.912V55.6044H133Z" fill="white"/>
<path d="M142.468 57.3496C142.197 58.0722 141.617 58.6725 140.728 59.1487C139.839 59.625 138.803 59.8648 137.619 59.8648V57.622C139.575 57.622 140.55 57.1327 140.55 56.1524C140.55 55.5032 140.281 54.5099 139.739 53.1708L136.342 44.7429H138.969L141.93 52.2476L144.597 44.7429H147.224L142.468 57.3496Z" fill="white"/>
<path d="M161.495 66.9764L159.711 72.4634H163.279L161.495 66.9764ZM165.136 77.4937L164.051 74.4811H158.96L157.924 77.4937H154.993L160.918 62.4338H162.072L168.047 77.4937H165.136Z" fill="white"/>
<path d="M176.413 77.4937L173.219 72.5743L172.003 73.8629V77.4937H169.466V62.5855L172.003 61.9771V70.7997L175.622 66.6322H178.675L175.004 70.7491L179.426 77.4937H176.413Z" fill="white"/>
<path d="M185.997 72.3818C185.563 72.2938 185.239 72.2497 185.023 72.2497C183.022 72.2497 182.022 72.9054 182.022 74.2168C182.022 75.1906 182.587 75.6783 183.715 75.6783C185.235 75.6783 185.997 74.9166 185.997 73.3964V72.3818ZM186.24 76.4074C186.01 76.7858 185.609 77.0957 185.038 77.3355C184.467 77.5753 183.87 77.696 183.249 77.696C182.079 77.696 181.159 77.404 180.491 76.8184C179.82 76.2345 179.486 75.4043 179.486 74.3294C179.486 73.0718 179.957 72.0882 180.9 71.3771C181.844 70.6676 183.185 70.3136 184.922 70.3136C185.219 70.3136 185.571 70.3642 185.976 70.4653C185.976 69.1865 185.169 68.5488 183.552 68.5488C182.6 68.5488 181.802 68.707 181.159 69.025L180.611 67.0579C181.484 66.6387 182.521 66.4283 183.725 66.4283C185.382 66.4283 186.596 66.8051 187.366 67.5587C188.137 68.3139 188.522 69.7411 188.522 71.8436V74.1663C188.522 75.6131 188.812 76.5232 189.395 76.8951C189.184 77.2605 188.951 77.4839 188.695 77.5687C188.437 77.6536 188.144 77.696 187.813 77.696C187.447 77.696 187.119 77.5606 186.829 77.2898C186.537 77.0191 186.341 76.7255 186.24 76.4074Z" fill="white"/>
<path d="M198.249 69.2273C197.707 68.7951 197.143 68.5781 196.554 68.5781C195.541 68.5781 194.76 68.888 194.212 69.5062C193.664 70.126 193.39 71.0134 193.39 72.1682C193.39 74.4272 194.479 75.556 196.655 75.556C196.9 75.556 197.198 75.4842 197.554 75.3374C197.908 75.1922 198.139 75.0454 198.249 74.897V69.2273ZM198.249 77.4937V76.8331C198.038 77.0631 197.684 77.2654 197.183 77.4383C196.683 77.6095 196.166 77.696 195.631 77.696C194.117 77.696 192.925 77.2164 192.057 76.2557C191.188 75.295 190.754 73.9575 190.754 72.2399C190.754 70.5224 191.253 69.1245 192.249 68.0464C193.246 66.9682 194.495 66.4283 195.996 66.4283C196.821 66.4283 197.572 66.598 198.249 66.9356V62.5855L200.783 61.9771V77.4937H198.249Z" fill="white"/>
<path d="M205.347 70.9318H210.681C210.506 69.3431 209.627 68.5488 208.045 68.5488C206.598 68.5488 205.699 69.3431 205.347 70.9318ZM213.015 72.8386H205.256C205.303 73.703 205.601 74.3767 206.148 74.8562C206.696 75.3358 207.433 75.5755 208.36 75.5755C209.514 75.5755 210.394 75.2754 210.996 74.6735L211.979 76.6113C211.087 77.3339 209.756 77.696 207.984 77.696C206.327 77.696 205.018 77.2115 204.054 76.241C203.091 75.2705 202.608 73.9167 202.608 72.178C202.608 70.4686 203.139 69.0821 204.195 68.0203C205.254 66.9601 206.523 66.4283 208.004 66.4283C209.58 66.4283 210.844 66.8981 211.798 67.8376C212.751 68.7787 213.227 69.9743 213.227 71.4293C213.227 71.7392 213.157 72.2089 213.015 72.8386Z" fill="white"/>
<path d="M227.832 77.4937V70.6888C227.832 69.2616 227.192 68.5488 225.914 68.5488C225.535 68.5488 225.17 68.6597 224.819 68.8831C224.467 69.1066 224.221 69.3627 224.079 69.6546V77.4937H221.544V70.2924C221.544 69.759 221.378 69.335 221.047 69.0202C220.715 68.7054 220.249 68.5488 219.647 68.5488C219.329 68.5488 218.983 68.6662 218.608 68.9027C218.233 69.1392 217.96 69.4002 217.791 69.684V77.4937H215.256V66.6322H217L217.517 67.5848C218.22 66.8133 219.13 66.4283 220.246 66.4283C221.686 66.4283 222.771 66.8214 223.501 67.6044C223.819 67.2471 224.261 66.9617 224.829 66.748C225.397 66.5344 225.964 66.4283 226.534 66.4283C227.744 66.4283 228.685 66.7758 229.357 67.469C230.031 68.1606 230.367 69.1131 230.367 70.3234V77.4937H227.832Z" fill="white"/>
<path d="M235.092 62.4224C235.498 62.4224 235.845 62.5659 236.132 62.853C236.419 63.1417 236.563 63.4875 236.563 63.8936C236.563 64.2981 236.419 64.6455 236.132 64.9326C235.845 65.2197 235.498 65.3632 235.092 65.3632C234.687 65.3632 234.34 65.2197 234.053 64.9326C233.766 64.6455 233.622 64.2981 233.622 63.8936C233.622 63.4875 233.766 63.1417 234.053 62.853C234.34 62.5659 234.687 62.4224 235.092 62.4224ZM233.783 77.4937V68.7102H232.394V66.6306H236.349V77.4937H233.783Z" fill="white"/>
<path d="M63.3713 94.0461L63.8134 94.6643" stroke="white" stroke-width="0.587592" stroke-miterlimit="10"/>
<path d="M64.0386 93.5845L64.766 94.6627" stroke="white" stroke-width="0.587592" stroke-miterlimit="10"/>
<path d="M65.562 94.6627L67.1931 91.6777" stroke="white" stroke-width="0.587592" stroke-miterlimit="10"/>
<path d="M66.2585 94.6382L67.8374 91.42L69.5093 94.6627" stroke="white" stroke-width="0.587592" stroke-miterlimit="10"/>
<path d="M68.3855 91.1411L70.2237 94.6186" stroke="white" stroke-width="0.587592" stroke-miterlimit="10"/>
<path d="M70.3411 94.6202C70.3688 94.5795 72.7013 89.0549 72.7013 89.0549" stroke="white" stroke-width="0.587592" stroke-miterlimit="10"/>
<path d="M73.1433 88.975L73.1156 89.0452L70.9348 94.6627" stroke="white" stroke-width="0.587592" stroke-miterlimit="10"/>
<path d="M74.9146 94.6627L73.1155 89.0452" stroke="white" stroke-width="0.587592" stroke-miterlimit="10"/>
<path d="M73.6228 88.7956L75.5508 94.6627" stroke="white" stroke-width="0.587592" stroke-miterlimit="10"/>
<path d="M75.6306 94.6202L77.7983 87.5331" stroke="white" stroke-width="0.587592" stroke-miterlimit="10"/>
<path d="M78.2943 87.3651L78.2682 87.4548L76.2261 94.6627" stroke="white" stroke-width="0.587592" stroke-miterlimit="10"/>
<path d="M80.0332 94.6202L78.2683 87.4548" stroke="white" stroke-width="0.587592" stroke-miterlimit="10"/>
<path d="M80.669 94.6202L78.7737 87.2721" stroke="white" stroke-width="0.587592" stroke-miterlimit="10"/>
<path d="M80.8647 94.6202L83.1483 86.3995" stroke="white" stroke-width="0.587592" stroke-miterlimit="10"/>
<path d="M83.5972 86.3555L81.405 94.6627" stroke="white" stroke-width="0.587592" stroke-miterlimit="10"/>
<path d="M83.4338 86.3555L85.2917 94.6627" stroke="white" stroke-width="0.587592" stroke-miterlimit="10"/>
<path d="M84.0391 86.3065L85.9784 94.6627" stroke="white" stroke-width="0.587592" stroke-miterlimit="10"/>
<path d="M86.0535 94.6627L89.1526 85.7944" stroke="white" stroke-width="0.587592" stroke-miterlimit="10"/>
<path d="M89.5504 85.796L86.6323 94.6202" stroke="white" stroke-width="0.587592" stroke-miterlimit="10"/>
<path d="M90.0677 85.8237C106.718 86.3147 116.803 94.6627 116.803 94.6627H62.5527C62.5527 94.6627 72.6394 86.3147 89.2897 85.8237H90.0677Z" stroke="white" stroke-width="0.587592" stroke-miterlimit="10"/>
<path d="M89.4576 84.9087C71.8841 84.9087 60.5513 94.5713 60.5513 94.5713V95.762H118.803V94.5713C118.803 94.5713 107.471 84.9087 89.8996 84.9087H89.4576Z" stroke="white" stroke-width="0.587592" stroke-miterlimit="10"/>
<path d="M115.984 94.0461L115.544 94.6643" stroke="white" stroke-width="0.587592" stroke-miterlimit="10"/>
<path d="M115.317 93.5845L114.59 94.6627" stroke="white" stroke-width="0.587592" stroke-miterlimit="10"/>
<path d="M113.795 94.6627L112.162 91.6777" stroke="white" stroke-width="0.587592" stroke-miterlimit="10"/>
<path d="M113.097 94.6382L111.517 91.42L109.848 94.6627" stroke="white" stroke-width="0.587592" stroke-miterlimit="10"/>
<path d="M110.97 91.1411L109.132 94.6186" stroke="white" stroke-width="0.587592" stroke-miterlimit="10"/>
<path d="M109.014 94.6202C108.985 94.5795 106.654 89.0549 106.654 89.0549" stroke="white" stroke-width="0.587592" stroke-miterlimit="10"/>
<path d="M106.212 88.975L106.24 89.0452L108.417 94.6627" stroke="white" stroke-width="0.587592" stroke-miterlimit="10"/>
<path d="M104.441 94.6627L106.24 89.0452" stroke="white" stroke-width="0.587592" stroke-miterlimit="10"/>
<path d="M105.733 88.7956L103.805 94.6627" stroke="white" stroke-width="0.587592" stroke-miterlimit="10"/>
<path d="M103.725 94.6202L101.56 87.5331" stroke="white" stroke-width="0.587592" stroke-miterlimit="10"/>
<path d="M101.061 87.3651L101.087 87.4548L103.13 94.6627" stroke="white" stroke-width="0.587592" stroke-miterlimit="10"/>
<path d="M99.3208 94.6202L101.087 87.4548" stroke="white" stroke-width="0.587592" stroke-miterlimit="10"/>
<path d="M98.6846 94.6202L100.58 87.2721" stroke="white" stroke-width="0.587592" stroke-miterlimit="10"/>
<path d="M98.4906 94.6202L96.2087 86.3995" stroke="white" stroke-width="0.587592" stroke-miterlimit="10"/>
<path d="M95.7568 86.3555L97.949 94.6627" stroke="white" stroke-width="0.587592" stroke-miterlimit="10"/>
<path d="M95.9215 86.3555L94.0637 94.6627" stroke="white" stroke-width="0.587592" stroke-miterlimit="10"/>
<path d="M95.3166 86.3065L93.3772 94.6627" stroke="white" stroke-width="0.587592" stroke-miterlimit="10"/>
<path d="M93.3036 94.6627L89.9893 85.8237" stroke="white" stroke-width="0.587592" stroke-miterlimit="10"/>
<path d="M89.5913 85.8237L92.7214 94.6202" stroke="white" stroke-width="0.587592" stroke-miterlimit="10"/>
<path d="M122.11 94.1456L122.551 94.7621" stroke="white" stroke-width="0.587592" stroke-miterlimit="10"/>
<path d="M122.778 93.6824L123.505 94.7621" stroke="white" stroke-width="0.587592" stroke-miterlimit="10"/>
<path d="M124.3 94.7621L125.934 91.7772" stroke="white" stroke-width="0.587592" stroke-miterlimit="10"/>
<path d="M124.998 94.736L126.578 91.5179L128.247 94.7621" stroke="white" stroke-width="0.587592" stroke-miterlimit="10"/>
<path d="M127.125 91.2406L128.963 94.7181" stroke="white" stroke-width="0.587592" stroke-miterlimit="10"/>
<path d="M129.08 94.7181C129.11 94.679 131.441 89.1544 131.441 89.1544" stroke="white" stroke-width="0.587592" stroke-miterlimit="10"/>
<path d="M131.882 89.0729L131.855 89.143L129.676 94.7605" stroke="white" stroke-width="0.587592" stroke-miterlimit="10"/>
<path d="M133.654 94.7621L131.855 89.1446" stroke="white" stroke-width="0.587592" stroke-miterlimit="10"/>
<path d="M132.364 88.8951L134.29 94.7621" stroke="white" stroke-width="0.587592" stroke-miterlimit="10"/>
<path d="M134.37 94.7181L136.534 87.6326" stroke="white" stroke-width="0.587592" stroke-miterlimit="10"/>
<path d="M137.033 87.463L137.007 87.5527L134.965 94.7621" stroke="white" stroke-width="0.587592" stroke-miterlimit="10"/>
<path d="M138.774 94.7181L137.007 87.5527" stroke="white" stroke-width="0.587592" stroke-miterlimit="10"/>
<path d="M139.41 94.7181L137.516 87.3716" stroke="white" stroke-width="0.587592" stroke-miterlimit="10"/>
<path d="M139.604 94.7181L141.888 86.4974" stroke="white" stroke-width="0.587592" stroke-miterlimit="10"/>
<path d="M142.338 86.4533L140.146 94.7605" stroke="white" stroke-width="0.587592" stroke-miterlimit="10"/>
<path d="M142.173 86.4533L144.031 94.7605" stroke="white" stroke-width="0.587592" stroke-miterlimit="10"/>
<path d="M142.778 86.4044L144.717 94.7621" stroke="white" stroke-width="0.587592" stroke-miterlimit="10"/>
<path d="M144.791 94.7621L147.893 85.8939" stroke="white" stroke-width="0.587592" stroke-miterlimit="10"/>
<path d="M148.29 85.8939L145.373 94.7181" stroke="white" stroke-width="0.587592" stroke-miterlimit="10"/>
<path d="M148.805 85.9216C165.457 86.4125 175.542 94.7621 175.542 94.7621H121.292C121.292 94.7621 131.377 86.4125 148.029 85.9216H148.805Z" stroke="white" stroke-width="0.587592" stroke-miterlimit="10"/>
<path d="M148.195 85.0082C130.623 85.0082 119.291 94.6692 119.291 94.6692V95.8615H177.544V94.6692C177.544 94.6692 166.211 85.0082 148.637 85.0082H148.195Z" stroke="white" stroke-width="0.587592" stroke-miterlimit="10"/>
<path d="M174.723 94.1456L174.281 94.7621" stroke="white" stroke-width="0.587592" stroke-miterlimit="10"/>
<path d="M174.056 93.6824L173.329 94.7621" stroke="white" stroke-width="0.587592" stroke-miterlimit="10"/>
<path d="M172.533 94.7621L170.902 91.7772" stroke="white" stroke-width="0.587592" stroke-miterlimit="10"/>
<path d="M171.836 94.736L170.257 91.5179L168.587 94.7621" stroke="white" stroke-width="0.587592" stroke-miterlimit="10"/>
<path d="M169.709 91.2406L167.871 94.7181" stroke="white" stroke-width="0.587592" stroke-miterlimit="10"/>
<path d="M167.754 94.7181C167.724 94.679 165.393 89.1544 165.393 89.1544" stroke="white" stroke-width="0.587592" stroke-miterlimit="10"/>
<path d="M164.951 89.0729L164.981 89.143L167.158 94.7605" stroke="white" stroke-width="0.587592" stroke-miterlimit="10"/>
<path d="M163.18 94.7621L164.979 89.1446" stroke="white" stroke-width="0.587592" stroke-miterlimit="10"/>
<path d="M164.47 88.8951L162.544 94.7621" stroke="white" stroke-width="0.587592" stroke-miterlimit="10"/>
<path d="M162.464 94.7181L160.296 87.6326" stroke="white" stroke-width="0.587592" stroke-miterlimit="10"/>
<path d="M159.799 87.463L159.826 87.5527L161.868 94.7621" fill="white"/>
<path d="M159.799 87.463L159.826 87.5527L161.868 94.7621" stroke="white" stroke-width="0.587592" stroke-miterlimit="10"/>
<path d="M158.06 94.7181L159.825 87.5527" stroke="white" stroke-width="0.587592" stroke-miterlimit="10"/>
<path d="M157.424 94.7181L159.321 87.3716" stroke="white" stroke-width="0.587592" stroke-miterlimit="10"/>
<path d="M157.23 94.7181L154.946 86.4974" stroke="white" stroke-width="0.587592" stroke-miterlimit="10"/>
<path d="M154.498 86.4533L156.688 94.7605" stroke="white" stroke-width="0.587592" stroke-miterlimit="10"/>
<path d="M154.661 86.4533L152.803 94.7605" stroke="white" stroke-width="0.587592" stroke-miterlimit="10"/>
<path d="M154.055 86.4044L152.118 94.7621" stroke="white" stroke-width="0.587592" stroke-miterlimit="10"/>
<path d="M152.041 94.7621L148.729 85.9216" stroke="white" stroke-width="0.587592" stroke-miterlimit="10"/>
<path d="M148.329 85.9216L151.462 94.7197" stroke="white" stroke-width="0.587592" stroke-miterlimit="10"/>
<path d="M180.85 94.2435L181.29 94.86" stroke="white" stroke-width="0.587592" stroke-miterlimit="10"/>
<path d="M181.517 93.7819L182.244 94.8584" stroke="white" stroke-width="0.587592" stroke-miterlimit="10"/>
<path d="M183.039 94.86L184.671 91.8751" stroke="white" stroke-width="0.587592" stroke-miterlimit="10"/>
<path d="M183.737 94.8355L185.316 91.6158L186.986 94.86" stroke="white" stroke-width="0.587592" stroke-miterlimit="10"/>
<path d="M185.862 91.3385L187.702 94.8176" stroke="white" stroke-width="0.587592" stroke-miterlimit="10"/>
<path d="M187.818 94.8176C187.847 94.7768 190.178 89.2523 190.178 89.2523" stroke="white" stroke-width="0.587592" stroke-miterlimit="10"/>
<path d="M190.621 89.1707L190.592 89.2425L188.413 94.86" stroke="white" stroke-width="0.587592" stroke-miterlimit="10"/>
<path d="M192.394 94.86L190.592 89.2425" stroke="white" stroke-width="0.587592" stroke-miterlimit="10"/>
<path d="M191.101 88.9929L193.031 94.86" stroke="white" stroke-width="0.587592" stroke-miterlimit="10"/>
<path d="M193.107 94.8176L195.275 87.7289" stroke="white" stroke-width="0.587592" stroke-miterlimit="10"/>
<path d="M195.773 87.5608L195.746 87.6522L193.704 94.86" stroke="white" stroke-width="0.587592" stroke-miterlimit="10"/>
<path d="M197.513 94.8176L195.746 87.6522" stroke="white" stroke-width="0.587592" stroke-miterlimit="10"/>
<path d="M198.149 94.8176L196.252 87.4695" stroke="white" stroke-width="0.587592" stroke-miterlimit="10"/>
<path d="M198.343 94.8176L200.627 86.5952" stroke="white" stroke-width="0.587592" stroke-miterlimit="10"/>
<path d="M201.077 86.5528L198.883 94.86" stroke="white" stroke-width="0.587592" stroke-miterlimit="10"/>
<path d="M200.911 86.5528L202.772 94.86" stroke="white" stroke-width="0.587592" stroke-miterlimit="10"/>
<path d="M201.519 86.5023L203.457 94.86" stroke="white" stroke-width="0.587592" stroke-miterlimit="10"/>
<path d="M203.53 94.86L206.632 85.9917" stroke="white" stroke-width="0.587592" stroke-miterlimit="10"/>
<path d="M207.029 85.9917L204.112 94.816" stroke="white" stroke-width="0.587592" stroke-miterlimit="10"/>
<path d="M207.546 86.0211C224.196 86.5104 234.283 94.86 234.283 94.86H180.031C180.031 94.86 190.116 86.5104 206.768 86.0211H207.546Z" stroke="white" stroke-width="0.587592" stroke-miterlimit="10"/>
<path d="M206.934 85.106C189.362 85.106 178.028 94.767 178.028 94.767V95.9594H236.282V94.767C236.282 94.767 224.95 85.106 207.376 85.106H206.934Z" stroke="white" stroke-width="0.587592" stroke-miterlimit="10"/>
<path d="M233.462 94.2435L233.02 94.86" stroke="white" stroke-width="0.587592" stroke-miterlimit="10"/>
<path d="M232.797 93.7819L232.068 94.8584" stroke="white" stroke-width="0.587592" stroke-miterlimit="10"/>
<path d="M231.272 94.86L229.641 91.8751" stroke="white" stroke-width="0.587592" stroke-miterlimit="10"/>
<path d="M230.574 94.8355L228.996 91.6158L227.326 94.86" stroke="white" stroke-width="0.587592" stroke-miterlimit="10"/>
<path d="M228.448 91.3385L226.61 94.8176" stroke="white" stroke-width="0.587592" stroke-miterlimit="10"/>
<path d="M226.494 94.8176C226.463 94.7768 224.132 89.2523 224.132 89.2523" stroke="white" stroke-width="0.587592" stroke-miterlimit="10"/>
<path d="M223.69 89.1707L223.718 89.2425L225.897 94.86" stroke="white" stroke-width="0.587592" stroke-miterlimit="10"/>
<path d="M221.919 94.86L223.718 89.2425" stroke="white" stroke-width="0.587592" stroke-miterlimit="10"/>
<path d="M223.211 88.9929L221.283 94.86" stroke="white" stroke-width="0.587592" stroke-miterlimit="10"/>
<path d="M221.203 94.8176L219.039 87.7289" stroke="white" stroke-width="0.587592" stroke-miterlimit="10"/>
<path d="M218.539 87.5608L218.565 87.6522L220.608 94.86" stroke="white" stroke-width="0.587592" stroke-miterlimit="10"/>
<path d="M216.799 94.8176L218.566 87.6522" stroke="white" stroke-width="0.587592" stroke-miterlimit="10"/>
<path d="M216.165 94.8176L218.058 87.4695" stroke="white" stroke-width="0.587592" stroke-miterlimit="10"/>
<path d="M215.969 94.8176L213.685 86.5952" stroke="white" stroke-width="0.587592" stroke-miterlimit="10"/>
<path d="M213.237 86.5528L215.427 94.86" stroke="white" stroke-width="0.587592" stroke-miterlimit="10"/>
<path d="M213.4 86.5528L211.542 94.86" stroke="white" stroke-width="0.587592" stroke-miterlimit="10"/>
<path d="M212.795 86.5023L210.857 94.86" stroke="white" stroke-width="0.587592" stroke-miterlimit="10"/>
<path d="M210.78 94.86L207.468 86.0195" stroke="white" stroke-width="0.587592" stroke-miterlimit="10"/>
<path d="M207.068 86.0211L210.201 94.8176" stroke="white" stroke-width="0.587592" stroke-miterlimit="10"/>
<path d="M236.283 97.9297H177.896V96.8043H236.283V97.9297Z" stroke="white" stroke-width="0.587592" stroke-miterlimit="10"/>
</svg>
