<svg xmlns="http://www.w3.org/2000/svg" width="355" height="352" fill="none" viewBox="0 0 355 352"><path fill="currentColor"  d="M73.99 94.986a9 9 0 0 0-1.247.078c-3.162.439-5.79 2.432-6.555 5.69l16.483 1.018c-.937-4.506-4.676-6.786-8.682-6.786"/><path fill="currentColor" d="M147.668 94.181c5.539 0 10.044-4.504 10.044-10.062 0-1.189-.192-2.32-.575-3.374a4.56 4.56 0 0 1-4.543 4.216c-2.491 0-4.543-2.05-4.543-4.56a4.553 4.553 0 0 1 4.543-4.543c.307 0 .613.02.92.095h.019c.23.058.422.117.633.193a.8.8 0 0 1 .21.077c5.885 1.895 10.006 6.228 10.006 11.288 0 6.822-7.494 12.343-16.714 12.343-9.239 0-16.733-5.521-16.733-12.343 0-5.29 4.524-9.794 10.869-11.558a10 10 0 0 0-4.198 8.166c0 5.558 4.504 10.062 10.062 10.062m143.504 66.868c-5.097-3.009-9.947-5.596-15.679-7.398-.287.096-.306.153-.134.537 20.51 15.563 38.239 38.408 44.833 63.534 1.302 4.964 2.663 12.093 2.53 16.884 0 .04-.02.059-.038.059-.116 0-.326-.172-.479-.289l-5.924-8.452c-9.947-14.163-33.868-37.527-49.987-45.23h-.23c-.326 0-.365.077-.192.461 6.594 6.611 12.401 13.415 17.671 21.042 15.392 22.194 27.2 48.624 20.357 76.337l-8.28-21.599c-.059-.153-.173-.346-.25-.537l-.23-.498c-2.875-6.651-5.922-13.13-9.967-19.147l-.306-.42-.287-.442c-1.591-2.28-3.182-4.14-5.233-6.153l-.345.366c3.584 10.175 6.095 20.372 7.091 31.123 1.017 10.983-.211 26.391-7.284 35.956 1.573-21.485-4.025-39.732-12.132-58.744.843 9.488.709 18.476-1.495 27.619-3.661 15.179-12 31.758-24.228 42.279 10.485-26.64 16.082-54.968 13.782-83.313-1.802-22.176-11.845-42.721-27.774-58.111-4.811-4.657-10.043-8.586-16.406-11.288 5.424 5.864 10.12 11.309 14.261 17.842 6.746 10.658 12.093 21.869 15.946 33.905 5.424 16.961 6.153 35.63.996 52.763-5.883 19.511-17.48 37.239-34.059 49.85 4.926-9.967 9.085-19.012 11.116-29.439 2.685-13.819 2.434-27.808-.823-41.513-1.648-6.592-3.412-12.861-6.498-18.819 1.149 11.69 1.208 22.673-.882 33.923-5.175 27.501-22.156 54.622-44.449 71.469-.153-.098-.077-.614.096-.922 8.932-15.964 14.721-33.616 15.314-52.493-8.452 18.955-18.323 34.075-34.404 46.916-6.191 4.697-12.593 8.72-20.24 11.423 4.139-4.945 8.126-9.39 11.921-14.834 8.606-12.382 15.181-25.739 19.532-40.075 5.577-18.381 6.669-37.449 3.776-56.365-1.38-9.144-3.719-17.498-6.632-26.488 11.596 7.589 19.665 21.407 24.438 33.807 2.338 6.077 3.719 11.942 5.021 18.668 4.102-16.291 1.036-33.098-7.283-47.914 9.143 4.83 15.085 14.777 18.765 23.844.651-15.506-4.159-30.206-12.918-42.721 8.72 3.315 15.716 10.464 22.904 17-5.156-13.762-14.068-25.511-25.856-34-16.906-12.15-37.242-17.018-57.846-18.207-4.045-.231-8.07-.366-12.077-.366-12.228 0-24.303 1.152-36.34 3.777-5.271 1.168-10.024 2.721-15.123 4.274-2.875.881-7.878 2.128-12.286 2.128-2.913 0-5.558-.556-7.169-2.11 3.355-5.653 12.803-9.869 18.67-11.844 15.62-5.27 34.385-6.592 51.712-6.592 3.795 0 7.551.056 11.175.152 5.233.153 10.254.307 15.333.307 2.397 0 4.831-.037 7.284-.114 13.378-.498 28.463-3.949 35.325-16.732l4.581-1.764c-3.392-2.165-7.226-3.259-11.059-3.259-3.528 0-7.035.922-10.16 2.78l5.942.805c1.189.153 2.338.441 3.393.882-6.19 11.922-22.79 13.685-36.647 13.685-3.738 0-7.264-.135-10.332-.212a469 469 0 0 0-15.813-.286c-21.103 0-44.275 1.801-62.158 10.195-12.018 5.999-19.838 15.083-18.267 29.688-6.095-5.366-9.794-12.227-11.864-19.78-4.543-16.654 1.284-33.02 12.631-45.518 7.993-8.796 17.902-15.16 29.21-19.011 5.138-1.745 10.524-3.22 15.967-3.22 1.418 0 2.855.095 4.275.325 4.082.633 7.724 3.987 10.56 6.745l8.913 8.741c8.605 8.432 23.192 15.007 36.456 15.007 2.913 0 5.789-.307 8.511-1.016-4.429-2.817-9.814-2.089-14.3-5.348 3.259.04 6.344.136 9.334.136 7.496 0 14.299-.633 21.545-4.371 8.855-4.58 16.886-9.046 15.391-19.03 4.887-3.548 10.006-5.253 17.231-5.713a108 108 0 0 1 5.347-.133c8.378 0 19.282.729 20.241 1.13-5.347-5.942-25.588-10.138-33.85-10.138-.191 0-.383 0-.556.018 2.838-3.008 9.048-3.89 14.224-3.89 2.414 0 4.618.193 6.133.46-8.453-4.752-19.052-7.11-29.843-7.11-13.552 0-27.41 3.718-37.778 11.039l-11.156 7.878c-4.965 3.507-9.986 6.766-15.832 8.566-2.952.921-5.903 1.456-8.894 1.456q-2.156.001-4.37-.403c-5.195-.958-9.334-4.714-10.408-9.945-.498-2.377-.038-4.85.345-7.303h-.019c.825-4.082 2.645-10.425 6.478-13.973.097-.095.02-.227-.096-.227-.018 0-.037 0-.057.018-2.318 1.226-8.357 5.194-10.599 13.971-.403 1.591-.633 2.836-.729 3.776-3.163 1.916-6.803 3.468-10.1 3.468-2.818 0-5.367-1.13-7.17-4.12-2.165-3.602-2.645-7.877-1.628-12.093 2.454-10.1 11.75-18.188 20.316-23.459 7.112-4.369 14.51-7.609 22.484-10.33 20.835-7.11 42.895-9.91 64.9-9.91 7.207 0 14.394.29 21.544.845 26.967 2.07 60.606 10.388 81.269 28.978h.018c.116 0-.076.115-.344.25-9.488-2.645-19.111-5.099-29.078-5.099-1.666 0-3.353.077-5.04.212 22.157 6.957 42.148 17.42 58.364 34.286l6.095 6.324c2.76 2.894 4.925 6.229 7.302 9.506 3.815 5.271 7.073 10.695 9.431 17.25-9.794-6.536-19.493-12.305-30.226-16.905-11.617-5.001-26.624-9.985-39.619-9.985-.614 0-1.227.02-1.821.038 16.465 5.253 31.913 12.957 45.561 23.651 6.842 5.366 16.004 14.03 20.239 21.926-21.735-9.641-46.268-15.678-70.323-15.678-5.003 0-9.987.27-14.912.804 18.381 3.508 36.052 9.103 52.594 17.863 17.998 9.546 35.709 23.211 46.423 40.727 5.252 8.606 9.124 17.845 10.312 28.211-13.705-15.753-29.001-27.118-46.596-37.487m63.635 51.422-1.801-15.677c-1.342-11.674-5.424-22.942-12.478-34.479a99 99 0 0 0-7.13-10.179c.786.347 1.571.519 2.319.519 3.949 0 7.053-4.351 4.907-8.299l-3.317-6.191a4.9 4.9 0 0 0 2.742.863c3.163 0 5.922-3.161 4.657-6.65l-10.752-29.707c-2.588-7.169-6.211-13.858-11.443-21.044-.461-.652-.92-1.303-1.4-1.974-2.012-2.837-4.274-6.056-7.264-9.143l-6.076-6.343c-5.98-6.21-12.535-11.787-19.761-16.809v-.056c0-1.914.111-3.57-.499-5.443-.574-1.766-1.51-3.434-2.582-4.945-4.447-6.26-11.116-10.763-17.633-14.624-6.194-3.669-12.729-6.746-19.44-9.348-6.374-2.47-12.911-4.512-19.533-6.202a206 206 0 0 0-17.824-3.705 217 217 0 0 0-14.313-1.852q-1.746-.166-3.494-.301A298 298 0 0 0 169.979 0c-25.472 0-48.972 3.604-69.845 10.735-9.813 3.353-17.922 7.09-25.55 11.767-10.312 6.323-23.403 17.171-27.217 32.907-1.36 5.691-1.227 11.422.345 16.71-11.405 4.831-21.333 11.847-29.556 20.912C2.324 110.49-3.541 132.3 2.094 152.903c3.009 11.08 8.567 20.26 16.503 27.235l4.217 3.738c9.009 7.916 23.058.651 21.773-11.269l-.46-4.333c.902.077 1.84.115 2.799.115 6.249 0 12.554-1.513 16.733-2.778l2.51-.768c3.93-1.226 7.649-2.375 11.444-3.2 10.522-2.298 21.333-3.431 33.062-3.431 3.624 0 7.4.115 11.195.347q3.392.17 6.612.516l12.458 38.427c3.221 9.928 4.985 16.885 6.058 24.054 2.626 17.075 1.514 33.767-3.297 49.619-3.795 12.572-9.68 24.609-17.442 35.762-2.568 3.699-5.424 7.072-8.453 10.637-.863 1.017-1.744 2.071-2.645 3.124l-11.155 13.358c-6.901 8.261 1.495 20.335 11.635 16.751L132.047 345c7.168-2.547 13.82-6.076 21.122-11.27a15.35 15.35 0 0 0 4.907 4.908 15.32 15.32 0 0 0 17.328-.805c.784-.595 1.571-1.189 2.338-1.802-.519 1.035-.749 2.07-.749 3.047 0 5.098 6.115 8.913 10.869 5.31l29.133-22.195c.998-.767 1.994-1.553 2.972-2.358l-3.373 8.607c-3.259 8.261 6.746 15.35 13.474 9.544l20.912-18.034c4.216-3.624 8.146-7.897 11.71-12.651l-.325 4.562c-.805 10.733 12.918 15.811 19.32 7.186l9.43-12.743a44 44 0 0 0 4.274-7.111c1.687 4.427 5.617 6.573 9.526 6.573 4.351 0 8.702-2.644 9.967-7.781l3.911-15.774c2.606-10.598 3.162-21.368 1.609-32.388.825.114 1.591.173 2.282.173 4.102 0 7.838-1.611 10.618-4.257a15.3 15.3 0 0 0 4.754-10.387v-.326c.133-4.771-.653-10.176-1.515-14.528 6.728 7.763 19.435 2.168 18.266-8.029"/></svg>