<svg xmlns="http://www.w3.org/2000/svg" width="14" height="16" fill="none" viewBox="0 0 14 16"><path fill="currentColor" fill-rule="evenodd" d="m6.953 15.407-.008.002-.052.025-.014.003-.01-.003-.052-.026q-.011-.003-.017.004l-.003.007-.012.31.003.015.007.01.076.053.01.003.01-.003.075-.053.008-.012.003-.012-.012-.31q-.003-.012-.012-.013m.192-.082-.01.002-.134.067-.007.007-.002.008.013.312.003.009.006.005.146.067q.014.003.021-.006l.003-.01-.025-.445q-.003-.014-.014-.016m-.518.002a.014.014 0 0 0-.02.004l-.004.01-.025.445q0 .014.012.018l.011-.002.146-.067.007-.006.002-.008.013-.312-.002-.009-.007-.007zM10.872 5.073a2.174 2.174 0 0 1 2.17 2.047l.004.128v2.174c0 .464-.275.825-.64.99l-.085.035v2.599a1.45 1.45 0 0 1-1.34 1.446l-.11.003H2.175a1.45 1.45 0 0 1-1.446-1.34l-.003-.11v-2.597a1.08 1.08 0 0 1-.72-.921L0 9.422V7.248a2.174 2.174 0 0 1 2.047-2.171l.127-.004zm-.05 4.856a.73.73 0 0 0-.79-.052l-.079.052-.193.145a2.175 2.175 0 0 1-2.485.087l-.124-.087-.193-.145a.73.73 0 0 0-.79-.052l-.08.052-.193.145a2.17 2.17 0 0 1-2.485.087l-.125-.087-.192-.145a.73.73 0 0 0-.79-.052l-.08.052-.049.037v3.08h8.697v-3.08zm.05-3.406H2.173a.725.725 0 0 0-.724.725V8.7a2.17 2.17 0 0 1 2.512.069l.193.145a.725.725 0 0 0 .87 0l.193-.145a2.174 2.174 0 0 1 2.61 0l.193.145a.725.725 0 0 0 .87 0l.192-.145a2.17 2.17 0 0 1 2.513-.07V7.249a.724.724 0 0 0-.725-.725M6.958.145q.45.352.831.778c.38.427.908 1.146.908 1.976a2.174 2.174 0 0 1-4.348 0c0-.83.529-1.55.908-1.976q.382-.426.831-.778a.725.725 0 0 1 .87 0m-.435 1.547a4 4 0 0 0-.183.194c-.345.388-.542.756-.542 1.013a.725.725 0 0 0 1.45 0c0-.257-.196-.625-.542-1.013a4 4 0 0 0-.183-.194" clip-rule="evenodd"/></svg>