<svg xmlns="http://www.w3.org/2000/svg" width="56" height="55" fill="none" viewBox="0 0 56 55"><path fill="currentColor" fill-rule="evenodd" d="M16.76 12.77c-3.939 6.89-9.343 16.328-12.01 20.974-2.949 5.139-4.809 8.534-4.749 8.67.055.123 1.237.887 2.627 1.697l2.528 1.474.986-.702c1.749-1.245 3.598-1.53 5.445-.84 2.493.932 4.061 3.563 3.646 6.12-.08.5-.062.996.042 1.102.345.352 5.047 3.044 5.247 3.005.109-.022.368-.365.577-.763s1.535-2.701 2.948-5.119c1.412-2.417 5.709-9.844 9.548-16.503C40.338 20.188 44.369 13.24 44.9 12.397c.344-.544.204-.658-2.861-2.34l-2.568-1.41-.87.71c-1.6 1.307-3.796 1.583-5.704.717-.756-.343-1.112-.62-1.85-1.44-1.313-1.461-1.729-2.895-1.438-4.96l.1-.717-2.5-1.463C24.686.018 24.283-.16 24.05.099c-.07.079-3.35 5.78-7.29 12.67M23.366 8.1c.318-.13.785-.19 1.039-.135.495.109 13.007 7.327 13.426 7.745.138.139.354.568.48.954.173.53.15.876-.096 1.406-.508 1.099-15.654 27.373-15.95 27.67-.344.343-1.111.58-1.796.552-.403-.016-2.192-.978-6.93-3.728-6.923-4.018-7.025-4.094-7.096-5.37-.036-.647.415-1.477 7.833-14.425 4.328-7.556 8.015-13.895 8.191-14.086.177-.19.581-.453.9-.583m-2.625 7.21c-1.636 2.853-5.1 8.88-7.698 13.392C9.945 34.085 8.35 37 8.407 37.182c.07.224 10.814 6.615 11.978 7.124.161.07.379.043.483-.061.408-.408 15.448-26.782 15.396-26.999a.53.53 0 0 0-.23-.317c-.097-.048-2.457-1.44-5.245-3.094-6.453-3.828-6.614-3.917-6.865-3.805-.115.05-1.547 2.427-3.183 5.28m3.747-1.193c.466-.14 1.041.432 1.013 1.009-.012.248-1.013 2.154-2.311 4.397-1.789 3.091-2.38 3.999-2.7 4.142-.58.26-1.083-.048-1.182-.72-.07-.47.213-1.054 2.102-4.345 2.303-4.01 2.51-4.311 3.078-4.483m3.492 2.052c.412-.124 1.001.375 1.072.908.043.32-4.283 8.08-4.785 8.582a.8.8 0 0 1-.49.2c-.415 0-1.06-.704-1.023-1.115.034-.373 4.153-7.694 4.602-8.179a1.7 1.7 0 0 1 .624-.396M16.284 30.532l1.57.138.588-.734c.323-.403.81-1.022 1.082-1.374.697-.904.923-.73 1.416 1.093.223.828.47 1.57.548 1.647.078.078.708.33 1.4.56 1.228.407 1.892.84 1.812 1.18-.022.094-.673.569-1.447 1.055l-1.408.886-.048 1.54c-.06 1.914-.266 2.181-1.152 1.498-2.12-1.632-1.935-1.551-3-1.315-.539.12-1.243.279-1.565.353-.995.23-1.105-.15-.488-1.689.302-.754.55-1.451.55-1.55s-.368-.726-.82-1.395c-.836-1.242-.995-1.645-.748-1.891.076-.077.846-.078 1.71-.002m15.44-12.306c.555.001 1.021.546.949 1.11-.053.408-2.09 3.931-2.534 4.384-.61.62-1.658.148-1.616-.729.02-.431 1.928-3.945 2.437-4.487.144-.154.487-.279.763-.278m12.175-.548c-1.216 2.122-1.328 2.394-1.14 2.75.113.217 1.42 2.056 2.901 4.087 1.483 2.031 2.767 3.918 2.856 4.193.2.623.067 1.304-.373 1.912-.197.271-4.416 3.428-10.092 7.55-5.364 3.895-9.896 7.226-10.07 7.4-.296.296-2.264 3.645-2.27 3.861-.001.054.063.098.142.098.197 0 29.08-21.09 29.19-21.314.072-.148-2.224-3.537-2.726-4.025-.084-.081-.519-.065-.968.035-1.854.416-3.393-.008-4.704-1.297-1.79-1.757-2.079-4.425-.692-6.38.392-.552.392-.611.002-1.07-.286-.34-.457-.437-.56-.321-.081.091-.755 1.226-1.496 2.52M35.94 31.429c-2.881 5.02-5.183 9.178-5.115 9.24s3.448-2.32 7.512-5.293c7.492-5.48 8.22-6.033 8.22-6.226-.001-.144-4.546-6.376-4.929-6.759-.163-.163-.331-.25-.373-.193s-2.434 4.211-5.315 9.231" clip-rule="evenodd"/></svg>