<svg xmlns="http://www.w3.org/2000/svg" width="45" height="45" fill="none" viewBox="0 0 45 45"><path fill="currentColor" fill-rule="evenodd" stroke="currentColor" stroke-width=".5" d="M11.532.45c-.826.287-1.61.958-2.025 1.735-.361.674-.39.97-.441 4.534-.037 2.553.008 3.93.135 4.168.212.394.936.481 1.158.14.077-.119.178-1.26.226-2.536l.086-2.32h23.253l.047 2.995c.03 1.853.12 3.082.237 3.223.235.283.87.295 1.145.02.313-.311.29-9.23-.025-9.982S33.834.648 33.032.426c-.897-.249-20.782-.227-21.5.023ZM33.49 2.386c.48.458.53.601.484 1.374l-.05.863H10.67l-.056-.579c-.076-.8.273-1.549.903-1.935.507-.31.99-.323 10.983-.28l10.453.044zm-14.63.337c-.113.137-.18.427-.15.645.052.365.15.4 1.278.446 1.43.058 1.813-.179 1.477-.915-.177-.387-.29-.424-1.296-.424-.75 0-1.168.079-1.309.248Zm4.27.176c-.336.736.047.973 1.477.915 1.127-.046 1.226-.08 1.278-.446.096-.68-.254-.893-1.46-.893-1.005 0-1.119.037-1.295.424Zm-4.374 7.018c-.056.145-.076.482-.046.75l.056.487 1.664.05c1.062.03 1.727.125 1.841.262.098.118.727 3.924 1.398 8.458 1.542 10.421 1.436 9.909 2.176 10.556.545.478.705.524 1.805.524 1.179 0 1.221.016 1.847.672 1.091 1.145 2.606 1.068 3.495-.177.34-.476.406-.494 1.762-.494h1.41l.639.678c.983 1.043 2.008 1.127 3.053.25 1.016-.854 1.087-2.234.162-3.157-.961-.96-2.518-.836-3.36.266-.448.585-.455.588-1.873.588s-1.425-.003-1.872-.588c-.913-1.194-2.453-1.236-3.433-.093-.54.63-.65.68-1.472.68-1.165 0-1.577-.381-1.577-1.46v-.774h7.644c6.227 0 7.68-.043 7.838-.233.107-.128.71-2.985 1.343-6.348.956-5.089 1.111-6.16.925-6.384-.197-.237-1.338-.268-9.913-.268-7.549 0-9.726-.048-9.854-.215-.09-.118-.248-.779-.35-1.468-.331-2.232-.87-2.664-3.432-2.759-1.475-.054-1.793-.021-1.876.197ZM7.259 13.046c-3.197.877-5.984 3.76-6.744 6.978-.792 3.35.211 6.663 2.742 9.062 1.983 1.879 3.815 2.601 6.608 2.605 3.309.004 6.105-1.522 7.965-4.348 1.058-1.608 1.448-2.983 1.448-5.103 0-1.434-.081-2.04-.396-2.954-1.033-3.004-3.626-5.46-6.598-6.249-1.142-.303-3.906-.298-5.025.009Zm4.033 1.292c6.485 1.227 8.781 9.3 3.932 13.826C10.169 32.882 1.8 29.188 1.8 22.24c0-2.364.79-4.217 2.48-5.81 1.91-1.803 4.483-2.57 7.012-2.092Zm-2.05 1.578c-.115.113-.208.421-.208.685 0 .37-.153.576-.674.904-1.64 1.033-1.974 2.955-.765 4.39.56.663 1.138.958 2.128 1.084 1.047.134 1.628.78 1.487 1.655-.122.763-.654 1.216-1.427 1.216-.703 0-1.438-.637-1.438-1.247 0-.51-.302-.816-.803-.816-.56 0-.8.543-.585 1.333.235.868.6 1.35 1.403 1.856.521.328.674.533.674.904 0 .57.28.891.776.891.495 0 .775-.32.775-.891 0-.368.152-.575.657-.894 1.613-1.015 1.965-2.997.782-4.4-.56-.663-1.138-.958-2.128-1.085-1.409-.18-2.036-1.542-1.128-2.448.808-.806 2.193-.433 2.426.653.157.735.38.988.87.988.546 0 .771-.478.594-1.261-.2-.88-.586-1.416-1.389-1.922-.53-.334-.684-.538-.684-.91 0-.57-.28-.891-.775-.891-.2 0-.455.092-.569.206Zm33.303.013c.047.12-.324 2.382-.824 5.027l-.907 4.808-7.224.044c-4.897.03-7.282-.013-7.406-.136-.19-.19-1.652-9.609-1.527-9.834.04-.07 4.062-.128 8.938-.128 7.026 0 8.883.045 8.95.219Zm-16.458.812a.65.65 0 0 0 0 .687c.178.333.36.344 5.77.344s5.592-.01 5.77-.344a.65.65 0 0 0 0-.687c-.178-.333-.36-.344-5.77-.344s-5.592.01-5.77.344Zm12.615-.145a.67.67 0 0 0 .03.992c.386.32 2.348.166 2.58-.203.137-.218.137-.383 0-.601-.238-.378-2.273-.524-2.61-.188Zm-7.017 13.617c0 .614-.463.965-.905.687-.675-.424-.34-1.328.46-1.235.364.042.445.142.445.548Zm7.313-.333c.268.322.175.78-.208 1.02-.552.347-1.183-.35-.924-1.022.123-.32.865-.32 1.132.002Zm-4.762 2.887c-.077.118-.179 1.066-.226 2.105l-.086 1.891H10.67l-.086-1.547c-.097-1.74-.19-1.976-.78-1.976-.728 0-.798.43-.74 4.522.052 3.564.08 3.86.442 4.534a3.77 3.77 0 0 0 2.094 1.748c.824.275 20.569.275 21.393 0a3.77 3.77 0 0 0 2.094-1.748c.365-.682.389-.952.44-4.986.04-3.108-.001-4.333-.15-4.512-.252-.303-.954-.322-1.142-.03Zm-.262 7.041c.036.947-.026 1.475-.218 1.845-.552 1.065-.273 1.04-11.459 1.04-11.168 0-10.907.023-11.451-1.026-.265-.512-.376-2.927-.145-3.158.063-.064 5.315-.096 11.67-.072l11.553.045zm-13.63.277c-.366.403-.36.596.03.948.48.434 3.478.411 3.878-.03.365-.403.359-.596-.03-.948-.481-.434-3.479-.411-3.879.03Z" clip-rule="evenodd"/></svg>