
<svg xmlns="http://www.w3.org/2000/svg" width="98" height="35" fill="none" viewBox="0 0 98 35"><path fill="#efefef" fill-rule="evenodd" d="M77.436 4.892c-1.63 2.723-3.08 4.95-3.224 4.95-.143 0-1.137-1.056-2.21-2.347-1.072-1.292-2.052-2.348-2.177-2.348-.328 0-6.172 9.158-5.974 9.36.091.092 4.119.427 8.95.743 4.832.317 8.826.617 8.875.668.05.05-.215 1.59-.588 3.421-.636 3.114-.68 3.865-.19 3.263.259-.317 2.91-7.828 2.91-8.242 0-.272-.424-.31-3.429-.31h-3.43l-1.077-1.288c-.592-.708-1.075-1.434-1.074-1.614.005-.43 5.712-7.86 6.037-7.86.138 0 2.296 2.465 4.796 5.479 4.023 4.849 4.609 5.478 5.101 5.478.318 0 .555-.104.554-.244-.003-.354-10.299-13.93-10.618-14-.17-.038-1.348 1.745-3.232 4.891m.907 3.203c-.844.586-1.563 1.153-1.598 1.26-.093.283.726 1.564 1 1.564.268 0 2.995-3.367 2.995-3.697 0-.48-.944-.136-2.397.873m-5.525 2.919c1.386 1.505 2.479 2.803 2.429 2.886-.123.202-10.041.192-10.041-.01 0-.367 4.61-5.74 4.867-5.672.123.033 1.359 1.29 2.745 2.796m-3.384-1.377c-.641.697-.407 1.086.657 1.086.477 0 .869-.04.869-.09 0-.31-.685-1.475-.866-1.475-.12 0-.417.216-.66.48m25.233 14.787c-2.473.765-2.205 4.507.358 4.998 1.327.254 2.977-1.153 2.975-2.536-.002-1.634-1.774-2.943-3.333-2.462m-89.417.577c-.627.32-1.366.826-1.643 1.125C3.157 26.613 0 34.185 0 34.778c0 .154.485.206 1.556.167l1.556-.057.697-1.763c.384-.97.768-1.872.853-2.005.116-.183 1.303-.243 4.747-.243 2.525 0 4.591.07 4.591.158 0 .086-.302.921-.671 1.855s-.671 1.791-.671 1.905c0 .133.59.186 1.662.15l1.661-.057 1.975-4.99c1.086-2.744 1.978-5.099 1.982-5.234.006-.19-1.472-.244-6.77-.244H6.39zm16.296.146c-1.522 3.717-3.71 9.363-3.71 9.575 0 .358 2.932.376 3.215.02.346-.437 4.068-9.975 3.961-10.151-.056-.094-.793-.171-1.636-.171h-1.532zm5.33-.385c-.435.84-3.862 9.645-3.862 9.926 0 .267.234.305 1.566.257l1.567-.057.785-1.957.785-1.956 3.47-.054c2.972-.045 3.508-.008 3.723.256.138.17.341 1.1.451 2.065l.2 1.757 1.913-.056 1.914-.055.159-.627c.142-.562-.016-1.64-.546-3.717-.104-.406-.04-.433 1.109-.489l1.22-.059.057-.912c.105-1.66-.916-3.356-2.508-4.165l-.981-.5h-5.422c-4.967 0-5.436.03-5.6.343m16.386-.195c-.238.24-.686 1.439-.686 1.833 0 .338.173.368 2.11.368 1.648 0 2.109.058 2.109.265 0 .146-.647 1.876-1.439 3.844-.79 1.968-1.438 3.697-1.438 3.843 0 .203.386.266 1.638.266h1.639l.532-1.223c.293-.673.993-2.412 1.557-3.864.563-1.453 1.105-2.75 1.204-2.88.118-.158.94-.258 2.415-.294l2.234-.055.439-.937c.241-.515.387-1.021.324-1.125-.135-.223-12.419-.264-12.638-.041m15.826.555c-.756.385-1.5.897-1.653 1.136-.367.57-3.352 8.1-3.352 8.454 0 .23 1.108.274 6.829.274h6.83l1.112-.605c.612-.333 1.282-.796 1.488-1.028.394-.444 3.494-8.097 3.494-8.626 0-.273-.738-.307-6.686-.307h-6.687zm16.666-.442c0 .15.69 1.315 1.534 2.59.844 1.273 1.535 2.42 1.535 2.546 0 .127-1.502 1.213-3.338 2.413-1.835 1.2-3.442 2.31-3.571 2.469-.204.25.024.288 1.736.288h1.971l2.345-1.468c1.29-.807 2.42-1.465 2.511-1.462s.638.664 1.212 1.468l1.044 1.462h2.828c1.555 0 2.87-.07 2.92-.154.052-.084-.722-1.293-1.72-2.685-.997-1.393-1.789-2.642-1.76-2.776.03-.133 1.559-1.192 3.398-2.352 1.838-1.16 3.377-2.22 3.42-2.355.058-.184-.386-.243-1.81-.24l-1.885.006-2.393 1.545c-1.598 1.032-2.483 1.494-2.664 1.39-.149-.085-.714-.76-1.255-1.5l-.984-1.347-2.537-.055c-2.064-.044-2.537-.004-2.537.217m21.02.796c.718.733.873 1.69.385 2.372-.227.317-.314.333-.576.111-.355-.3-.402-.822-.1-1.13.114-.116.179-.42.144-.675-.059-.422-.156-.462-1.12-.462h-1.054l-.057 1.34c-.044 1.016.001 1.32.186 1.257.134-.046.292-.29.35-.543.159-.684.514-.689.857-.012.167.33.398.6.514.6q.21 0-.028.293c-.388.477-1.365.345-2.11-.285-.584-.494-.671-.682-.671-1.442 0-1.917 1.961-2.768 3.28-1.424m-.787.898c0 .348-.632.512-.905.234a.37.37 0 0 1-.057-.421c.19-.315.962-.165.962.187m-59.634.872c.169.262.279.68.244.93l-.062.45-3.884.054c-4.338.059-4.307.07-3.502-1.276l.38-.636h3.259c3.243 0 3.26.002 3.565.478m-20.819-.08c0 .11-.125.507-.277.88l-.278.678h-4.613c-3.703 0-4.613-.05-4.613-.259 0-.335.73-1.032 1.343-1.282.657-.267 8.438-.283 8.438-.018m54.083.108c0 .533-1.521 4.053-1.956 4.524-.648.704-1.52.837-5.476.839-3.453 0-3.691-.022-3.691-.358 0-.463 1.474-4.165 1.78-4.472.75-.753 1.31-.841 5.364-.842 3.504-.001 3.979.035 3.979.309" clip-rule="evenodd"/></svg>