
<svg xmlns="http://www.w3.org/2000/svg" width="62" height="24" fill="none" viewBox="0 0 62 24"><path fill="#efefef" fill-rule="evenodd" d="M.065.261c-.06.156-.082 5.26-.051 11.34l.057 11.056 1.75-1.26 1.75-1.259V.105L1.872.041C.637-.006.144.054.065.26M7.75.176c-.075.123-.037.485.084.806.132.35.22 3.568.22 8.044 0 4.663.081 7.51.216 7.594.119.074.952-.414 1.851-1.083l1.636-1.218.063-2.152.062-2.152 2.297.014c1.263.008 2.663.138 3.11.29 1.814.616 2.5 2.602 1.369 3.957-.686.82-1.992 1.135-4.716 1.135h-1.964l-1.744 1.23c-.96.677-1.689 1.321-1.62 1.432.201.33 7.883.236 9.534-.117 3.305-.705 4.787-2.261 4.775-5.015-.008-2.043-1.228-3.835-2.893-4.254-.33-.083-.602-.228-.602-.321 0-.094.385-.558.854-1.03 2.084-2.099 1.562-5.09-1.153-6.604L18.007.105 12.947.03C9.7-.02 7.837.034 7.75.176m17.04.035c-.073.118-.03.409.097.646.146.276.229 3.16.229 8.03 0 4.684.081 7.65.212 7.732.117.072 1.001-.424 1.965-1.104l1.752-1.237.059-5.545.058-5.545 1.99-.062c1.881-.06 2.063-.024 3.382.663 1.05.547 1.543.97 1.999 1.715 1.498 2.444 1.244 6.216-.547 8.118-1.095 1.163-2.35 1.621-4.743 1.731l-2.081.096-1.691 1.137c-.93.626-1.693 1.272-1.695 1.436-.003.244.781.281 4.316.206 3.682-.08 4.502-.16 5.56-.551 3.874-1.432 5.82-4.54 5.599-8.942-.131-2.606-.716-4.16-2.17-5.761-1.31-1.443-3.18-2.43-5.216-2.751-1.837-.29-8.898-.3-9.075-.012m24.334.212c-3.459 1.113-5.613 3.682-6.047 7.211-.54 4.393 1.25 8.098 4.676 9.677 1.661.765 4.126 1.244 5.579 1.083 3.989-.444 6.88-2.43 8.133-5.59.715-1.803.713-5.54-.004-7.348-.934-2.356-3.026-4.192-5.75-5.046-1.757-.55-4.856-.545-6.587.013m5.864 2.832c1.006.521 2.065 1.6 2.64 2.686.325.617.406 1.254.406 3.193 0 2.274-.04 2.496-.647 3.6-1.087 1.975-3.107 3.045-5.36 2.84-2.19-.2-3.709-1.3-4.638-3.356-.716-1.588-.706-4.581.022-6.231 1.255-2.845 4.856-4.144 7.577-2.732m-37.628.364c.769.773.733 1.939-.084 2.762-.792.797-2.06 1.139-3.922 1.057l-1.472-.065-.064-1.854c-.035-1.02-.014-1.986.048-2.147.084-.22.717-.294 2.535-.294 2.28 0 2.454.032 2.96.54M2.308 22.24C1.27 22.97.36 23.664.288 23.783.2 23.925 10.83 24 31.017 24h30.864l-.064-1.487-.065-1.486-28.78-.056-28.778-.056z" clip-rule="evenodd"/></svg>