
<svg xmlns="http://www.w3.org/2000/svg" width="112" height="24" fill="none" viewBox="0 0 112 24"><path fill="#efefef" fill-rule="evenodd" d="M94.992.16c-.836.44-1.313 1.208-1.316 2.12-.005 1.118.594 1.938 1.638 2.244 1.535.45 2.94-.618 2.945-2.238.003-.951-.39-1.604-1.256-2.084-.45-.25-1.572-.273-2.011-.042M8.472 4.5c-2.171.365-3.814 1.077-5.4 2.338C.278 9.062-.775 12.92.602 15.895c1.448 3.13 5.28 4.904 9.754 4.518 2.828-.244 5.004-1.115 6.616-2.649.664-.631 1.283-1.505 1.157-1.631-.113-.113-3.908-1.614-4.08-1.614-.069 0-.392.267-.719.593-1.016 1.015-2.278 1.49-3.962 1.493-1.995.003-3.523-.806-4.221-2.236-.535-1.095-.396-2.684.335-3.816.958-1.484 2.663-2.327 4.695-2.32 1.832.006 3.35.673 3.958 1.738.117.204.255.386.307.404.093.034 4.147-.8 4.444-.915a.25.25 0 0 0 .152-.218c0-.371-.728-1.446-1.508-2.227-1.19-1.192-2.4-1.844-4.32-2.328-1.18-.298-3.526-.39-4.738-.186m12.62.598c-.095.154-2.352 14.656-2.302 14.788.072.187 4.247.203 4.392.017.051-.065.234-1.057.407-2.205s.355-2.141.405-2.206c.062-.083.413-.119 1.153-.119h1.063l1.308 1.969c.72 1.082 1.433 2.129 1.586 2.324l.28.356h2.455c1.455 0 2.456-.036 2.456-.088 0-.05-.682-1.09-1.516-2.314s-1.517-2.265-1.517-2.315.224-.14.498-.204c.963-.222 2.05-.836 2.78-1.568 1.004-1.01 1.46-2.125 1.46-3.568 0-2.315-1.336-3.996-3.742-4.706-.507-.15-1.142-.172-5.844-.203-2.9-.02-5.295 0-5.321.042m22.66.098c-.224.256-9.078 14.625-9.078 14.732 0 .06.853.094 2.31.094h2.31l.688-1.162c.38-.64.754-1.237.833-1.329.131-.152.438-.166 3.873-.166h3.73l.09.214c.05.117.225.662.39 1.21.164.547.342 1.05.393 1.114.07.09.642.119 2.263.119 2.002 0 2.167-.013 2.166-.166-.001-.091-1.059-3.454-2.35-7.472L49.023 5.08l-2.563-.025c-2.349-.023-2.574-.012-2.708.142m13.14-.063c-.087.141-2.398 14.73-2.347 14.818.022.039 1.02.07 2.217.07 2.17 0 2.177 0 2.255-.213.044-.117.22-1.13.391-2.253.172-1.122.353-2.093.404-2.158.072-.092 1.026-.119 4.198-.119 3.18 0 4.122-.027 4.18-.119.101-.16.6-3.219.54-3.315-.025-.042-1.9-.076-4.166-.076-3.21 0-4.13-.027-4.163-.119-.023-.065.053-.695.17-1.4l.21-1.28 4.309-.025c2.37-.014 4.339-.056 4.377-.095.1-.1.667-3.54.609-3.69-.04-.105-1.22-.128-6.585-.128-4.552 0-6.555.031-6.599.102m14.506.017c-.1.314-.604 3.623-.562 3.692.027.044 1.283.08 2.792.08h2.743l-.001.26c0 .144-.363 2.541-.806 5.328-.442 2.787-.804 5.167-.804 5.29v.222h2.23c1.697 0 2.24-.028 2.273-.119.024-.065.423-2.516.886-5.446s.871-5.375.907-5.432c.044-.071.946-.104 2.896-.104 1.557 0 2.853-.035 2.88-.079.093-.15.634-3.557.586-3.684-.07-.181-15.961-.19-16.02-.008m30.417.818q-.835.382-1.187 1.108c-.172.355-.201.556-.173 1.177.029.65.072.802.321 1.157.157.224.495.537.75.695.41.254.547.287 1.189.287s.779-.033 1.189-.287c1.572-.973 1.494-3.224-.14-4.054-.622-.315-1.371-.347-1.949-.083m-8.15 1.467a5 5 0 0 0-.606.247c-.427.23-1.07.9-1.321 1.378-.227.43-.252.579-.252 1.474s.025 1.045.25 1.473c.352.666 1.062 1.301 1.744 1.559.461.174.703.205 1.326.174 1.272-.065 2.168-.645 2.717-1.76.279-.568.312-.721.312-1.444 0-.672-.042-.897-.247-1.334-.34-.728-.734-1.145-1.432-1.517-.509-.272-.707-.322-1.354-.347-.45-.016-.912.023-1.137.097M30.372 8.587c.747.222 1.175.775 1.175 1.517 0 .789-.404 1.378-1.185 1.729-.329.148-.727.175-3.02.202-1.585.018-2.679-.005-2.732-.06-.078-.077.306-3.021.445-3.41.066-.185 4.685-.166 5.317.022m16.33 2.976c.369 1.218.67 2.274.67 2.348 0 .111-.359.134-2.126.134-1.17 0-2.15-.037-2.177-.081s.528-1.037 1.234-2.206c1.621-2.685 1.556-2.587 1.65-2.491.043.045.38 1.078.749 2.296m62.186.234c-.463.176-1.027.683-1.267 1.14-.275.52-.293 1.567-.036 2.057.392.746 1.044 1.201 1.863 1.299.652.077 1.244-.115 1.763-.573.573-.505.786-.985.789-1.774.002-.534-.041-.693-.306-1.136-.431-.72-.996-1.057-1.846-1.1-.375-.02-.774.016-.96.087m-7.701 2.01c-2.36.761-3.031 3.855-1.196 5.507.676.608 1.343.83 2.345.782.937-.047 1.427-.252 2.069-.867.642-.614.895-1.192.942-2.148.032-.66.003-.904-.164-1.348-.269-.715-.914-1.422-1.587-1.741-.666-.315-1.747-.398-2.409-.185m-9.107 2.744c-.999.289-1.961 1.13-2.425 2.122-.225.48-.254.656-.254 1.539 0 .923.022 1.043.302 1.636.374.79 1.032 1.465 1.784 1.831.482.234.706.28 1.498.31.777.03 1.019.002 1.469-.167 1.635-.616 2.556-2.051 2.463-3.835-.075-1.418-.835-2.567-2.115-3.198-.516-.254-.74-.306-1.442-.334-.519-.021-1 .015-1.28.096" clip-rule="evenodd"/></svg>