
<svg xmlns="http://www.w3.org/2000/svg" width="104" height="18" fill="none" viewBox="0 0 104 18"><path fill="#efefef" fill-rule="evenodd" d="M19.859.634c-.535.506-1.26 2.245-3.578 8.59-1.599 4.377-2.907 8.087-2.907 8.245 0 .206.517.288 1.817.288 1.999 0 2.103-.06 2.583-1.499.506-1.514.47-1.499 3.48-1.499h2.75l.336.865c.792 2.038.759 2.011 2.624 2.086.935.038 1.792-.023 1.904-.136.12-.12-1.042-3.61-2.786-8.369C22.897.513 22.625 0 21.205 0c-.42 0-.928.24-1.346.634m48.27-.213c-1.902.89-3.341 3.162-3.33 5.256.006.95.683 2.675 1.334 3.395.539.597 2.3 1.46 3.648 1.79 1.993.488 2.392.79 2.392 1.811 0 .706-.136 1.008-.634 1.403-.547.434-.827.486-2.041.375-.775-.071-1.968-.342-2.652-.602s-1.322-.473-1.417-.473c-.096 0-.173.835-.173 1.856v1.857l.864.39c.656.294 1.538.389 3.65.39 2.698.004 2.819-.018 3.912-.694 1.669-1.03 2.432-2.248 2.582-4.117.249-3.094-1.07-4.817-4.425-5.786-2.246-.649-2.894-1.067-2.894-1.87 0-.833.24-1.244.939-1.605.817-.423 2.128-.417 3.327.015 1.67.602 1.73.555 1.73-1.362 0-2.256-.084-2.316-3.321-2.4-2.121-.054-2.72.01-3.49.37M92.087.337c-.959.671-1.016 1.242-.952 9.464l.061 7.841h3.69l.063-4.324c.034-2.378.155-4.324.269-4.324.113 0 1.315 1.922 2.672 4.272 1.356 2.35 2.655 4.373 2.886 4.497.819.438 1.837.258 2.547-.452l.677-.677-.061-8.144-.06-8.144h-3.459l-.063 4.324c-.047 3.234-.134 4.323-.346 4.318-.155-.003-1.263-1.731-2.46-3.84C94.843.381 94.536 0 93.417 0c-.468 0-1.067.152-1.331.337M1.074.479C.11 1.069 0 1.941 0 8.994c0 9.079-.107 8.864 4.357 8.73 2.486-.076 2.8-.138 4.223-.839 1.57-.773 3.307-2.424 4.04-3.84a8.64 8.64 0 0 0 .508-6.634c-.882-2.618-2.242-4.125-4.827-5.35C6.94.418 6.56.347 4.151.287 2.473.243 1.343.315 1.074.479m24.982.085c0 .292 4.645 13.233 5.667 15.785.638 1.595 2.6 2.131 3.632.992.203-.225.878-1.805 1.502-3.513l2.89-7.918c.967-2.647 1.758-5.012 1.758-5.256 0-.405-.157-.437-1.902-.375l-1.902.067-1.773 5.048c-.976 2.777-1.879 5.153-2.007 5.282-.292.292-.326.213-2.22-5.234C30.867 3.044 30.083.89 29.957.657c-.192-.36-.514-.426-2.064-.426-1.447 0-1.837.07-1.837.333M43.69.51c-.063.164-.088 4.087-.055 8.716l.061 8.416h3.459V.346L45.48.278C44.268.23 43.773.293 43.69.51m6.957.286-.61.566v15.156l.677.648.677.65 2.752-.099c2.526-.09 2.876-.159 4.248-.834 1.804-.888 3.429-2.548 4.287-4.38.534-1.14.618-1.615.618-3.509 0-1.878-.086-2.374-.6-3.47C61.042 1.998 57.984.231 53.537.231c-2.1 0-2.328.044-2.89.565M78.97.792l-.57.57v15.156l.651.625.652.624 4.479-.062 4.478-.063v-3.69l-3.228-.115-3.228-.115v-2.998l2.882-.116 2.882-.115v-3.46l-2.882-.115-2.882-.115V4.266l3.228-.115 3.228-.115V.346L84.1.283 79.54.221zM6.756 4.522c.406.205 1.084.698 1.506 1.096 2.156 2.034 1.85 5.663-.625 7.406-.802.565-1.208.688-2.288.692l-1.314.006-.062-4.49c-.035-2.47-.012-4.624.05-4.786.16-.418 1.845-.37 2.733.077m50.633.391c2.883 1.908 2.92 6.102.072 8.101-.819.575-1.222.698-2.306.702l-1.313.006-.063-4.49c-.035-2.47-.007-4.636.061-4.814.208-.543 2.455-.23 3.55.495M21.991 8.857c.334.94.607 1.822.607 1.96 0 .155-.545.252-1.413.252h-1.412l.128-.64c.205-1.025 1.099-3.28 1.3-3.28.1 0 .457.769.79 1.708" clip-rule="evenodd"/></svg>