<svg width="536" height="100" viewBox="0 0 536 100" fill="none" xmlns="http://www.w3.org/2000/svg">
<path d="M92.8502 84.22C92.9602 79.63 92.9002 75.64 92.7402 71.05L94.0502 70.89C97.2202 81.22 103.02 85.81 107.77 85.81C110.89 85.81 113.46 83.95 113.46 80.62C113.46 72.53 93.1302 71.76 93.1302 58.59C93.1302 52.14 98.2102 47.66 107.12 47.66C111.27 47.66 115.92 48.81 118.05 50.12C117.94 53.67 117.78 57.23 117.89 60.78L116.58 60.94C112.92 51.98 109.04 49.19 105.54 49.19C102.21 49.19 100.24 51.38 100.24 54.16C100.24 63.62 120.74 64.11 120.74 76.13C120.74 82.36 115.98 87.23 106.25 87.23C101.05 87.23 94.9302 85.53 92.8502 84.22Z" fill="currentColor"/>
<path d="M122.111 96.3C124.521 95.92 126.211 94.77 126.211 90.56V68.91C126.211 66.67 124.901 65.47 122.111 65.25V64.1C125.771 62.73 129.491 60.66 133.151 57.76L134.131 58.36V62.24C136.431 59.56 139.381 58.14 142.271 58.14C148.231 58.14 153.641 63.06 153.641 71.81C153.641 82.25 148.341 87.23 140.251 87.23C138.011 87.23 135.931 86.74 134.351 85.7V89.47C134.351 94.39 135.771 95.92 139.541 96.3V97.61C132.601 97.45 127.951 97.45 122.101 97.61V96.3H122.111ZM145.181 74.98C145.181 65.03 142.671 61.81 138.461 61.81C137.091 61.81 135.621 62.41 134.311 63.72L134.361 83.89C135.511 84.87 137.641 85.58 139.551 85.58C142.831 85.59 145.181 83.35 145.181 74.98Z" fill="currentColor"/>
<path d="M157.48 80.39C157.48 75.31 160.1 72.46 174.32 67.93C174.1 61.21 172.41 59.57 169.67 59.57C167.1 59.57 165.63 60.83 165.63 62.58C165.63 63.89 166.5 64.55 166.5 66.41C166.5 68.43 164.91 70.24 162.51 70.24C160.54 70.24 158.85 68.65 158.85 66.25C158.85 61.93 164.64 58.16 171.59 58.16C178.59 58.16 182.41 60.89 182.41 67.29V79.1C182.41 81.94 183.67 83.42 184.98 83.42C185.47 83.42 185.85 83.26 186.4 82.87L187.17 83.64C186.08 85.61 183.45 86.98 180.72 86.98C178.26 86.98 175.85 85.34 174.82 82.77C171.92 85.89 168.86 87.25 165.09 87.25C160.59 87.23 157.48 83.84 157.48 80.39ZM174.42 81.43C174.31 80.94 174.26 80.45 174.26 79.9L174.31 69.51V69.24C167.48 71.43 165.62 74.49 165.62 77.93C165.62 80.94 167.1 83.01 169.99 83.01C171.36 83.02 172.89 82.69 174.42 81.43Z" fill="currentColor"/>
<path d="M189.07 85.37C191.48 84.99 193.17 83.84 193.17 79.63V68.91C193.17 66.78 191.64 65.25 189.07 65.25V64.1C192.73 62.73 196.45 60.66 200.11 57.76L201.09 58.36V63.5C203.71 60.22 206.88 58.14 209.34 58.14C211.91 58.14 213.88 59.94 213.88 62.46C213.88 64.92 212.35 66.4 209.94 66.4C206.82 66.4 205.79 63.34 204.26 63.34C203.44 63.34 202.24 64.05 201.31 64.93V78.54C201.31 83.46 202.73 84.99 205.96 85.37V86.68C199.56 86.52 194.92 86.52 189.07 86.68V85.37Z" fill="currentColor"/>
<path d="M214.57 72.63C214.57 64.16 220.26 58.14 227.69 58.14C234.91 58.14 239.72 62.73 239.33 70.6C233.48 70.87 228.18 71.2 222.93 71.47C223.48 78.79 226.87 82.29 232.55 82.29C235.39 82.29 237.69 81.2 239.22 79.5L239.88 79.99C238.35 84.25 233.65 87.2 228.35 87.2C220.48 87.23 214.57 80.83 214.57 72.63ZM232.01 69.57C231.79 62.36 229.88 59.57 227.36 59.57C224.52 59.57 222.93 62.47 222.88 69.25V70.12C226.27 69.95 229.12 69.73 232.01 69.57Z" fill="currentColor"/>
<path d="M241.391 85.37C243.801 84.99 245.491 83.84 245.491 79.63V57.98C245.491 55.74 244.181 54.54 241.391 54.32V53.17C245.051 51.8 248.991 49.73 252.651 46.83L253.631 47.43V72.63L259.371 67.49C265.001 62.46 265.161 61.1 259.421 60.66V59.35C267.181 59.51 266.141 59.51 272.271 59.35V60.66C269.431 60.99 267.731 61.92 264.891 64.43L260.131 68.64C266.851 69.41 267.511 85.37 274.621 85.37V86.68H261.121C258.551 76.57 256.201 74.38 253.691 74.27L253.641 74.32V78.53C253.641 83.45 255.061 84.98 257.741 85.36V86.67C251.891 86.51 247.241 86.51 241.401 86.67V85.37H241.391Z" fill="currentColor"/>
<path d="M275.86 80.39C275.86 75.31 278.48 72.46 292.7 67.93C292.48 61.21 290.79 59.57 288.05 59.57C285.48 59.57 284.01 60.83 284.01 62.58C284.01 63.89 284.88 64.55 284.88 66.41C284.88 68.43 283.3 70.24 280.89 70.24C278.92 70.24 277.23 68.65 277.23 66.25C277.23 61.93 283.02 58.16 289.97 58.16C296.97 58.16 300.79 60.89 300.79 67.29V79.1C300.79 81.94 302.05 83.42 303.36 83.42C303.85 83.42 304.23 83.26 304.78 82.87L305.55 83.64C304.46 85.61 301.83 86.98 299.1 86.98C296.64 86.98 294.23 85.34 293.2 82.77C290.3 85.89 287.24 87.25 283.47 87.25C278.98 87.23 275.86 83.84 275.86 80.39ZM292.81 81.43C292.7 80.94 292.65 80.45 292.65 79.9L292.7 69.51V69.24C285.87 71.43 284.01 74.49 284.01 77.93C284.01 80.94 285.49 83.01 288.38 83.01C289.75 83.02 291.28 82.69 292.81 81.43Z" fill="currentColor"/>
<path d="M309.04 84.88C309.04 81.76 308.93 78.59 308.82 75.48L309.97 75.37C312.92 82.31 317.3 85.92 321.07 85.92C323.47 85.92 325.06 84.33 325.06 82.2C325.06 76.24 308.82 76.3 308.82 66.51C308.82 61.15 313.08 58.15 319.7 58.15C322.76 58.15 327.02 58.92 328.88 59.9C328.83 62.47 328.77 65.09 328.83 67.66L327.68 67.77C324.62 61.81 322.16 59.46 318.82 59.46C316.58 59.46 315.21 60.88 315.21 63.01C315.21 68.8 331.39 69.41 331.39 78.32C331.39 83.79 327.67 87.23 319.58 87.23C316.2 87.23 310.84 86.19 309.04 84.88Z" fill="currentColor"/>
<path d="M336.941 84.88C336.941 81.76 336.831 78.59 336.721 75.48L337.871 75.37C340.821 82.31 345.201 85.92 348.971 85.92C351.371 85.92 352.961 84.33 352.961 82.2C352.961 76.24 336.721 76.3 336.721 66.51C336.721 61.15 340.981 58.15 347.601 58.15C350.661 58.15 354.921 58.92 356.781 59.9C356.731 62.47 356.671 65.09 356.731 67.66L355.581 67.77C352.521 61.81 350.061 59.46 346.721 59.46C344.481 59.46 343.111 60.88 343.111 63.01C343.111 68.8 359.291 69.41 359.291 78.32C359.291 83.79 355.571 87.23 347.481 87.23C344.101 87.23 338.741 86.19 336.941 84.88Z" fill="currentColor"/>
<path d="M362.3 72.63C362.3 64.16 367.99 58.14 375.42 58.14C382.64 58.14 387.45 62.73 387.06 70.6C381.21 70.87 375.91 71.2 370.66 71.47C371.21 78.79 374.6 82.29 380.28 82.29C383.12 82.29 385.42 81.2 386.95 79.5L387.61 79.99C386.08 84.25 381.38 87.2 376.08 87.2C368.2 87.23 362.3 80.83 362.3 72.63ZM379.74 69.57C379.52 62.36 377.61 59.57 375.09 59.57C372.25 59.57 370.66 62.47 370.61 69.25V70.12C374 69.95 376.84 69.73 379.74 69.57Z" fill="currentColor"/>
<path d="M390.071 85.37C392.481 84.99 394.171 83.84 394.171 79.63V68.91C394.171 66.67 392.861 65.47 390.071 65.25V64.1C393.731 62.73 397.451 60.66 401.111 57.76L402.091 58.36V63.23C404.991 60.06 409.311 58.15 412.971 58.15C417.561 58.15 420.901 61.48 420.901 66.29V78.54C420.901 83.46 422.321 84.99 425.001 85.37V86.68C419.151 86.52 414.501 86.52 409.201 86.68V85.37C411.061 84.99 412.751 83.84 412.751 79.63V67.93C412.751 63.72 411.331 61.81 408.871 61.81C406.521 61.81 404.061 62.9 402.311 64.82V78.54C402.311 83.46 403.731 84.99 405.861 85.37V86.68C400.561 86.52 395.911 86.52 390.061 86.68V85.37H390.071Z" fill="currentColor"/>
<path d="M440.73 85.37C444.23 84.99 445.92 83.84 445.92 79.63V50C444.39 49.89 443.62 49.84 441.27 49.84C438.92 49.84 436.35 51.53 433.73 59.24L432.42 59.08C432.86 55.42 433.13 51.76 433.35 48.09C438.49 48.09 443.13 48.42 449.97 48.42C456.91 48.42 461.67 48.09 466.92 48.09C467.14 51.75 467.41 55.42 467.85 59.08L466.54 59.24C463.92 51.53 461.35 49.84 459 49.84C456.65 49.84 455.88 49.89 454.35 50V78.53C454.35 83.18 455.88 85.14 459.54 85.36V86.67C455.55 86.56 452.49 86.56 450.03 86.56C447.13 86.56 444.29 86.56 440.74 86.67V85.37H440.73Z" fill="currentColor"/>
<path d="M469.35 85.37C471.76 84.99 473.45 83.84 473.45 79.63V57.98C473.45 55.74 472.14 54.54 469.35 54.32V53.17C473.01 51.8 476.73 49.73 480.39 46.83L481.37 47.43V63.23C484.27 60.06 488.59 58.15 492.25 58.15C495.69 58.15 500.18 59.79 500.18 66.29V78.54C500.18 83.46 501.6 84.99 504.28 85.37V86.68C498.43 86.52 493.78 86.52 488.48 86.68V85.37C490.34 84.99 492.03 83.84 492.03 79.63V67.93C492.03 63.72 490.61 61.81 488.15 61.81C485.8 61.81 483.34 62.9 481.59 64.82V78.54C481.59 83.46 483.01 84.99 485.14 85.37V86.68C479.84 86.52 475.19 86.52 469.34 86.68V85.37H469.35Z" fill="currentColor"/>
<path d="M504.011 93.79C504.011 91.33 505.541 89.85 507.951 89.85C511.071 89.85 512.101 92.91 513.641 92.91C515.171 92.91 516.211 92.2 518.561 86.68L509.321 67.49C506.911 62.52 505.991 61.04 503.471 60.66V59.35C509.321 59.51 514.131 59.51 519.981 59.35V60.66C516.971 61.15 515.991 62.52 517.631 66.4L522.441 77.66L526.811 67.49C528.561 63.39 527.631 61.2 524.571 60.66V59.35C529.871 59.51 528.721 59.51 534.571 59.35V60.66C531.731 61.1 530.421 62.3 528.611 66.4L519.751 86.68C515.871 95.59 512.261 98.1 508.541 98.1C505.981 98.1 504.011 96.3 504.011 93.79Z" fill="currentColor"/>
<path d="M65.3597 30.57C68.7397 30.71 72.0097 33.4 73.3197 36.59C74.5897 39.39 74.1197 47.47 74.1197 47.47H18.0297V51.68H74.1197V78.42C73.8797 81.81 71.5397 84.72 68.5197 86.15C67.0197 86.88 65.4297 87.2 63.6497 87.2H10.0997C7.34968 87.2 4.07968 84.91 2.55968 82.04C0.519684 78.89 1.34968 70.58 1.34968 70.58H57.7297V66.35H1.34968V39.45C1.69968 36.2 3.98968 33.05 6.94968 31.55C8.09968 30.98 9.33968 30.76 10.6397 30.56H65.3597V30.57Z" fill="currentColor"/>
<path d="M26.0498 12.69C26.0498 6.28999 31.2298 1.10999 37.6298 1.10999C44.0198 1.10999 49.2098 6.28999 49.2098 12.69C49.2098 19.08 44.0198 24.27 37.6298 24.27C31.2298 24.27 26.0498 19.08 26.0498 12.69Z" fill="currentColor"/>
</svg>
