
<svg xmlns="http://www.w3.org/2000/svg" width="167" height="38" fill="none" viewBox="0 0 167 38"><g fill="#fef4e1"><path fill-rule="evenodd" d="M56.423 11.848c-.356.071-.692.175-.748.23-.082.082-.103 1.354-.108 6.342-.003 3.432.025 6.302.063 6.38.06.124.171.137.99.118l.921-.022.02-3.283.021-3.283.255-.215a4 4 0 0 1 .728-.44c.971-.46 1.738-.216 2.143.683.126.28.146.653.181 3.426l.04 3.112h1.969l.023-2.994c.016-1.988-.006-3.152-.065-3.466-.187-.99-.62-1.641-1.32-1.985-.856-.42-2.27-.248-3.349.408-.251.152-.49.277-.531.277-.046 0-.075-1.054-.075-2.718v-2.717l-.256.01c-.141.005-.547.067-.903.137m38.34-.002c-.369.075-.714.163-.768.197-.075.046-.099.596-.099 2.31v2.25l-.177-.057c-2.039-.657-3.476-.39-4.6.855-1.576 1.743-1.582 5.204-.011 6.773.728.728 1.652 1.045 2.848.977 1.3-.073 1.616-.224 1.743-.834l.055-.263-.54.062c-1.098.125-1.65.005-2.14-.465-.644-.617-.962-1.618-.965-3.029-.003-1.841.653-3.21 1.675-3.492.417-.115 1.29-.01 1.758.212l.315.15.04 3.702.039 3.702h1.969V11.74l-.236-.014c-.13-.009-.538.046-.906.12m37.284.002c-.355.071-.683.166-.729.212-.057.057-.077 2.07-.063 6.46l.02 6.376h1.891l.021-2.186c.011-1.222.052-2.187.091-2.187s.799 1.026 1.69 2.278 1.646 2.295 1.68 2.315.47-.04.969-.135c.791-.151.905-.192.901-.327-.002-.085-.755-1.17-1.674-2.41s-1.669-2.31-1.669-2.375c0-.066.766-.864 1.702-1.774s1.682-1.687 1.658-1.727-.33-.064-.678-.056l-.633.016-1.793 1.735c-.986.953-1.859 1.808-1.941 1.898s-.179.146-.217.123c-.037-.023-.068-1.92-.068-4.213v-4.17l-.256.01a8 8 0 0 0-.902.137m-67.121.561c-.373.227-.57.596-.57 1.064 0 .675.45 1.141 1.102 1.142 1.233 0 1.642-1.638.553-2.217a1.09 1.09 0 0 0-1.085.011m62.37.02c-.787.536-.824 1.5-.078 2.01.983.67 2.293-.583 1.633-1.563-.407-.604-1.052-.79-1.555-.447m19.221-.03c-.792.42-.825 1.583-.059 2.064.404.254 1.006.18 1.364-.167.483-.468.536-1.103.131-1.584-.38-.451-.945-.575-1.436-.314m-99.945.74c-.164.205-.34.618-.294.69.028.046.686.077 1.615.077 1.416 0 1.575.014 1.635.138.037.076.063 2.496.057 5.377s.02 5.301.058 5.378c.06.125.173.138 1.03.119l.96-.022.04-5.475.039-5.475 1.634-.021c1.825-.024 1.767-.002 1.476-.573l-.16-.312h-4.006c-3.11 0-4.023.022-4.084.098m51.772-.002c-.02.055-.029 2.723-.017 5.93l.02 5.829h1.969l.04-2.836.039-2.836 1.595-.022 1.594-.02.158-.311c.292-.572.361-.548-1.594-.571l-1.753-.022v-4.332l2.344-.021c1.797-.016 2.343-.044 2.342-.118-.001-.054-.082-.24-.18-.413l-.178-.315-3.171-.02c-2.494-.016-3.178 0-3.208.079M76.31 14.138c-.38.075-.713.16-.743.19-.03.028-.045.458-.035.953.02 1.007-.002 1.048-.542 1.028-.438-.017-.564.082-.536.419l.024.29.512.04.512.039.005 3.15c.005 3.513.033 3.764.472 4.278.497.58 1.187.72 2.642.53 1.114-.144 1.225-.208 1.3-.755l.049-.356-.869.003c-.76.003-.896-.017-1.091-.161-.459-.339-.46-.346-.46-3.656v-3.033l.985-.04.985-.039.025-.266c.014-.146-.013-.304-.06-.35-.048-.05-.463-.092-.97-.1a31 31 0 0 1-.945-.023c-.033-.005-.06-.523-.06-1.152v-1.142l-.255.01a9 9 0 0 0-.945.143M65.419 16.28c-.433.086-.824.202-.867.259-.051.066-.076 1.557-.069 4.19.006 2.25.015 4.116.02 4.15s.444.052.975.04l.965-.022v-4.371c0-3.827-.015-4.373-.118-4.386-.065-.008-.473.055-.906.14m42.721-.071c-1.719.195-3.091 1.476-3.567 3.328-.272 1.056-.086 2.692.409 3.61 1.005 1.862 3.663 2.574 5.763 1.543 1.695-.832 2.61-3.224 2.059-5.38-.201-.786-.484-1.302-1.043-1.901-.894-.96-2.132-1.37-3.621-1.2m6.75.093-.867.17v8.425l.965.022c.531.012.97-.006.975-.04s.015-1.404.021-3.045l.012-2.984.392-.357c.439-.398 1.067-.724 1.399-.725.121 0 .346.052.501.117s.309.1.342.08c.081-.05.474-1.317.474-1.526 0-.124-.078-.183-.334-.252-.734-.198-1.449.067-2.185.81-.521.526-.529.523-.576-.221-.03-.472-.091-.672-.198-.653zm12.801-.004-.827.17v8.429h1.969v-4.373c0-4.315-.002-4.372-.157-4.384-.087-.006-.53.064-.985.158m13.116.004-.867.17v8.425l.965.022c.531.012.97-.006.975-.04s.015-1.398.021-3.033l.012-2.971.313-.321c.361-.37 1.141-.787 1.471-.787.125 0 .356.054.514.12s.313.093.344.06c.082-.088.466-1.34.466-1.52 0-.11-.089-.174-.334-.24-.73-.197-1.477.078-2.195.808-.249.253-.475.425-.502.381-.026-.043-.059-.304-.072-.58-.024-.491-.08-.693-.19-.673zm6.105-.003-.827.169v8.429l.965.022c.62.014.968-.007.975-.06.049-.406.024-8.503-.027-8.608-.08-.163-.039-.165-1.086.048m4.467 0c-.468.093-.876.21-.906.26-.044.071-.068 8.054-.026 8.32.006.034.444.052.975.04l.965-.022.039-3.306.04-3.305.375-.284c.673-.508 1.525-.691 2.022-.434.327.169.603.533.761 1.004.123.366.14.764.147 3.31.006 1.91.036 2.922.091 2.976.051.052.427.075.982.061l.9-.022v-3.23c0-3.583-.016-3.716-.524-4.483-.797-1.203-2.603-1.299-4.304-.229-.466.294-.474.289-.507-.363-.012-.235-.057-.435-.101-.444-.043-.009-.461.06-.929.152m-81.476.041c-1.218.349-1.927 1.238-1.922 2.407.004.939.505 1.473 2.151 2.291.643.32 1.293.676 1.445.791.85.65.761 1.59-.195 2.059-.386.189-.564.223-1.276.247-.764.026-1.489-.073-2.002-.27-.139-.054-.146-.03-.098.323.029.21.107.442.173.515.375.414 2.825.576 3.857.254 1.34-.418 2.02-1.28 2.003-2.536-.016-1.175-.684-1.858-2.7-2.764-1.137-.51-1.47-.79-1.47-1.237 0-.431.268-.806.744-1.042.492-.244 1.411-.265 2.154-.048.272.08.515.124.54.1.067-.069-.048-.653-.158-.805-.274-.374-2.309-.553-3.246-.285m13.131-.024c-1.422.383-2.46 1.524-2.897 3.185-.183.696-.18 2.145.005 2.83.375 1.381 1.206 2.255 2.529 2.656.358.108.71.14 1.457.134.945-.009 2.309-.187 2.593-.339.141-.075.35-.793.257-.881-.03-.028-.337.001-.684.064-.943.172-2.09.108-2.648-.147-.992-.454-1.434-1.273-1.514-2.801-.018-.343.005-.619.057-.69.074-.099.494-.12 2.727-.137l2.639-.02-.023-.551c-.072-1.735-.908-2.959-2.259-3.306-.582-.15-1.675-.148-2.239.003m38.276-.015c-1.229.362-1.908 1.087-2.019 2.155-.072.699.066 1.073.589 1.596.366.366.668.556 1.669 1.05 1.503.74 1.82 1.018 1.866 1.645.042.572-.154.873-.748 1.148-.615.285-1.895.338-2.759.114-.316-.082-.593-.119-.617-.081-.076.123.058.676.193.796.431.381 2.805.546 3.756.261 1.485-.445 2.158-1.321 2.07-2.693-.044-.686-.27-1.124-.829-1.604-.354-.304-.689-.486-2.328-1.261-.813-.385-1.032-.643-.971-1.14.051-.418.258-.679.723-.912.334-.167.49-.194 1.099-.186.436.006.841.058 1.053.136.551.203.588.185.524-.247-.031-.206-.091-.417-.134-.469-.263-.32-2.387-.529-3.137-.308m40.412.04c-1.047.338-1.793.897-2.183 1.637-.3.569-.364.855-.352 1.581.014.84.213 1.238.971 1.942.34.316.619.603.619.638 0 .034-.162.235-.359.446-.446.477-.742 1.097-.743 1.553-.001.293.042.388.296.642.394.393.841.518 2.411.672.698.069 1.424.159 1.611.2.454.1.92.344 1.072.56.144.207.162.759.033 1.041-.124.273-.568.559-1.131.73-.644.194-2.666.195-3.451 0-.832-.205-.867-.197-.801.203.089.535.146.588.766.726 1.281.283 2.935.303 3.932.048.877-.224 1.312-.457 1.851-.992.551-.547.736-.997.736-1.788 0-.548-.153-.952-.497-1.31-.493-.515-1.191-.743-2.694-.88a75 75 0 0 1-1.529-.156c-.973-.114-1.201-.445-.763-1.106l.196-.296.654.038c1.624.096 3.16-.664 3.743-1.852.194-.395.22-.537.22-1.196 0-.856-.133-1.298-.557-1.854-.145-.19-.239-.36-.208-.379.031-.017.251-.005.49.029.33.046.453.035.519-.048.1-.126.089-.719-.015-.814-.039-.036-1.046-.085-2.238-.11-1.935-.04-2.212-.03-2.599.095m-77.036.818c.147.099.345.32.441.49.187.334.376 1.213.33 1.536l-.03.197h-3.229l-.026-.187c-.04-.276.29-1.23.548-1.586.303-.42.71-.622 1.258-.626.333-.002.507.04.708.176m24.693-.031c.861.39 1.384 1.732 1.386 3.552.001 1.89-.571 3.284-1.492 3.635-.307.117-.975.1-1.285-.034-.893-.383-1.425-1.75-1.428-3.678-.003-1.824.521-3.101 1.437-3.498.375-.162.997-.152 1.382.023m54.257.11c.154.117.372.403.486.635.645 1.32.297 3.216-.683 3.723-.302.157-1.006.156-1.309 0-.637-.33-1-1.17-.988-2.293.011-1.052.359-1.842.954-2.165.435-.236 1.162-.189 1.54.1M56.377 30.461c-.202.113-.174.513.043.629.098.052.195.085.217.074l.177-.095c.15-.08.192-.498.06-.58-.148-.091-.363-.103-.497-.028m7.074-.032c-.426.072-.52.117-.649.313-.076.117-.157.426-.178.688l-.04.477-.315.039c-.289.036-.315.06-.315.276s.026.24.315.275l.315.04.04 1.457.04 1.458h.629l.04-1.458.04-1.457.472-.04c.464-.038.472-.043.472-.275s-.008-.237-.472-.276l-.473-.04-.023-.314c-.031-.424.104-.581.535-.623l.414-.04c.095-.011.067-.386-.033-.448-.103-.064-.57-.093-.814-.052m7.567.046c-.11.082-.123.374-.104 2.535l.02 2.442.29.024c.218.018.308-.012.36-.118.073-.148.09-4.787.018-4.859-.094-.093-.467-.109-.584-.024m1.813 0c-.112.082-.124.368-.106 2.535l.021 2.442h.631l.02-2.437c.012-1.34-.008-2.467-.045-2.503-.114-.114-.39-.134-.521-.037m22.918-.046c-.426.072-.52.117-.649.313-.076.117-.157.426-.178.688l-.04.477-.315.039c-.289.036-.315.06-.315.276s.026.24.315.275l.315.04.04 1.457.04 1.458h.629l.04-1.458.04-1.457.472-.04c.464-.038.472-.043.472-.275s-.008-.237-.472-.276l-.473-.04-.023-.314c-.031-.424.104-.581.535-.623l.414-.04c.095-.011.067-.386-.033-.448-.103-.064-.57-.093-.814-.052m13.322.046c-.089.067-.129.265-.145.723l-.022.63-.569.013c-.761.017-1.051.126-1.428.535-.387.42-.514.849-.464 1.566.05.7.313 1.102.926 1.417.413.213.472.222 1.302.193.477-.017.912-.057.965-.09.111-.069.142-4.896.031-4.965-.153-.094-.484-.107-.596-.022m1.818-.014c-.179.1-.176.512.004.606.117.06.478.053.542-.01.057-.057.086-.437.04-.512-.075-.122-.428-.173-.586-.084m-60.99.401c-.022.056-.03 1.111-.019 2.345l.021 2.245h.631l.04-.946.038-.945.867-.04.867-.039v-.551l-.867-.04-.866-.04v-1.417l1.102-.04 1.103-.039v-.551l-1.44-.022c-1.115-.016-1.447.002-1.478.08m40.414.999c-1.204.05-1.47.136-1.803.583-.259.347-.23 1.046.059 1.424l.22.287-.203.24c-.21.251-.263.6-.126.855.138.258.656.398 1.466.398.813 0 1.057.075 1.057.323 0 .114-.106.206-.371.323-.33.146-.467.159-1.214.116-.896-.051-.977-.022-.853.31.077.208.357.268 1.252.268 1.237 0 1.873-.34 1.952-1.042.032-.29.005-.383-.168-.59-.238-.282-.427-.328-1.577-.38-.834-.036-.986-.11-.8-.39.083-.127.224-.169.7-.208.978-.08 1.434-.462 1.433-1.197a3.4 3.4 0 0 0-.04-.565c-.032-.13.01-.164.237-.197.255-.037.276-.06.276-.315 0-.325.095-.31-1.497-.244m24.106 0c-1.233.051-1.502.144-1.832.633-.285.422-.216 1.082.153 1.477l.163.173-.211.251c-.287.341-.263.81.054 1.045.183.137.374.17 1.182.205.53.024 1.008.072 1.062.107.221.143.104.376-.273.542-.329.146-.467.159-1.215.116-.883-.05-.953-.027-.872.288.056.215.344.29 1.12.29 1.354 0 2.014-.31 2.095-.985.085-.713-.307-.961-1.609-1.02-.931-.042-1.038-.066-1.038-.233 0-.214.281-.343.827-.38.638-.043.979-.193 1.227-.542.187-.263.242-.797.123-1.187-.062-.202-.051-.213.238-.237.288-.024.302-.038.302-.3 0-.325.096-.31-1.496-.244m-59.279.063a6 6 0 0 0-.531.113c-.253.065-.362.064-.448-.008-.062-.051-.231-.082-.375-.069l-.26.025v3.466l.334.025c.194.014.339-.011.345-.06.005-.045.018-.614.03-1.264.01-.65.023-1.216.029-1.258.018-.139.358-.266.837-.312.462-.044.473-.05.497-.296q.039-.426-.458-.362m10.083.014c-.153.042-.197.106-.197.287v.233h.853c.97 0 1.105.075 1.061.59l-.023.277-.63.046c-.693.052-1.039.191-1.3.523-.144.181-.167.294-.14.668.035.503.183.728.59.9.34.144 1.393.137 1.898-.013.369-.11.43-.11.65.005.168.087.45.125.908.123.779-.002.998-.088.963-.377-.024-.2-.03-.201-.79-.211-.748-.01-.774-.016-1.012-.255-.168-.167-.249-.329-.258-.512l-.013-.267 1.143-.04 1.142-.039-.003-.473c-.004-.57-.189-.991-.561-1.275-.39-.297-1.224-.351-1.688-.109l-.331.173-.377-.163c-.288-.123-.533-.16-1.033-.154-.36.004-.743.033-.852.063m10.091.031c-1.24.396-1.376 2.6-.207 3.324.353.219.45.24 1.23.264.777.024.86.012 1.013-.14.12-.12.147-.203.095-.296-.059-.105-.222-.13-.914-.135l-.843-.007-.274-.3c-.177-.192-.266-.361-.25-.473.024-.168.06-.174 1.285-.212l1.26-.04.024-.29c.056-.668-.297-1.34-.849-1.62-.388-.195-1.087-.23-1.57-.075m3.77-.03c-.549.175-.784.479-.784 1.01 0 .54.39.858 1.275 1.04.837.173 1.096.606.537.897q-.39.203-1.615.035c-.131-.017-.158.025-.158.251 0 .338.117.38 1.103.388 1.151.01 1.694-.343 1.694-1.103 0-.587-.254-.823-1.141-1.06-.776-.207-1.08-.416-.938-.645.174-.277.431-.344 1.144-.296.63.042.682.035.72-.11.088-.337-.112-.438-.901-.456-.404-.009-.826.013-.937.048m5.769.133c-1.223.609-1.17 2.71.084 3.35.261.134.431.158.93.136.536-.025.653-.058.953-.276.884-.638 1.034-2.196.282-2.924-.556-.538-1.502-.658-2.25-.286m13.337-.058c-.397.18-.793.626-.9 1.013-.286 1.03.15 2.112.976 2.427.527.202 1.342.136 1.761-.14.641-.425.957-1.404.728-2.253-.121-.445-.615-.982-1.015-1.102-.457-.137-1.184-.11-1.55.055m4.993-.062a2.2 2.2 0 0 0-.538.15c-.142.076-.2.069-.318-.037a.5.5 0 0 0-.368-.105l-.223.025v3.466l.335.025c.194.014.339-.011.344-.06.006-.045.019-.614.03-1.264s.024-1.216.029-1.258c.018-.139.359-.266.837-.312.463-.044.473-.05.497-.296.031-.32-.137-.41-.625-.334m-46.903.09c-.022.058-.03.849-.019 1.757l.021 1.653h.631v-3.467l-.296-.024c-.194-.016-.31.012-.337.08m54.511.005c-.021.055-.029.844-.017 1.752l.021 1.653.266.025c.146.014.305-.014.354-.062.105-.106.135-3.121.033-3.331-.08-.164-.597-.193-.657-.038m-41.702.602c.169.169.23.306.23.512v.282h-.75c-.845 0-.902-.04-.747-.509.184-.56.844-.708 1.267-.285m7.522-.05c.157.136.214.261.221.493l.01.311-.808.023c-.67.018-.817.001-.856-.099-.072-.189.038-.51.246-.718.265-.265.884-.27 1.187-.01m9.763-.01c.281.222.434.598.433 1.068 0 .895-.35 1.361-1.019 1.361-.666 0-1.028-.457-1.028-1.3 0-.84.362-1.3 1.024-1.3.263 0 .436.05.59.171m4.022.023c.286.287.274.834-.024 1.07-.175.138-.29.163-.605.133-.477-.045-.675-.25-.675-.7 0-.446.269-.696.749-.696.279 0 .406.044.555.193m9.212-.023c.291.23.434.6.434 1.13 0 .842-.362 1.3-1.029 1.3-.668 0-1.018-.468-1.019-1.362 0-.777.381-1.238 1.024-1.238.263 0 .436.05.59.17m9.296 1.13v1.26l-.394.021c-.795.044-1.299-.444-1.299-1.256 0-.935.382-1.345 1.221-1.307l.472.021zm5.597-1.107c.243.243.264.726.043 1-.126.155-.223.185-.598.185-.554 0-.748-.185-.748-.712 0-.273.04-.372.207-.503.303-.238.842-.224 1.096.03m-47.562 1.402c.045.054.106.266.137.471.053.354.045.377-.155.453-.317.12-.93.097-1.129-.042-.13-.091-.175-.202-.175-.429 0-.168.041-.331.092-.363.288-.178 1.108-.238 1.23-.09m-8.758.89c-.105.105-.118 1.196-.016 1.361.075.122.324.118.418-.006.092-.122.338-1.023.338-1.24 0-.087-.044-.162-.098-.166l-.322-.028c-.122-.01-.266.025-.32.078" clip-rule="evenodd"/><path fill-opacity=".6" d="M18.256 6.007c-.323-.645-.565-1.193-.539-1.22.056-.055.102-.02.89.652 1.15.982 3.049 2.766 4.297 4.038 6.6 6.725 10.774 13.298 12.28 19.335.431 1.729.547 2.697.55 4.6.002 1.063-.036 2.01-.095 2.364-.195 1.172-.26 1.418-.38 1.418-.064 0-.531-.226-1.038-.502-1.343-.732-3.804-1.953-5.086-2.524-.983-.438-1.804-.767-3.675-1.476-.596-.226-.578-.152-.367-1.495.259-1.652.134-4.428-.308-6.83-.936-5.092-3.513-12.339-6.529-18.36"/><path d="M11.805 1.766c.049-.52.107-1.132.13-1.36.04-.42.1-.494.25-.315.141.172 2.257 4.368 2.956 5.864 4.434 9.492 6.831 17.212 7.22 23.246.088 1.368.024 3.345-.113 3.482-.03.03-.576-.111-1.214-.312-1.33-.418-1.5-.463-2.584-.678-1.782-.354-3.466-.504-5.58-.498-3.221.008-6.245.445-9.417 1.36A22 22 0 0 0 .53 33.609a5 5 0 0 1-.492.205q-.143.001.252-.615c2.231-3.481 4.989-8.838 6.663-12.945 2.549-6.251 4.356-13.135 4.852-18.487"/></g></svg>