
<svg xmlns="http://www.w3.org/2000/svg" width="103" height="28" fill="none" viewBox="0 0 103 28"><g fill="#ffffff" clip-path="url(#a)"><path d="M6.625 25.855C2.649 23.39 0 18.99 0 13.969 0 6.255 6.255 0 13.97 0c3.615 0 6.548 2.93 6.548 6.55 0 3.618-2.93 6.549-6.549 6.549-1.922 0-5.548-1.587-8.873 1.309-4.558 3.965-1.049 9.918 1.529 11.45z"/><path d="M20.968 2.146c3.975 2.464 6.624 6.864 6.624 11.885 0 7.714-6.254 13.97-13.969 13.97a6.549 6.549 0 1 1 0-13.1c1.923 0 5.549 1.587 8.873-1.309 4.558-3.965 1.049-9.918-1.528-11.45zM36.071 5.367h-3.448V4.154h8.27v1.213H37.46v8.414h-1.385V5.367zM42.189 4.157h1.384v4.027h5.268V4.157h1.384v9.627h-1.384v-4.36h-5.268v4.36h-1.385zM54.629 9.483l-3.317-5.326h1.542l2.512 4.113 2.512-4.113h1.487l-3.334 5.326v4.301h-1.398V9.483zM60.832 8.451h1.477v1.464h-1.477zM65.915 4.157h1.326l2.93 5.007 2.93-5.007h1.3l.448 9.627h-1.357l-.319-7.389-2.714 4.545h-.692l-2.67-4.49-.332 7.33h-1.3l.45-9.626zM81.31 14.028a4.7 4.7 0 0 1-1.933-.398 4.9 4.9 0 0 1-1.56-1.083 5 5 0 0 1-1.038-1.607 5.2 5.2 0 0 1-.374-1.978q0-1.052.374-1.97a5 5 0 0 1 1.031-1.6 4.83 4.83 0 0 1 3.5-1.481q1.039 0 1.94.397a4.9 4.9 0 0 1 1.566 1.083 5 5 0 0 1 1.038 1.6q.374.917.374 1.971-.002 1.053-.374 1.978a4.893 4.893 0 0 1-2.605 2.69q-.9.397-1.94.398m0-1.3q.791 0 1.436-.3a3.3 3.3 0 0 0 1.096-.823q.453-.52.7-1.207.246-.684.246-1.45c0-.51-.082-1.007-.247-1.463a3.8 3.8 0 0 0-.699-1.206 3.25 3.25 0 0 0-1.096-.816 3.4 3.4 0 0 0-1.436-.295q-.792.001-1.43.295a3.3 3.3 0 0 0-1.09.816 3.7 3.7 0 0 0-.699 1.206 4.3 4.3 0 0 0-.246 1.464c0 .517.082.993.246 1.45a3.8 3.8 0 0 0 .7 1.206q.452.519 1.09.822c.424.202.897.302 1.429.302M87.89 4.157h3.074q.924.001 1.56.254.636.252 1.031.648.396.396.576.9.18.506.181 1.026 0 .924-.431 1.631-.433.708-1.344 1.052l2.252 4.113h-1.56l-2.063-3.942h-1.933v3.942H87.89zm3.19 4.517q.909.002 1.365-.449.453-.446.455-1.196 0-.792-.49-1.234c-.329-.294-.778-.438-1.357-.438h-1.82v3.317zM96.448 11.444q.199.231.455.47a3.1 3.1 0 0 0 1.275.726q.389.114.85.116.952 0 1.488-.432.534-.432.534-1.168 0-.793-.606-1.19c-.405-.263-.987-.48-1.745-.64a5.2 5.2 0 0 1-1.124-.36 3.3 3.3 0 0 1-.874-.576 2.4 2.4 0 0 1-.569-.802 2.5 2.5 0 0 1-.202-1.032q.001-.534.202-1.01a2.3 2.3 0 0 1 .607-.837 3 3 0 0 1 1.01-.576q.607-.216 1.4-.216.706.001 1.219.151t.874.367.576.449q.215.23.332.374l-.922.85a4 4 0 0 0-.26-.268 2.6 2.6 0 0 0-.439-.325 2.8 2.8 0 0 0-.62-.268 2.8 2.8 0 0 0-.816-.11q-.461 0-.795.124a1.7 1.7 0 0 0-.548.319q-.216.196-.319.438-.102.249-.1.49.001.361.151.614t.44.449c.191.13.431.24.712.332q.427.14.973.268.536.128 1.046.339.513.211.915.562.405.353.641.867.237.513.239 1.248.001.622-.26 1.14a2.8 2.8 0 0 1-.713.902 3.3 3.3 0 0 1-1.076.593c-.415.14-.86.21-1.344.21q-.678 0-1.233-.159a5 5 0 0 1-1.011-.404 4.4 4.4 0 0 1-.795-.541 3.7 3.7 0 0 1-.556-.587l.98-.894zM36.068 16.426h5.973v.672h-5.257v3.763h4.11v.672h-4.11v4.18h5.648v.673h-6.364v-9.963zM44.118 16.426h.747l6.395 8.887v-8.887h.703v9.963h-.747l-6.395-8.767v8.767h-.703zM54.263 16.426h5.973v.672h-5.257v3.763h4.109v.672h-4.11v4.18h5.649v.673h-6.364v-9.963zM62.313 16.426h3.002q.972 0 1.642.21.673.209 1.09.589.416.38.606.898.185.515.185 1.127-.001.973-.5 1.724-.5.756-1.59 1.008l2.375 4.407H68.3l-2.316-4.318h-2.958v4.318h-.716v-9.963zm3.3 4.977q2.464 0 2.465-2.153.001-1.074-.652-1.614c-.431-.36-1.069-.538-1.905-.538h-2.495v4.301h2.584zM78.146 22.345h-2.66v-.672h3.377v3.736q-.253.225-.614.442c-.24.144-.514.278-.83.398-.314.12-.668.212-1.058.284a8 8 0 0 1-1.323.103 5 5 0 0 1-1.97-.38 4.4 4.4 0 0 1-1.533-1.077 4.9 4.9 0 0 1-.987-1.658c-.236-.645-.35-1.347-.35-2.115q0-1.088.35-2.04a5.1 5.1 0 0 1 .987-1.658 4.5 4.5 0 0 1 1.532-1.114 4.8 4.8 0 0 1 1.97-.404q.882 0 1.516.24a4.5 4.5 0 0 1 1.069.558q.432.32.679.634.247.315.335.463l-.538.374a14 14 0 0 0-.298-.38 3.2 3.2 0 0 0-.576-.532 4.1 4.1 0 0 0-.887-.48q-.525-.21-1.224-.209-.97 0-1.74.35a3.7 3.7 0 0 0-1.3.963 4.3 4.3 0 0 0-.815 1.443 5.5 5.5 0 0 0-.285 1.785q0 .958.278 1.786.276.828.805 1.45a3.7 3.7 0 0 0 1.285.97q.756.348 1.697.349 1.152-.001 1.888-.254c.49-.168.898-.37 1.217-.596v-2.762zM81.09 16.426h.717v9.963h-.717z"/></g><defs><clipPath id="a"><path fill="#fff" d="M0 0h102.452v28H0z"/></clipPath></defs></svg>