<svg xmlns="http://www.w3.org/2000/svg" width="374" height="84" fill="none" viewBox="0 0 374 84"><path fill="currentColor" fill-rule="evenodd" d="M126.36 26.534c-.796.159-1.55.39-1.675.516-.182.182-.231 3.03-.241 14.201-.008 7.686.056 14.115.14 14.288.137.28.384.309 2.217.264l2.064-.05.046-7.35.046-7.352.572-.482c.314-.266 1.047-.709 1.63-.985 2.174-1.03 3.891-.484 4.799 1.53.282.626.326 1.462.405 7.671l.088 6.969h4.411l.052-6.704c.035-4.453-.015-7.06-.147-7.762-.417-2.216-1.387-3.675-2.956-4.446-1.916-.94-5.082-.556-7.499.913-.563.342-1.099.622-1.191.622-.103 0-.168-2.36-.168-6.087v-6.086l-.573.021c-.315.012-1.225.151-2.02.31m85.863-.004c-.824.166-1.598.365-1.72.44-.168.104-.22 1.335-.22 5.175v5.038l-.397-.128c-4.566-1.472-7.784-.874-10.304 1.914-3.528 3.904-3.54 11.654-.023 15.17 1.631 1.629 3.699 2.338 6.379 2.188 2.913-.164 3.619-.502 3.904-1.868l.123-.59-1.208.139c-2.46.28-3.698.012-4.796-1.042-1.44-1.38-2.153-3.622-2.159-6.782-.008-4.124 1.462-7.19 3.752-7.822.933-.258 2.888-.02 3.935.476l.706.335.088 8.29.088 8.29h4.411V26.293l-.53-.033c-.291-.018-1.204.104-2.029.27m83.499.004c-.795.159-1.53.371-1.632.474-.129.128-.172 4.635-.141 14.466l.045 14.28h4.234l.047-4.896c.026-2.735.116-4.895.205-4.895.087 0 1.789 2.295 3.783 5.101s3.688 5.139 3.764 5.184c.077.046 1.053-.09 2.169-.303 1.773-.338 2.027-.43 2.019-.732-.005-.19-1.692-2.62-3.749-5.398-2.057-2.78-3.739-5.173-3.739-5.32 0-.146 1.715-1.934 3.812-3.972s3.768-3.778 3.713-3.866-.738-.145-1.518-.125l-1.417.036-4.016 3.883c-2.208 2.136-4.164 4.05-4.347 4.252-.183.203-.401.327-.485.275s-.153-4.298-.153-9.435v-9.34l-.573.022c-.315.012-1.225.151-2.021.31m-150.319 1.257c-.834.508-1.276 1.334-1.276 2.382.001 1.512 1.009 2.555 2.468 2.556 2.762.002 3.677-3.668 1.238-4.964-.797-.423-1.71-.414-2.43.026m139.68.044c-1.762 1.2-1.846 3.358-.175 4.5 2.201 1.502 5.135-1.305 3.657-3.499-.912-1.353-2.355-1.767-3.482-1m43.045-.07c-1.773.944-1.847 3.547-.131 4.625.904.568 2.253.403 3.054-.373 1.082-1.049 1.199-2.471.293-3.548-.851-1.012-2.116-1.288-3.216-.703m-223.83 1.658c-.366.46-.759 1.385-.658 1.55.063.1 1.538.17 3.618.17 3.17 0 3.526.03 3.662.31.082.169.14 5.587.127 12.04s.045 11.873.129 12.046c.137.28.388.308 2.306.264l2.152-.05.088-12.26.088-12.261 3.661-.048c4.086-.053 3.957-.003 3.304-1.283l-.356-.698h-8.973c-6.966 0-9.011.049-9.148.22m115.946-.002c-.047.123-.064 6.098-.039 13.278l.046 13.055h4.41l.088-6.351.088-6.351 3.571-.048 3.571-.048.354-.695c.654-1.281.808-1.226-3.57-1.279l-3.926-.047v-9.703l5.249-.047c4.024-.036 5.248-.098 5.246-.265-.002-.12-.183-.535-.403-.923l-.4-.706-7.1-.046c-5.585-.036-7.118.001-7.185.176m-49.347 2.242c-.849.167-1.597.357-1.662.423-.066.065-.102 1.026-.079 2.135.045 2.255-.005 2.349-1.214 2.303-.98-.037-1.263.184-1.201.938l.054.65 1.147.088 1.147.088.01 7.057c.012 7.865.074 8.429 1.058 9.579 1.114 1.3 2.659 1.611 5.916 1.189 2.494-.324 2.744-.469 2.912-1.692l.109-.799-1.945.008c-1.702.006-2.007-.039-2.444-.362-1.027-.757-1.029-.774-1.029-8.187v-6.793l2.205-.088 2.205-.088.057-.596c.031-.328-.028-.681-.133-.785-.108-.11-1.037-.204-2.174-.223a71 71 0 0 1-2.116-.052c-.073-.011-.132-1.171-.132-2.578V31.32l-.574.02c-.315.01-1.268.156-2.117.323m-24.39 4.795c-.97.191-1.844.452-1.941.579-.115.148-.169 3.487-.155 9.385.013 5.036.033 9.217.045 9.293s.995.116 2.183.088l2.162-.05v-9.788c0-8.569-.033-9.793-.265-9.822-.146-.019-1.059.123-2.029.315m95.675-.16c-3.849.437-6.923 3.305-7.989 7.452-.607 2.365-.192 6.03.917 8.085 2.251 4.171 8.204 5.765 12.906 3.456 3.796-1.864 5.846-7.22 4.611-12.048-.45-1.76-1.084-2.916-2.336-4.259-2.002-2.147-4.773-3.065-8.109-2.686m15.117.208-1.941.38v18.868l2.161.05c1.189.027 2.171-.013 2.182-.089s.034-3.145.048-6.82l.027-6.683.878-.798c.982-.892 2.39-1.622 3.134-1.624.27-.001.774.117 1.121.261s.692.226.767.18c.179-.111 1.061-2.95 1.061-3.417 0-.28-.175-.412-.748-.566-1.644-.442-3.246.152-4.893 1.814-1.168 1.178-1.185 1.172-1.291-.495-.068-1.057-.204-1.505-.444-1.462zm28.668-.01-1.853.381v18.877h4.411v-9.791c0-9.665-.005-9.792-.353-9.82-.194-.014-1.186.145-2.205.354m29.374.01-1.941.38v18.868l2.161.05c1.189.027 2.171-.013 2.182-.089s.034-3.132.048-6.793l.027-6.655.701-.718c.809-.828 2.554-1.761 3.295-1.761.279 0 .796.12 1.15.269.353.148.7.207.771.132.183-.195 1.044-3 1.044-3.403 0-.247-.2-.39-.748-.538-1.635-.44-3.308.176-4.917 1.81-.558.566-1.063.951-1.123.854s-.133-.682-.163-1.3c-.052-1.1-.179-1.55-.425-1.507zm13.672-.006-1.852.377v18.877l2.161.05c1.388.031 2.169-.016 2.183-.133.11-.91.053-19.045-.061-19.28-.177-.364-.087-.368-2.431.109m10.004 0c-1.048.208-1.961.47-2.03.582-.097.159-.151 18.037-.057 18.633.012.076.995.116 2.183.088l2.161-.05.089-7.401.088-7.403.84-.634c1.507-1.14 3.415-1.55 4.528-.974.733.378 1.35 1.193 1.704 2.25.275.82.315 1.71.331 7.411.011 4.28.08 6.544.203 6.666.115.115.957.167 2.2.136l2.014-.05V48.52c0-8.025-.035-8.322-1.173-10.04-1.784-2.694-5.83-2.908-9.638-.512-1.045.658-1.062.646-1.137-.813-.027-.526-.128-.974-.225-.994s-1.034.132-2.081.339m-182.467.092c-2.727.78-4.317 2.77-4.305 5.39.009 2.102 1.132 3.298 4.819 5.131 1.439.716 2.895 1.513 3.234 1.772 1.906 1.453 1.706 3.56-.436 4.61-.866.423-1.263.5-2.858.553-1.71.057-3.334-.162-4.483-.605-.311-.12-.328-.067-.219.725.064.47.238.988.386 1.152.84.928 6.329 1.29 8.638.57 3.001-.937 4.524-2.866 4.486-5.681-.036-2.632-1.531-4.161-6.048-6.19-2.546-1.142-3.289-1.769-3.289-2.77 0-.965.599-1.806 1.664-2.333 1.103-.547 3.161-.593 4.824-.108.609.178 1.153.278 1.208.223.152-.152-.105-1.462-.353-1.8-.613-.84-5.17-1.24-7.268-.64m29.407-.053c-3.184.855-5.509 3.411-6.487 7.13-.411 1.56-.405 4.804.011 6.339.839 3.094 2.7 5.05 5.662 5.948.803.243 1.591.316 3.264.3 2.117-.02 5.171-.419 5.806-.759.317-.169.786-1.776.576-1.973-.065-.062-.754.003-1.531.144-2.113.385-4.681.242-5.93-.33-2.221-1.017-3.213-2.852-3.392-6.273-.04-.767.012-1.385.129-1.543.166-.222 1.106-.27 6.106-.308l5.91-.045-.051-1.235c-.161-3.884-2.034-6.626-5.058-7.404-1.304-.335-3.752-.331-5.015.008m85.72-.035c-2.753.811-4.273 2.434-4.521 4.827-.162 1.564.147 2.403 1.317 3.573.82.82 1.498 1.246 3.74 2.35 3.366 1.658 4.074 2.282 4.178 3.686.094 1.28-.344 1.954-1.676 2.572-1.376.638-4.243.756-6.177.253-.708-.184-1.33-.265-1.382-.18-.171.276.129 1.514.432 1.782.965.854 6.281 1.224 8.411.585 3.325-.997 4.833-2.96 4.636-6.031-.099-1.536-.605-2.517-1.856-3.591-.794-.683-1.544-1.09-5.214-2.826-1.82-.862-2.312-1.439-2.175-2.554.114-.935.578-1.519 1.619-2.04.749-.376 1.099-.435 2.461-.418.978.013 1.884.13 2.36.305 1.232.455 1.316.416 1.172-.553-.069-.46-.204-.933-.3-1.05-.59-.717-5.346-1.184-7.025-.69m90.503.09c-2.345.755-4.015 2.008-4.889 3.667-.671 1.272-.814 1.913-.787 3.54.03 1.88.476 2.772 2.173 4.348.762.708 1.386 1.351 1.386 1.429 0 .077-.361.527-.803 1-.998 1.066-1.663 2.455-1.665 3.477-.002.657.096.868.665 1.437.881.881 1.883 1.16 5.398 1.506 1.564.154 3.189.355 3.609.448 1.017.224 2.059.77 2.399 1.256.324.462.363 1.697.075 2.33-.278.61-1.272 1.25-2.533 1.633-1.441.436-5.97.438-7.729.002-1.863-.46-1.941-.441-1.793.452.199 1.199.325 1.32 1.715 1.626 2.87.634 6.574.68 8.805.11 1.966-.503 2.938-1.024 4.146-2.223 1.234-1.225 1.648-2.233 1.648-4.005 0-1.227-.342-2.13-1.111-2.933-1.106-1.153-2.669-1.664-6.034-1.971a169 169 0 0 1-3.425-.348c-2.178-.257-2.689-.997-1.709-2.478l.439-.663 1.465.087c3.638.214 7.076-1.488 8.383-4.148.434-.886.493-1.203.493-2.68 0-1.916-.298-2.906-1.248-4.15-.326-.428-.536-.81-.466-.85.069-.04.562-.011 1.096.064.74.103 1.016.078 1.164-.107.225-.282.2-1.61-.034-1.823-.088-.08-2.343-.19-5.011-.246-4.335-.089-4.955-.066-5.822.213m-172.523 1.832c.328.221.773.715.988 1.099.418.747.84 2.715.736 3.439l-.063.44h-7.234l-.059-.418c-.087-.619.651-2.757 1.228-3.552.68-.94 1.591-1.393 2.819-1.402.745-.006 1.135.09 1.585.394m55.299-.07c1.928.875 3.101 3.88 3.104 7.954.004 4.235-1.277 7.356-3.34 8.141-.688.262-2.183.223-2.878-.075-2.001-.857-3.191-3.922-3.199-8.237-.007-4.086 1.168-6.946 3.219-7.834.84-.364 2.232-.341 3.094.05m121.511.247c.344.262.833.901 1.088 1.421 1.445 2.955.666 7.203-1.53 8.34-.676.349-2.253.347-2.931-.003-1.427-.738-2.239-2.621-2.213-5.133.024-2.356.804-4.126 2.137-4.85.974-.528 2.601-.422 3.449.225M126.258 68.217c-.452.253-.391 1.149.096 1.41.219.116.437.19.486.165l.397-.213c.335-.179.43-1.115.133-1.299-.331-.204-.811-.231-1.112-.063m15.842-.071c-.954.16-1.166.263-1.453.701-.171.261-.351.955-.4 1.541l-.088 1.067-.705.088c-.647.081-.706.133-.706.618s.059.537.706.617l.705.089.088 3.263.089 3.264h1.411l.088-3.264.088-3.263 1.059-.089c1.039-.086 1.058-.098 1.058-.617 0-.52-.019-.53-1.058-.618l-1.059-.088-.051-.705c-.07-.95.232-1.3 1.198-1.394l.926-.091c.214-.024.152-.864-.073-1.004-.229-.141-1.277-.208-1.823-.115m16.948.104c-.25.182-.277.836-.235 5.675l.047 5.47.65.053c.487.04.689-.026.806-.264.162-.331.198-10.72.038-10.88-.21-.21-1.046-.245-1.306-.054m4.059-.001c-.251.184-.278.825-.237 5.676l.047 5.47h1.412l.046-5.458c.026-3.002-.019-5.525-.101-5.606-.255-.255-.872-.299-1.167-.082m51.325-.103c-.954.16-1.166.263-1.453.701-.171.261-.351.955-.4 1.541l-.088 1.067-.705.088c-.647.081-.706.133-.706.618s.059.537.706.617l.705.089.088 3.263.089 3.264h1.411l.088-3.264.088-3.263 1.059-.089c1.039-.086 1.059-.098 1.059-.617 0-.52-.02-.53-1.059-.618l-1.059-.088-.051-.705c-.07-.95.232-1.3 1.198-1.394l.926-.091c.214-.024.152-.864-.073-1.004-.229-.141-1.277-.208-1.823-.115m29.834.104c-.198.15-.287.593-.323 1.618l-.049 1.41-1.275.03c-1.704.04-2.354.283-3.199 1.199-.867.94-1.151 1.9-1.037 3.507.111 1.565.699 2.467 2.072 3.174.924.476 1.059.496 2.915.43 1.071-.036 2.043-.127 2.161-.2.251-.155.319-10.965.071-11.119-.343-.212-1.084-.24-1.336-.05m4.073-.032c-.401.224-.394 1.147.01 1.356.261.136 1.07.12 1.213-.023.126-.126.192-.978.089-1.145-.169-.273-.958-.386-1.312-.188m-136.59.898c-.048.125-.066 2.488-.04 5.252l.047 5.026h1.411l.088-2.117.088-2.117 1.941-.088 1.941-.088v-1.235l-1.941-.088-1.941-.089v-3.175l2.47-.089 2.47-.088v-1.235l-3.223-.048c-2.499-.037-3.244.003-3.311.179m90.51 2.236c-2.697.113-3.293.306-4.039 1.307-.578.777-.514 2.342.132 3.188l.491.645-.453.538c-.472.56-.587 1.343-.282 1.913.308.577 1.47.892 3.284.892 1.821 0 2.367.166 2.367.722 0 .255-.237.46-.832.724-.737.326-1.046.356-2.717.26-2.007-.115-2.189-.049-1.912.695.172.464.801.598 2.804.598 2.772 0 4.194-.759 4.372-2.332.073-.648.013-.86-.376-1.322-.533-.632-.956-.734-3.533-.849-1.867-.083-2.207-.25-1.792-.876.187-.283.504-.376 1.571-.465 2.187-.18 3.209-1.035 3.207-2.68-.001-.503-.04-1.072-.088-1.266-.072-.29.021-.367.53-.44.572-.084.618-.137.618-.708 0-.728.213-.693-3.352-.544m53.984 0c-2.76.115-3.364.324-4.101 1.418-.638.947-.485 2.424.343 3.308l.364.388-.473.562c-.643.765-.589 1.813.122 2.341.41.305.838.38 2.646.46 1.187.052 2.257.159 2.378.237.495.32.233.842-.61 1.215-.737.326-1.046.356-2.722.26-1.977-.113-2.135-.061-1.952.645.125.482.769.648 2.509.648 3.032 0 4.509-.694 4.69-2.205.19-1.596-.687-2.152-3.604-2.284-2.083-.094-2.324-.149-2.324-.522 0-.479.63-.768 1.854-.85 1.427-.097 2.19-.434 2.746-1.214.42-.59.544-1.786.276-2.66-.139-.452-.114-.476.532-.53.647-.053.678-.084.678-.673 0-.728.214-.693-3.352-.544m-132.755.142a13 13 0 0 0-1.19.253c-.566.147-.811.143-1.003-.016-.14-.117-.517-.186-.839-.155l-.585.056v7.762l.75.054c.434.032.759-.024.772-.132.012-.103.042-1.377.066-2.833.024-1.455.054-2.723.066-2.816.04-.311.803-.595 1.874-.698 1.036-.1 1.06-.114 1.113-.664.062-.634-.285-.908-1.024-.811m22.581.03c-.343.096-.441.24-.441.645v.521h1.91c2.171 0 2.473.169 2.376 1.323l-.052.618-1.411.105c-1.551.115-2.326.427-2.913 1.17-.32.406-.373.66-.313 1.497.08 1.126.411 1.63 1.324 2.015.761.323 3.118.306 4.249-.03.826-.245.962-.244 1.457.012.376.194 1.005.28 2.032.276 1.745-.006 2.236-.198 2.158-.845-.055-.447-.069-.45-1.772-.473-1.673-.022-1.731-.037-2.265-.57-.374-.375-.557-.737-.576-1.147l-.029-.599 2.558-.088 2.558-.088-.007-1.059c-.008-1.276-.423-2.22-1.256-2.856-.873-.666-2.74-.786-3.781-.243l-.741.386-.845-.363c-.645-.278-1.193-.36-2.312-.346-.806.01-1.665.072-1.908.14m22.599.071c-2.776.886-3.083 5.823-.463 7.445.791.49 1.006.535 2.754.59 1.739.054 1.927.028 2.269-.314.269-.27.329-.455.213-.662-.132-.236-.498-.29-2.048-.303l-1.887-.015-.615-.671c-.395-.431-.595-.81-.56-1.059.054-.376.137-.39 2.878-.476l2.823-.088.054-.65c.124-1.496-.666-3.004-1.901-3.628-.869-.439-2.436-.514-3.517-.169m8.441-.069c-1.227.395-1.754 1.074-1.754 2.263 0 1.208.875 1.922 2.856 2.331 1.873.387 2.453 1.357 1.202 2.007q-.873.455-3.617.08c-.294-.04-.353.054-.353.562 0 .757.262.85 2.47.868 2.578.023 3.793-.769 3.793-2.47 0-1.314-.569-1.843-2.555-2.374-1.737-.463-2.419-.933-2.1-1.444.388-.621.965-.771 2.56-.664 1.414.096 1.529.078 1.614-.247.197-.754-.25-.98-2.018-1.02-.906-.02-1.85.029-2.098.108m12.921.3c-2.738 1.363-2.62 6.07.188 7.503.585.298.966.353 2.084.303 1.2-.055 1.461-.13 2.134-.616 1.979-1.43 2.315-4.92.63-6.55-1.245-1.205-3.363-1.475-5.036-.64m29.869-.13c-.889.404-1.776 1.401-2.016 2.269-.64 2.304.335 4.728 2.187 5.436 1.18.45 3.005.304 3.942-.316 1.436-.95 2.145-3.143 1.631-5.044-.27-.997-1.378-2.2-2.274-2.468-1.022-.307-2.651-.249-3.47.123m11.182-.14c-.449.071-.992.222-1.206.337-.317.17-.448.154-.711-.084-.186-.169-.534-.268-.824-.235l-.5.058v7.762l.75.054c.434.032.759-.024.771-.132.013-.103.042-1.377.067-2.833.024-1.455.054-2.723.066-2.816.04-.311.803-.595 1.874-.698 1.036-.1 1.06-.114 1.113-.664.07-.718-.306-.92-1.4-.748m-105.04.202c-.05.13-.069 1.9-.043 3.936l.048 3.7h1.411v-7.762l-.663-.055c-.432-.036-.695.027-.753.18m122.078.01c-.048.124-.065 1.89-.039 3.926l.048 3.7.596.057c.328.031.684-.031.792-.139.236-.236.303-6.99.074-7.46-.18-.367-1.337-.433-1.471-.083m-93.392 1.35c.378.377.516.684.516 1.146v.631h-1.681c-1.892 0-2.02-.087-1.673-1.138.413-1.254 1.891-1.587 2.838-.64m16.846-.11c.351.302.478.583.495 1.102l.023.697-1.811.05c-1.499.042-1.83.004-1.916-.22-.162-.424.084-1.142.551-1.61.593-.592 1.98-.603 2.658-.02m21.863-.023c.631.496.972 1.337.971 2.39-.002 2.004-.785 3.049-2.282 3.049-1.493 0-2.304-1.025-2.304-2.911 0-1.88.812-2.911 2.294-2.911.589 0 .977.112 1.321.382m9.007.05c.642.642.616 1.868-.052 2.394-.394.311-.648.368-1.356.3-1.067-.101-1.511-.56-1.511-1.567 0-1 .602-1.56 1.676-1.56.625 0 .909.099 1.243.433m20.631-.05c.653.513.973 1.344.973 2.528 0 1.886-.811 2.91-2.304 2.91-1.497 0-2.28-1.044-2.282-3.048-.002-1.74.853-2.773 2.292-2.773.589 0 .978.112 1.321.382m20.82 2.528v2.823l-.882.048c-1.781.097-2.911-.996-2.911-2.815 0-2.094.857-3.011 2.734-2.926l1.059.047zm12.534-2.478c.544.545.591 1.626.095 2.238-.282.35-.499.416-1.338.416-1.24 0-1.676-.414-1.676-1.594 0-.613.091-.833.465-1.127.678-.534 1.886-.5 2.454.067m-106.516 3.14c.1.12.238.596.306 1.055.118.792.1.844-.348 1.014-.708.27-2.08.218-2.526-.095-.291-.204-.393-.451-.393-.96 0-.377.093-.742.206-.812.645-.399 2.483-.534 2.755-.203m-19.614 1.992c-.236.235-.265 2.68-.037 3.05.169.272.726.264.936-.015.207-.272.759-2.292.759-2.775 0-.196-.099-.364-.221-.374l-.719-.061c-.275-.025-.598.054-.718.175" clip-rule="evenodd"/><path fill="currentColor" fill-opacity=".6" d="M40.885 13.452c-.722-1.443-1.265-2.671-1.206-2.73.124-.124.228-.048 1.991 1.458 2.575 2.199 6.829 6.196 9.623 9.044 14.78 15.06 24.13 29.78 27.503 43.301.966 3.871 1.225 6.04 1.232 10.304.004 2.378-.08 4.5-.213 5.292-.436 2.625-.584 3.176-.852 3.176-.142 0-1.189-.507-2.325-1.126-3.007-1.638-8.518-4.373-11.39-5.652-2.202-.98-4.04-1.718-8.23-3.304-1.335-.506-1.294-.34-.823-3.349.581-3.7.301-9.917-.688-15.298-2.096-11.402-7.868-27.63-14.622-41.116"/><path fill="currentColor" d="M26.438 3.955c.109-1.165.239-2.536.29-3.046.092-.939.226-1.107.56-.704.317.383 5.055 9.78 6.62 13.132 9.93 21.257 15.3 38.545 16.169 52.059.197 3.065.054 7.49-.252 7.797-.066.066-1.29-.248-2.719-.697-2.977-.937-3.36-1.038-5.787-1.52-3.99-.792-7.762-1.128-12.498-1.115-7.212.02-13.985.999-21.087 3.048-2.4.692-4.619 1.491-6.546 2.358-.56.252-1.056.458-1.102.458-.214 0-.029-.455.562-1.377 4.998-7.796 11.174-19.794 14.923-28.99 5.709-14.001 9.755-29.416 10.867-41.403"/></svg>